<svg xmlns="http://www.w3.org/2000/svg" width="375" viewBox="0 0 375 375" height="375" version="1.0"><defs><clipPath id="a"><path d="M 14 335 L 68 335 L 68 351.851562 L 14 351.851562 Z M 14 335"/></clipPath><clipPath id="b"><path d="M 184 34.601562 L 256 34.601562 L 256 81 L 184 81 Z M 184 34.601562"/></clipPath></defs><path fill="#011D45" d="M 352.597656 344.496094 L 329.007812 344.496094 C 328.859375 344.496094 328.726562 344.453125 328.609375 344.363281 C 328.492188 344.273438 328.417969 344.15625 328.382812 344.011719 C 328.347656 343.867188 328.359375 343.730469 328.421875 343.597656 C 328.484375 343.460938 328.582031 343.363281 328.714844 343.296875 L 341.492188 336.601562 L 341.492188 329.433594 L 352.40625 329.433594 L 352.40625 338.300781 L 353.652344 343.070312 C 353.699219 343.238281 353.703125 343.40625 353.671875 343.574219 C 353.640625 343.746094 353.570312 343.898438 353.46875 344.039062 C 353.367188 344.175781 353.238281 344.285156 353.085938 344.367188 C 352.933594 344.445312 352.769531 344.488281 352.597656 344.496094 Z M 352.597656 344.496094"/><path fill="#011D45" d="M 374.109375 322.417969 L 354.085938 334.96875 C 353.964844 335.050781 353.828125 335.082031 353.679688 335.070312 C 353.53125 335.054688 353.40625 334.996094 353.300781 334.894531 C 353.191406 334.792969 353.128906 334.667969 353.113281 334.519531 C 353.09375 334.371094 353.121094 334.234375 353.199219 334.109375 L 360.410156 321.835938 L 356.777344 315.875 L 366.03125 310.078125 L 369.984375 316.585938 L 374.289062 320.625 C 374.417969 320.746094 374.511719 320.890625 374.570312 321.054688 C 374.632812 321.222656 374.65625 321.390625 374.636719 321.566406 C 374.621094 321.742188 374.566406 321.90625 374.472656 322.054688 C 374.378906 322.203125 374.257812 322.324219 374.109375 322.417969 Z M 374.109375 322.417969"/><path fill="#FFF" d="M 121.722656 316.800781 L 117.269531 325.554688 L 109.078125 324.382812 L 112.597656 316.832031 Z M 69.300781 316.914062 L 66.222656 324.394531 L 74.460938 325.554688 L 78.90625 316.800781 Z M 69.300781 316.914062"/><path fill="#16A795" d="M 175.574219 153.957031 L 41.8125 153.957031 L 41.8125 85.097656 L 175.574219 85.097656 Z M 64.25 67.363281 C 63.949219 67.363281 63.660156 67.421875 63.378906 67.539062 C 63.101562 67.652344 62.855469 67.816406 62.644531 68.03125 C 62.429688 68.242188 62.265625 68.488281 62.148438 68.769531 C 62.035156 69.046875 61.976562 69.335938 61.976562 69.640625 C 61.976562 69.941406 62.035156 70.230469 62.148438 70.511719 C 62.265625 70.789062 62.429688 71.035156 62.644531 71.25 C 62.855469 71.460938 63.101562 71.625 63.378906 71.742188 C 63.660156 71.855469 63.949219 71.914062 64.25 71.914062 C 64.550781 71.914062 64.84375 71.855469 65.121094 71.742188 C 65.398438 71.625 65.644531 71.460938 65.859375 71.25 C 66.070312 71.035156 66.238281 70.789062 66.351562 70.511719 C 66.46875 70.230469 66.523438 69.941406 66.523438 69.640625 C 66.523438 69.335938 66.46875 69.046875 66.351562 68.769531 C 66.238281 68.488281 66.070312 68.242188 65.859375 68.03125 C 65.644531 67.816406 65.398438 67.652344 65.121094 67.539062 C 64.84375 67.421875 64.550781 67.363281 64.25 67.363281 Z M 54.929688 67.363281 C 54.625 67.363281 54.335938 67.417969 54.058594 67.535156 C 53.777344 67.648438 53.53125 67.8125 53.316406 68.023438 C 53.101562 68.238281 52.9375 68.484375 52.820312 68.761719 C 52.703125 69.039062 52.644531 69.332031 52.644531 69.632812 C 52.644531 69.933594 52.703125 70.226562 52.816406 70.503906 C 52.929688 70.785156 53.09375 71.03125 53.308594 71.246094 C 53.519531 71.460938 53.765625 71.625 54.046875 71.742188 C 54.324219 71.855469 54.613281 71.914062 54.917969 71.914062 C 55.21875 71.914062 55.507812 71.859375 55.789062 71.742188 C 56.066406 71.628906 56.3125 71.464844 56.527344 71.25 C 56.738281 71.035156 56.902344 70.789062 57.019531 70.511719 C 57.136719 70.230469 57.191406 69.941406 57.191406 69.640625 C 57.191406 69.339844 57.136719 69.050781 57.019531 68.769531 C 56.90625 68.492188 56.742188 68.246094 56.53125 68.035156 C 56.316406 67.820312 56.074219 67.65625 55.796875 67.539062 C 55.519531 67.425781 55.230469 67.367188 54.929688 67.363281 Z M 45.597656 67.363281 C 45.296875 67.363281 45.003906 67.421875 44.726562 67.539062 C 44.449219 67.652344 44.203125 67.816406 43.988281 68.03125 C 43.777344 68.242188 43.609375 68.488281 43.496094 68.769531 C 43.378906 69.046875 43.324219 69.335938 43.324219 69.640625 C 43.324219 69.941406 43.378906 70.230469 43.496094 70.511719 C 43.609375 70.789062 43.777344 71.035156 43.988281 71.25 C 44.203125 71.460938 44.449219 71.625 44.726562 71.742188 C 45.003906 71.855469 45.296875 71.914062 45.597656 71.914062 C 45.898438 71.914062 46.1875 71.855469 46.46875 71.742188 C 46.746094 71.625 46.992188 71.460938 47.203125 71.25 C 47.417969 71.035156 47.582031 70.789062 47.699219 70.511719 C 47.8125 70.230469 47.871094 69.941406 47.871094 69.640625 C 47.871094 69.335938 47.816406 69.046875 47.699219 68.765625 C 47.585938 68.488281 47.421875 68.242188 47.207031 68.027344 C 46.992188 67.8125 46.746094 67.648438 46.46875 67.535156 C 46.1875 67.417969 45.898438 67.363281 45.597656 67.363281 Z M 45.597656 67.363281"/><g clip-path="url(#a)"><path fill="#011D45" d="M 38.886719 350.992188 L 15.195312 350.265625 C 15.019531 350.261719 14.851562 350.21875 14.695312 350.132812 C 14.539062 350.050781 14.40625 349.9375 14.304688 349.796875 C 14.199219 349.652344 14.132812 349.492188 14.105469 349.316406 C 14.074219 349.140625 14.085938 348.96875 14.136719 348.800781 L 15.695312 343.503906 L 16.636719 335.195312 L 27.566406 335.523438 L 26.753906 342.796875 L 39.238281 349.792969 C 39.367188 349.867188 39.457031 349.972656 39.515625 350.109375 C 39.570312 350.246094 39.578125 350.386719 39.535156 350.53125 C 39.492188 350.671875 39.414062 350.785156 39.292969 350.871094 C 39.171875 350.960938 39.035156 351 38.886719 350.992188 Z M 66.910156 350.640625 L 54.171875 343.496094 L 53.625 336.320312 L 42.699219 335.988281 L 43.351562 344.484375 L 41.832031 349.613281 C 41.78125 349.78125 41.773438 349.953125 41.800781 350.128906 C 41.832031 350.300781 41.898438 350.460938 42.003906 350.601562 C 42.105469 350.746094 42.234375 350.859375 42.390625 350.941406 C 42.546875 351.027344 42.710938 351.070312 42.890625 351.074219 L 66.589844 351.804688 C 66.898438 351.789062 67.09375 351.636719 67.175781 351.339844 C 67.257812 351.042969 67.167969 350.808594 66.910156 350.640625 Z M 66.910156 350.640625"/></g><path fill="#FFF" d="M 14.382812 227.300781 L 22.875 223.082031 L 22.46875 221.617188 L 26.746094 221.164062 L 40.832031 214.195312 L 40.984375 219.683594 L 50.417969 218.691406 L 58.15625 261.539062 C 58.355469 262.664062 58.457031 263.800781 58.457031 264.945312 L 58.710938 338.886719 L 40.953125 338.347656 L 37.859375 289.628906 L 30.019531 337.441406 L 29.941406 337.886719 L 12.957031 337.367188 L 19.195312 267.324219 L 14.429688 227.667969 Z M 14.382812 227.300781"/><path fill="#011D45" d="M 58.84375 264.984375 C 58.839844 263.820312 58.734375 262.664062 58.523438 261.519531 L 50.796875 218.679688 C 50.777344 218.589844 50.734375 218.515625 50.660156 218.460938 C 50.585938 218.402344 50.5 218.378906 50.410156 218.386719 L 41.351562 219.332031 L 41.210938 214.234375 C 41.207031 214.171875 41.191406 214.117188 41.160156 214.066406 C 41.132812 214.011719 41.089844 213.972656 41.039062 213.941406 C 40.984375 213.910156 40.929688 213.894531 40.871094 213.894531 C 40.808594 213.890625 40.753906 213.902344 40.699219 213.933594 L 26.667969 220.871094 L 22.460938 221.304688 C 22.351562 221.324219 22.265625 221.378906 22.195312 221.464844 C 22.136719 221.554688 22.117188 221.652344 22.148438 221.757812 L 22.488281 222.9375 L 14.222656 227.027344 C 14.074219 227.101562 14.011719 227.222656 14.035156 227.386719 L 18.835938 267.34375 L 12.601562 337.386719 C 12.59375 337.484375 12.621094 337.574219 12.683594 337.648438 C 12.753906 337.726562 12.839844 337.761719 12.941406 337.761719 L 29.925781 338.28125 C 30.128906 338.289062 30.25 338.191406 30.28125 337.988281 L 37.726562 292.800781 L 40.613281 338.414062 C 40.621094 338.507812 40.65625 338.585938 40.722656 338.652344 C 40.789062 338.71875 40.871094 338.753906 40.964844 338.753906 L 58.722656 339.292969 C 58.820312 339.292969 58.90625 339.257812 58.976562 339.1875 C 59.050781 339.121094 59.085938 339.035156 59.089844 338.933594 Z M 41.3125 338.007812 L 38.246094 289.628906 C 39.046875 279.449219 40.304688 264.039062 40.492188 263.3125 C 40.792969 262.226562 37.273438 247.722656 36.566406 244.824219 C 36.546875 244.730469 36.496094 244.65625 36.414062 244.601562 C 36.328125 244.550781 36.242188 244.535156 36.144531 244.558594 C 36.050781 244.582031 35.976562 244.632812 35.925781 244.71875 C 35.875 244.800781 35.863281 244.890625 35.886719 244.984375 C 37.480469 251.539062 39.964844 262.253906 39.804688 263.125 C 39.511719 264.164062 37.71875 286.925781 37.511719 289.5625 L 29.621094 337.488281 L 13.308594 337 L 19.507812 267.261719 L 14.789062 227.605469 L 14.789062 227.492188 L 23.09375 223.390625 C 23.265625 223.300781 23.324219 223.164062 23.273438 222.976562 L 22.980469 221.910156 L 26.808594 221.550781 L 26.933594 221.550781 L 40.492188 214.761719 L 40.625 219.691406 C 40.628906 219.792969 40.667969 219.875 40.746094 219.941406 C 40.820312 220.011719 40.910156 220.039062 41.011719 220.03125 L 50.136719 219.085938 L 57.804688 261.574219 C 58.019531 262.703125 58.128906 263.839844 58.136719 264.984375 L 58.417969 338.527344 Z M 41.3125 338.007812"/><path fill="#16A795" d="M 175.835938 271.421875 L 314.125 271.421875 L 314.125 342.585938 L 175.835938 342.585938 Z M 175.835938 271.421875"/><path fill="#011D45" d="M 169.25 149.035156 L 35.492188 149.035156 C 35.394531 149.039062 35.308594 149.007812 35.238281 148.9375 C 35.167969 148.871094 35.132812 148.785156 35.132812 148.6875 L 35.132812 79.828125 C 35.132812 79.730469 35.167969 79.644531 35.238281 79.578125 C 35.308594 79.507812 35.394531 79.476562 35.492188 79.476562 L 169.25 79.476562 C 169.351562 79.476562 169.433594 79.507812 169.503906 79.578125 C 169.574219 79.644531 169.609375 79.730469 169.609375 79.828125 L 169.609375 148.6875 C 169.609375 148.785156 169.574219 148.871094 169.503906 148.9375 C 169.433594 149.007812 169.351562 149.039062 169.25 149.035156 Z M 35.839844 148.328125 L 168.882812 148.328125 L 168.882812 80.1875 L 35.839844 80.1875 Z M 169.25 75.703125 L 35.492188 75.703125 C 35.394531 75.703125 35.308594 75.671875 35.238281 75.601562 C 35.167969 75.535156 35.132812 75.449219 35.132812 75.351562 L 35.132812 63.925781 C 35.132812 63.828125 35.167969 63.742188 35.238281 63.671875 C 35.308594 63.601562 35.390625 63.570312 35.492188 63.570312 L 169.25 63.570312 C 169.351562 63.570312 169.433594 63.601562 169.503906 63.671875 C 169.574219 63.742188 169.609375 63.828125 169.609375 63.925781 L 169.609375 75.351562 C 169.609375 75.449219 169.574219 75.535156 169.503906 75.601562 C 169.433594 75.671875 169.351562 75.703125 169.25 75.703125 Z M 35.839844 74.992188 L 168.882812 74.992188 L 168.882812 64.277344 L 35.839844 64.277344 Z M 35.839844 74.992188"/><path fill="#FFF" d="M 323.289062 105.1875 L 323.289062 222.496094 C 323.289062 223.308594 323.207031 224.113281 323.046875 224.914062 C 322.886719 225.710938 322.652344 226.484375 322.339844 227.234375 C 322.027344 227.988281 321.648438 228.699219 321.195312 229.375 C 320.742188 230.050781 320.230469 230.679688 319.652344 231.253906 C 319.078125 231.828125 318.453125 232.339844 317.777344 232.792969 C 317.101562 233.246094 316.386719 233.625 315.636719 233.9375 C 314.886719 234.25 314.113281 234.484375 313.316406 234.644531 C 312.519531 234.804688 311.710938 234.882812 310.898438 234.882812 L 119.914062 234.882812 C 119.097656 234.886719 118.289062 234.808594 117.492188 234.648438 C 116.691406 234.492188 115.917969 234.257812 115.164062 233.949219 C 114.410156 233.636719 113.695312 233.257812 113.015625 232.804688 C 112.339844 232.355469 111.710938 231.839844 111.132812 231.265625 C 110.554688 230.691406 110.042969 230.066406 109.585938 229.386719 C 109.132812 228.710938 108.75 227.996094 108.4375 227.246094 C 108.125 226.492188 107.886719 225.714844 107.726562 224.917969 C 107.566406 224.117188 107.488281 223.3125 107.484375 222.496094 L 107.484375 105.1875 C 107.488281 104.375 107.566406 103.570312 107.726562 102.773438 C 107.886719 101.972656 108.121094 101.199219 108.433594 100.449219 C 108.746094 99.699219 109.128906 98.984375 109.578125 98.308594 C 110.03125 97.632812 110.546875 97.007812 111.121094 96.429688 C 111.695312 95.855469 112.320312 95.34375 112.996094 94.890625 C 113.671875 94.4375 114.386719 94.058594 115.136719 93.746094 C 115.886719 93.433594 116.660156 93.199219 117.460938 93.039062 C 118.257812 92.882812 119.0625 92.800781 119.875 92.800781 L 310.898438 92.800781 C 311.710938 92.800781 312.519531 92.882812 313.316406 93.039062 C 314.113281 93.199219 314.886719 93.433594 315.636719 93.746094 C 316.386719 94.058594 317.101562 94.4375 317.777344 94.890625 C 318.453125 95.34375 319.078125 95.855469 319.652344 96.429688 C 320.230469 97.007812 320.742188 97.632812 321.195312 98.308594 C 321.648438 98.984375 322.027344 99.699219 322.339844 100.449219 C 322.652344 101.199219 322.886719 101.972656 323.046875 102.773438 C 323.207031 103.570312 323.289062 104.375 323.289062 105.1875 Z M 323.289062 105.1875"/><path fill="#011D45" d="M 310.898438 235.222656 L 119.914062 235.222656 C 119.074219 235.222656 118.25 235.140625 117.429688 234.976562 C 116.609375 234.8125 115.8125 234.570312 115.039062 234.246094 C 114.269531 233.925781 113.535156 233.535156 112.839844 233.070312 C 112.144531 232.605469 111.5 232.074219 110.910156 231.484375 C 110.320312 230.894531 109.792969 230.25 109.328125 229.554688 C 108.863281 228.859375 108.46875 228.125 108.148438 227.351562 C 107.828125 226.578125 107.585938 225.78125 107.421875 224.960938 C 107.257812 224.140625 107.175781 223.3125 107.175781 222.476562 L 107.175781 105.1875 C 107.175781 104.351562 107.257812 103.523438 107.421875 102.703125 C 107.585938 101.882812 107.828125 101.085938 108.148438 100.3125 C 108.46875 99.539062 108.863281 98.808594 109.328125 98.113281 C 109.792969 97.414062 110.320312 96.773438 110.910156 96.179688 C 111.5 95.589844 112.144531 95.0625 112.839844 94.597656 C 113.535156 94.132812 114.269531 93.738281 115.039062 93.417969 C 115.8125 93.097656 116.609375 92.855469 117.429688 92.691406 C 118.25 92.527344 119.074219 92.441406 119.914062 92.441406 L 310.898438 92.441406 C 311.734375 92.441406 312.5625 92.523438 313.382812 92.6875 C 314.203125 92.851562 315 93.09375 315.773438 93.414062 C 316.546875 93.734375 317.28125 94.128906 317.976562 94.59375 C 318.667969 95.058594 319.3125 95.585938 319.90625 96.179688 C 320.496094 96.769531 321.023438 97.414062 321.488281 98.109375 C 321.953125 98.804688 322.34375 99.539062 322.664062 100.3125 C 322.984375 101.085938 323.226562 101.882812 323.390625 102.703125 C 323.554688 103.523438 323.636719 104.351562 323.636719 105.1875 L 323.636719 222.496094 C 323.636719 223.332031 323.554688 224.160156 323.386719 224.980469 C 323.222656 225.796875 322.980469 226.59375 322.660156 227.367188 C 322.339844 228.136719 321.945312 228.871094 321.480469 229.566406 C 321.015625 230.261719 320.488281 230.902344 319.898438 231.492188 C 319.304688 232.085938 318.664062 232.613281 317.96875 233.074219 C 317.273438 233.539062 316.539062 233.933594 315.769531 234.253906 C 314.996094 234.570312 314.203125 234.8125 313.382812 234.976562 C 312.5625 235.140625 311.734375 235.222656 310.898438 235.222656 Z M 119.914062 93.140625 C 119.121094 93.140625 118.339844 93.21875 117.566406 93.375 C 116.792969 93.527344 116.039062 93.757812 115.308594 94.058594 C 114.582031 94.363281 113.886719 94.734375 113.230469 95.171875 C 112.574219 95.613281 111.964844 96.109375 111.40625 96.667969 C 110.851562 97.226562 110.351562 97.835938 109.910156 98.492188 C 109.472656 99.148438 109.101562 99.84375 108.800781 100.574219 C 108.496094 101.304688 108.269531 102.054688 108.113281 102.832031 C 107.960938 103.605469 107.882812 104.390625 107.882812 105.179688 L 107.882812 222.496094 C 107.882812 223.285156 107.960938 224.070312 108.113281 224.84375 C 108.269531 225.617188 108.496094 226.371094 108.800781 227.101562 C 109.101562 227.832031 109.472656 228.523438 109.910156 229.179688 C 110.351562 229.839844 110.851562 230.445312 111.40625 231.003906 C 111.964844 231.5625 112.574219 232.0625 113.230469 232.503906 C 113.886719 232.941406 114.582031 233.3125 115.308594 233.613281 C 116.039062 233.917969 116.792969 234.148438 117.566406 234.300781 C 118.339844 234.457031 119.121094 234.535156 119.914062 234.535156 L 310.898438 234.535156 C 311.691406 234.535156 312.472656 234.457031 313.246094 234.300781 C 314.019531 234.148438 314.773438 233.917969 315.503906 233.613281 C 316.230469 233.3125 316.925781 232.941406 317.582031 232.503906 C 318.238281 232.0625 318.84375 231.5625 319.402344 231.003906 C 319.960938 230.445312 320.460938 229.839844 320.898438 229.179688 C 321.339844 228.523438 321.710938 227.832031 322.011719 227.101562 C 322.316406 226.371094 322.542969 225.617188 322.699219 224.84375 C 322.851562 224.070312 322.929688 223.285156 322.929688 222.496094 L 322.929688 105.1875 C 322.929688 104.398438 322.851562 103.613281 322.699219 102.839844 C 322.546875 102.0625 322.316406 101.3125 322.015625 100.582031 C 321.710938 99.851562 321.34375 99.15625 320.902344 98.5 C 320.464844 97.839844 319.964844 97.230469 319.40625 96.671875 C 318.847656 96.113281 318.242188 95.613281 317.585938 95.175781 C 316.925781 94.734375 316.234375 94.363281 315.503906 94.058594 C 314.773438 93.757812 314.023438 93.527344 313.246094 93.375 C 312.472656 93.21875 311.691406 93.140625 310.898438 93.140625 Z M 119.914062 93.140625"/><path fill="#011D45" d="M 131.167969 149.566406 C 134.621094 142.285156 137.300781 111.4375 137.300781 111.4375 L 157.597656 110.289062 L 157.597656 149.566406 Z M 275.921875 184.339844 L 275.921875 145.070312 L 255.625 146.214844 C 255.625 146.214844 252.945312 177.0625 249.5 184.339844 Z M 231.179688 146.902344 L 231.179688 120.578125 L 217.570312 121.351562 C 217.570312 121.351562 215.777344 142.03125 213.46875 146.902344 Z M 231.179688 146.902344"/><path fill="#011D45" d="M 117.542969 326.074219 L 108.390625 324.761719 L 112.296875 316.328125 L 122.488281 316.328125 Z M 109.769531 324.015625 L 117.007812 325.042969 L 120.960938 317.265625 L 112.890625 317.265625 Z M 74.6875 326.074219 L 65.5625 324.761719 L 68.976562 316.441406 L 79.632812 316.320312 Z M 66.910156 324.007812 L 74.167969 325.042969 L 78.121094 317.273438 L 69.628906 317.378906 Z M 66.910156 324.007812"/><path fill="#011D45" d="M 109.371094 322.769531 C 109.371094 322.769531 114.089844 326.460938 118.234375 322.695312 L 130.59375 329.132812 C 130.710938 329.199219 130.796875 329.292969 130.847656 329.414062 C 130.902344 329.539062 130.914062 329.664062 130.882812 329.792969 C 130.847656 329.925781 130.78125 330.03125 130.675781 330.117188 C 130.574219 330.199219 130.453125 330.242188 130.320312 330.246094 L 108.429688 330.246094 C 107.738281 330.246094 106.117188 329.226562 106.296875 328.566406 Z M 63.949219 328.699219 C 63.808594 328.859375 64.894531 330.246094 65.628906 330.246094 L 87.445312 330.246094 C 87.578125 330.242188 87.695312 330.199219 87.800781 330.117188 C 87.90625 330.03125 87.972656 329.925781 88.003906 329.792969 C 88.039062 329.664062 88.027344 329.539062 87.972656 329.414062 C 87.917969 329.292969 87.835938 329.199219 87.71875 329.132812 L 75.402344 322.695312 C 71.234375 326.46875 66.269531 322.695312 66.269531 322.695312 Z M 63.949219 328.699219"/><path fill="#011D45" d="M 173.355469 173.625 C 175.242188 169.582031 176.761719 152.453125 176.761719 152.453125 L 188.027344 151.8125 L 188.027344 173.625 Z M 173.355469 173.625"/><path fill="#16A795" d="M 173.300781 151.765625 L 187.972656 151.765625 C 187.972656 151.765625 188.507812 162.824219 184.78125 169.207031 L 167.035156 172.085938 C 167.035156 172.085938 171.074219 170.566406 173.300781 151.765625 Z M 173.300781 151.765625"/><path fill="#C7876D" d="M 183.5 158.289062 L 178.941406 164.265625 L 174.527344 167.476562 L 164.097656 196 L 142.605469 201.796875 L 141.179688 188.050781 L 156.523438 185.097656 L 166.542969 165.136719 L 166.976562 158.007812 L 169.875 150.367188 L 169.96875 150.285156 C 170.382812 149.933594 170.851562 149.808594 171.382812 149.914062 C 171.574219 149.964844 171.742188 150.054688 171.894531 150.179688 L 172.347656 148.875 L 172.542969 148.800781 C 172.800781 148.695312 174.121094 148.214844 174.820312 148.800781 C 174.929688 148.886719 175.019531 148.988281 175.082031 149.113281 C 175.546875 148.8125 176.046875 148.730469 176.582031 148.867188 C 176.875 149.011719 177.105469 149.21875 177.273438 149.496094 C 177.445312 149.773438 177.527344 150.074219 177.527344 150.398438 L 177.527344 150.625 C 177.847656 150.554688 178.160156 150.574219 178.46875 150.6875 C 178.753906 150.828125 178.988281 151.027344 179.167969 151.289062 C 179.347656 151.550781 179.453125 151.835938 179.480469 152.152344 L 179.480469 152.238281 L 178.535156 158.269531 L 177.960938 159.972656 C 179.207031 158.921875 181.101562 157.722656 182.820312 158.082031 Z M 183.5 158.289062"/><path fill="#FFF" d="M 130.78125 230.050781 L 145.566406 264.824219 C 146.335938 266.632812 146.699219 268.519531 146.65625 270.480469 C 146.613281 272.445312 146.167969 274.316406 145.324219 276.089844 L 123.382812 319.957031 L 109.078125 319.957031 L 127.0625 276.058594 L 110.683594 241.21875 Z M 130.78125 230.050781"/><path fill="#011D45" d="M 123.382812 320.3125 L 109.078125 320.3125 C 108.957031 320.308594 108.859375 320.257812 108.789062 320.152344 C 108.726562 320.042969 108.726562 319.933594 108.789062 319.824219 L 126.714844 276.070312 L 110.363281 241.378906 C 110.320312 241.296875 110.3125 241.210938 110.34375 241.121094 C 110.371094 241.03125 110.429688 240.964844 110.515625 240.925781 L 130.613281 229.757812 C 130.707031 229.707031 130.800781 229.707031 130.894531 229.757812 C 131 229.789062 131.070312 229.855469 131.113281 229.953125 L 145.886719 264.71875 C 146.277344 265.636719 146.566406 266.585938 146.757812 267.5625 C 146.945312 268.542969 147.027344 269.527344 147.007812 270.523438 C 146.988281 271.519531 146.859375 272.503906 146.632812 273.472656 C 146.402344 274.441406 146.070312 275.378906 145.644531 276.277344 L 123.707031 320.152344 C 123.628906 320.265625 123.519531 320.320312 123.382812 320.3125 Z M 109.609375 319.605469 L 123.167969 319.605469 L 145 275.925781 C 145.824219 274.203125 146.253906 272.390625 146.292969 270.480469 C 146.332031 268.570312 145.976562 266.738281 145.226562 264.984375 L 130.601562 230.570312 L 111.144531 241.378906 L 127.386719 275.917969 C 127.429688 276.011719 127.429688 276.105469 127.386719 276.203125 Z M 109.609375 319.605469"/><path fill="#011D45" d="M 108.289062 200.570312 C 107.769531 200.449219 95.839844 191.5625 102.71875 182.292969 C 102.71875 182.292969 108.550781 176.722656 109.609375 171.6875 C 110.664062 166.65625 114.089844 158.707031 122.582031 158.96875 C 122.582031 158.96875 133.179688 159.234375 130.792969 170.628906 C 130.792969 170.628906 127.875 176.191406 129.207031 179.636719 C 130.535156 183.085938 132.640625 187.058594 131.09375 190.769531 C 129.546875 194.480469 125.234375 204.554688 108.289062 200.570312 Z M 108.289062 200.570312"/><path fill="#C7876D" d="M 132.261719 178.117188 C 132.074219 178.941406 131.605469 179.546875 130.859375 179.941406 C 128.828125 181.015625 127.394531 181.515625 126.488281 181.46875 L 127.628906 191.5625 L 114.269531 191.054688 L 117.382812 177.144531 C 116.582031 176.589844 114.335938 174.859375 114.355469 173.011719 C 114.394531 172.488281 114.5625 172.015625 114.859375 171.589844 C 115.160156 171.164062 115.546875 170.84375 116.023438 170.628906 L 116.136719 170.566406 L 116.261719 170.566406 C 116.804688 170.582031 117.324219 170.707031 117.816406 170.941406 C 117.6875 169.539062 118 168.242188 118.761719 167.050781 C 119.054688 166.683594 119.410156 166.394531 119.832031 166.183594 C 120.25 165.976562 120.695312 165.863281 121.167969 165.851562 C 122.144531 165.832031 123.074219 165.613281 123.957031 165.195312 C 124.839844 164.777344 125.597656 164.199219 126.234375 163.453125 L 126.640625 162.878906 L 127.007812 163.472656 C 127.300781 163.898438 133.441406 173.707031 132.261719 178.117188 Z M 132.261719 178.117188"/><path fill="#FFF" d="M 127.140625 235.128906 L 112.542969 277.257812 C 112.097656 278.59375 111.46875 279.832031 110.65625 280.980469 L 80.914062 319.957031 L 66.015625 319.957031 L 91.8125 271.007812 L 99.523438 240.160156 Z M 127.140625 235.128906"/><path fill="#011D45" d="M 80.914062 320.3125 L 66.015625 320.3125 C 65.878906 320.3125 65.78125 320.253906 65.714844 320.136719 C 65.648438 320.023438 65.648438 319.910156 65.714844 319.796875 L 91.5 270.839844 L 99.171875 240.078125 C 99.207031 239.925781 99.300781 239.835938 99.457031 239.8125 L 127.074219 234.769531 C 127.207031 234.742188 127.320312 234.78125 127.414062 234.882812 C 127.496094 234.988281 127.519531 235.105469 127.480469 235.234375 L 112.882812 277.351562 C 112.402344 278.707031 111.742188 279.964844 110.902344 281.128906 L 81.199219 320.125 C 81.136719 320.238281 81.042969 320.300781 80.914062 320.3125 Z M 66.609375 319.605469 L 80.761719 319.605469 L 110.316406 280.753906 C 111.125 279.636719 111.753906 278.429688 112.203125 277.125 L 126.601562 235.582031 L 99.804688 240.433594 L 92.152344 271.066406 Z M 66.609375 319.605469"/><path fill="#16A795" d="M 155.210938 201.570312 L 142 204 C 141.386719 205.886719 137.765625 216.960938 137.046875 220.832031 C 135.8125 227.441406 136.960938 235.449219 136.972656 235.527344 L 137.027344 235.941406 L 94.277344 247.320312 L 100.164062 218.71875 L 90.171875 208.332031 L 100.617188 189.988281 C 101.316406 188.996094 102.179688 188.179688 103.210938 187.535156 C 104.238281 186.894531 105.351562 186.476562 106.550781 186.285156 L 115.101562 184.933594 L 115.269531 185.105469 C 117.921875 187.757812 120.375 188.882812 122.542969 188.5625 C 125.308594 188.097656 126.726562 185.257812 126.734375 185.226562 L 126.886719 184.925781 L 127.214844 184.925781 L 142.972656 186.917969 L 152.117188 185.804688 Z M 155.210938 201.570312"/><path fill="#011D45" d="M 127.847656 232.777344 C 127.140625 227.859375 130.753906 209.070312 130.753906 209.070312 L 143.871094 208.324219 L 143.871094 222.390625 C 143.871094 225.222656 145.644531 233.722656 145.644531 233.722656 Z M 127.847656 232.777344"/><path fill="#FFF" d="M 126.726562 208.265625 L 143.8125 208.265625 C 143.8125 208.265625 144.425781 221.144531 140.09375 228.574219 L 119.421875 231.9375 C 119.421875 231.9375 124.128906 230.191406 126.726562 208.265625 Z M 126.726562 208.265625"/><path fill="#011D45" d="M 119.421875 232.277344 C 119.234375 232.28125 119.121094 232.195312 119.082031 232.011719 C 119.058594 231.925781 119.066406 231.839844 119.109375 231.757812 C 119.152344 231.679688 119.214844 231.621094 119.300781 231.589844 C 119.300781 231.589844 123.855469 229.433594 126.375 208.21875 C 126.402344 208.015625 126.519531 207.910156 126.726562 207.90625 L 143.8125 207.90625 C 143.90625 207.90625 143.988281 207.941406 144.054688 208.007812 C 144.125 208.074219 144.160156 208.152344 144.160156 208.246094 C 144.160156 208.777344 144.738281 221.324219 140.386719 228.753906 C 140.335938 228.855469 140.253906 228.914062 140.140625 228.925781 L 119.46875 232.277344 Z M 127.046875 208.617188 C 125.160156 224.203125 122.195312 229.566406 120.609375 231.371094 L 139.867188 228.253906 C 143.644531 221.644531 143.519531 210.675781 143.464844 208.617188 Z M 127.046875 208.617188"/><path fill="#C7876D" d="M 135.792969 215.148438 C 135.917969 215.617188 135.863281 216.058594 135.621094 216.480469 C 135.304688 216.960938 134.859375 217.25 134.292969 217.351562 L 134.167969 217.351562 L 131.261719 216.292969 L 123.167969 218.386719 L 88.820312 228.160156 C 88.410156 228.277344 87.992188 228.335938 87.566406 228.332031 C 87.136719 228.332031 86.71875 228.269531 86.308594 228.148438 C 85.902344 228.023438 85.515625 227.847656 85.15625 227.613281 C 84.800781 227.382812 84.480469 227.105469 84.203125 226.78125 C 83.921875 226.457031 83.695312 226.101562 83.519531 225.710938 C 83.339844 225.320312 83.222656 224.914062 83.164062 224.492188 C 83.101562 224.070312 83.101562 223.644531 83.164062 223.222656 C 83.222656 222.800781 83.339844 222.394531 83.519531 222.003906 C 90.273438 207.09375 90.699219 207.09375 91.152344 207.09375 L 91.207031 207.09375 L 102.398438 210.136719 L 102.089844 210.664062 C 101.144531 212.269531 100.136719 214.054688 99.625 215 C 102.550781 214.5625 113.308594 212.542969 120.714844 211.109375 L 124.675781 207.9375 L 131.535156 205.746094 L 135.199219 206.867188 L 135.253906 206.867188 C 136.113281 207.4375 135.925781 208.863281 135.78125 209.492188 C 136.140625 209.878906 136.347656 210.335938 136.40625 210.859375 C 136.460938 211.382812 136.355469 211.875 136.085938 212.328125 C 136.34375 212.78125 136.449219 213.265625 136.394531 213.785156 C 136.339844 214.304688 136.140625 214.757812 135.792969 215.148438 Z M 135.792969 215.148438"/><path fill="#16A795" d="M 223.835938 73.238281 L 223.835938 73.191406 L 197.984375 75.34375 L 209.5625 50.792969 L 224.375 72.085938 L 232.792969 54.222656 L 244.765625 71.488281 Z M 221.808594 53.351562 C 222.074219 53.328125 222.332031 53.28125 222.589844 53.207031 C 222.84375 53.132812 223.089844 53.035156 223.324219 52.914062 C 223.5625 52.792969 223.785156 52.648438 223.992188 52.480469 C 224.199219 52.316406 224.386719 52.132812 224.558594 51.925781 C 224.730469 51.722656 224.878906 51.503906 225.007812 51.273438 C 225.136719 51.039062 225.238281 50.796875 225.320312 50.542969 C 225.398438 50.289062 225.453125 50.03125 225.484375 49.765625 C 225.511719 49.5 225.515625 49.238281 225.492188 48.972656 C 225.46875 48.707031 225.421875 48.445312 225.34375 48.191406 C 225.269531 47.9375 225.171875 47.691406 225.050781 47.453125 C 224.925781 47.21875 224.78125 46.996094 224.613281 46.789062 C 224.449219 46.582031 224.261719 46.394531 224.058594 46.222656 C 223.855469 46.054688 223.636719 45.90625 223.402344 45.777344 C 223.167969 45.648438 222.925781 45.546875 222.671875 45.46875 C 222.417969 45.386719 222.160156 45.335938 221.894531 45.308594 C 221.628906 45.277344 221.367188 45.277344 221.101562 45.300781 C 220.835938 45.324219 220.578125 45.375 220.324219 45.449219 C 220.066406 45.527344 219.824219 45.625 219.585938 45.75 C 219.351562 45.875 219.132812 46.019531 218.925781 46.1875 C 218.71875 46.355469 218.53125 46.539062 218.359375 46.746094 C 218.191406 46.949219 218.042969 47.167969 217.917969 47.402344 C 217.789062 47.636719 217.6875 47.882812 217.609375 48.136719 C 217.53125 48.390625 217.480469 48.648438 217.453125 48.914062 C 217.425781 49.179688 217.421875 49.441406 217.449219 49.707031 C 217.472656 49.96875 217.523438 50.226562 217.597656 50.480469 C 217.671875 50.734375 217.769531 50.976562 217.894531 51.210938 C 218.015625 51.445312 218.160156 51.664062 218.324219 51.867188 C 218.492188 52.074219 218.675781 52.261719 218.878906 52.429688 C 219.078125 52.597656 219.296875 52.746094 219.527344 52.871094 C 219.757812 53 220 53.101562 220.25 53.179688 C 220.503906 53.261719 220.757812 53.3125 221.019531 53.34375 C 221.285156 53.371094 221.546875 53.375 221.808594 53.351562 Z M 221.808594 53.351562"/><path fill="#FFF" d="M 250.644531 106.359375 L 297.398438 106.417969 L 297.398438 133.535156 L 250.644531 133.476562 Z M 250.644531 106.359375"/><path fill="#011D45" d="M 297.367188 133.875 L 250.617188 133.816406 C 250.515625 133.816406 250.429688 133.78125 250.359375 133.710938 C 250.292969 133.644531 250.257812 133.5625 250.257812 133.46875 L 250.257812 106.351562 C 250.257812 106.253906 250.292969 106.171875 250.363281 106.105469 C 250.429688 106.039062 250.511719 106.003906 250.605469 106 L 297.359375 106.058594 C 297.457031 106.058594 297.539062 106.089844 297.609375 106.160156 C 297.679688 106.226562 297.714844 106.308594 297.71875 106.40625 L 297.71875 133.523438 C 297.71875 133.621094 297.683594 133.703125 297.617188 133.769531 C 297.546875 133.839844 297.464844 133.875 297.367188 133.875 Z M 250.964844 133.109375 L 297.011719 133.164062 L 297.011719 106.726562 L 250.964844 106.671875 Z M 250.964844 133.109375"/><path fill="#16A795" d="M 272.355469 130.972656 L 257.898438 130.972656 L 265.144531 118.453125 L 271.921875 130.238281 L 280.867188 114.773438 L 290.199219 130.984375 Z M 272.609375 117.253906 C 272.988281 117.261719 273.351562 117.199219 273.703125 117.058594 C 274.050781 116.921875 274.363281 116.722656 274.632812 116.460938 C 274.90625 116.195312 275.117188 115.894531 275.265625 115.546875 C 275.414062 115.199219 275.492188 114.839844 275.496094 114.460938 C 275.503906 114.085938 275.433594 113.71875 275.292969 113.371094 C 275.152344 113.019531 274.953125 112.710938 274.6875 112.441406 C 274.425781 112.171875 274.117188 111.964844 273.773438 111.816406 C 273.425781 111.667969 273.0625 111.59375 272.6875 111.589844 C 272.308594 111.589844 271.945312 111.660156 271.597656 111.800781 C 271.246094 111.945312 270.9375 112.148438 270.671875 112.414062 C 270.402344 112.679688 270.199219 112.988281 270.054688 113.335938 C 269.910156 113.683594 269.835938 114.046875 269.835938 114.421875 C 269.828125 114.796875 269.894531 115.15625 270.03125 115.5 C 270.171875 115.847656 270.371094 116.152344 270.632812 116.417969 C 270.890625 116.6875 271.195312 116.890625 271.535156 117.035156 C 271.878906 117.179688 272.238281 117.253906 272.609375 117.253906 Z M 272.609375 117.253906"/><path fill="#FFF" d="M 339.472656 90.554688 C 339.472656 91.128906 339.441406 91.707031 339.386719 92.28125 C 339.328125 92.851562 339.246094 93.421875 339.132812 93.988281 C 339.019531 94.554688 338.878906 95.113281 338.714844 95.664062 C 338.546875 96.21875 338.351562 96.757812 338.132812 97.292969 C 337.910156 97.824219 337.664062 98.347656 337.394531 98.855469 C 337.121094 99.363281 336.824219 99.855469 336.503906 100.335938 C 336.183594 100.816406 335.84375 101.277344 335.476562 101.726562 C 335.109375 102.171875 334.722656 102.597656 334.316406 103.003906 C 333.910156 103.414062 333.484375 103.800781 333.039062 104.164062 C 332.59375 104.53125 332.128906 104.875 331.648438 105.195312 C 331.171875 105.515625 330.675781 105.8125 330.167969 106.082031 C 329.660156 106.355469 329.140625 106.601562 328.609375 106.824219 C 328.074219 107.042969 327.535156 107.238281 326.980469 107.40625 C 326.429688 107.570312 325.871094 107.710938 325.308594 107.824219 C 324.742188 107.9375 324.171875 108.019531 323.597656 108.078125 C 323.023438 108.132812 322.449219 108.164062 321.875 108.164062 C 321.296875 108.164062 320.722656 108.132812 320.148438 108.078125 C 319.574219 108.019531 319.003906 107.9375 318.441406 107.824219 C 317.875 107.710938 317.316406 107.570312 316.765625 107.40625 C 316.214844 107.238281 315.671875 107.042969 315.140625 106.824219 C 314.605469 106.601562 314.085938 106.355469 313.578125 106.082031 C 313.070312 105.8125 312.574219 105.515625 312.097656 105.195312 C 311.617188 104.875 311.15625 104.53125 310.710938 104.164062 C 310.265625 103.800781 309.835938 103.414062 309.429688 103.003906 C 309.023438 102.597656 308.636719 102.171875 308.269531 101.726562 C 307.90625 101.277344 307.5625 100.816406 307.242188 100.335938 C 306.921875 99.855469 306.625 99.363281 306.355469 98.855469 C 306.082031 98.347656 305.835938 97.824219 305.617188 97.292969 C 305.394531 96.757812 305.199219 96.21875 305.035156 95.664062 C 304.867188 95.113281 304.726562 94.554688 304.613281 93.988281 C 304.5 93.421875 304.417969 92.851562 304.359375 92.28125 C 304.304688 91.707031 304.277344 91.128906 304.277344 90.554688 C 304.277344 89.976562 304.304688 89.402344 304.359375 88.828125 C 304.417969 88.253906 304.5 87.683594 304.613281 87.117188 C 304.726562 86.550781 304.867188 85.992188 305.035156 85.441406 C 305.199219 84.890625 305.394531 84.347656 305.617188 83.816406 C 305.835938 83.28125 306.082031 82.761719 306.355469 82.253906 C 306.625 81.742188 306.921875 81.25 307.242188 80.769531 C 307.5625 80.289062 307.90625 79.828125 308.269531 79.382812 C 308.636719 78.9375 309.023438 78.507812 309.429688 78.101562 C 309.835938 77.695312 310.265625 77.308594 310.710938 76.941406 C 311.15625 76.574219 311.617188 76.230469 312.097656 75.910156 C 312.574219 75.589844 313.070312 75.296875 313.578125 75.023438 C 314.085938 74.75 314.605469 74.503906 315.140625 74.285156 C 315.671875 74.0625 316.214844 73.871094 316.765625 73.703125 C 317.316406 73.535156 317.875 73.394531 318.441406 73.28125 C 319.003906 73.171875 319.574219 73.085938 320.148438 73.027344 C 320.722656 72.972656 321.296875 72.945312 321.875 72.945312 C 322.449219 72.945312 323.023438 72.972656 323.597656 73.027344 C 324.171875 73.085938 324.742188 73.171875 325.308594 73.28125 C 325.871094 73.394531 326.429688 73.535156 326.980469 73.703125 C 327.535156 73.871094 328.074219 74.0625 328.609375 74.285156 C 329.140625 74.503906 329.660156 74.75 330.167969 75.023438 C 330.675781 75.296875 331.171875 75.589844 331.648438 75.910156 C 332.128906 76.230469 332.59375 76.574219 333.039062 76.941406 C 333.484375 77.308594 333.910156 77.695312 334.316406 78.101562 C 334.722656 78.507812 335.109375 78.9375 335.476562 79.382812 C 335.84375 79.828125 336.183594 80.289062 336.503906 80.769531 C 336.824219 81.25 337.121094 81.742188 337.394531 82.253906 C 337.664062 82.761719 337.910156 83.28125 338.132812 83.816406 C 338.351562 84.347656 338.546875 84.890625 338.714844 85.441406 C 338.878906 85.992188 339.019531 86.550781 339.132812 87.117188 C 339.246094 87.683594 339.328125 88.253906 339.386719 88.828125 C 339.441406 89.402344 339.472656 89.976562 339.472656 90.554688 Z M 339.472656 90.554688"/><path fill="#011D45" d="M 321.875 108.503906 C 321.285156 108.503906 320.699219 108.472656 320.117188 108.417969 C 319.53125 108.359375 318.953125 108.273438 318.375 108.15625 C 317.800781 108.042969 317.230469 107.902344 316.667969 107.730469 C 316.109375 107.558594 315.554688 107.363281 315.011719 107.136719 C 314.46875 106.914062 313.941406 106.660156 313.421875 106.382812 C 312.90625 106.109375 312.402344 105.804688 311.914062 105.480469 C 311.425781 105.152344 310.953125 104.804688 310.5 104.429688 C 310.046875 104.058594 309.613281 103.664062 309.195312 103.25 C 308.78125 102.832031 308.386719 102.398438 308.015625 101.945312 C 307.644531 101.488281 307.292969 101.019531 306.96875 100.53125 C 306.640625 100.042969 306.339844 99.539062 306.0625 99.019531 C 305.785156 98.5 305.535156 97.972656 305.308594 97.429688 C 305.085938 96.886719 304.886719 96.332031 304.71875 95.769531 C 304.546875 95.207031 304.40625 94.640625 304.289062 94.0625 C 304.175781 93.488281 304.089844 92.90625 304.03125 92.320312 C 303.972656 91.738281 303.945312 91.152344 303.945312 90.5625 C 303.945312 89.976562 303.972656 89.390625 304.03125 88.804688 C 304.089844 88.21875 304.175781 87.640625 304.289062 87.0625 C 304.40625 86.488281 304.546875 85.917969 304.71875 85.355469 C 304.886719 84.792969 305.085938 84.242188 305.308594 83.699219 C 305.535156 83.15625 305.785156 82.625 306.0625 82.105469 C 306.339844 81.589844 306.640625 81.085938 306.96875 80.597656 C 307.292969 80.109375 307.644531 79.636719 308.015625 79.183594 C 308.386719 78.726562 308.78125 78.292969 309.195312 77.878906 C 309.613281 77.460938 310.046875 77.066406 310.5 76.695312 C 310.953125 76.324219 311.425781 75.972656 311.914062 75.648438 C 312.402344 75.320312 312.90625 75.019531 313.421875 74.742188 C 313.941406 74.464844 314.46875 74.214844 315.011719 73.988281 C 315.554688 73.765625 316.109375 73.566406 316.667969 73.394531 C 317.230469 73.226562 317.800781 73.082031 318.375 72.96875 C 318.953125 72.851562 319.53125 72.765625 320.117188 72.710938 C 320.699219 72.652344 321.285156 72.625 321.875 72.625 C 322.460938 72.625 323.046875 72.652344 323.632812 72.710938 C 324.214844 72.765625 324.796875 72.851562 325.371094 72.96875 C 325.945312 73.082031 326.515625 73.226562 327.078125 73.394531 C 327.640625 73.566406 328.191406 73.765625 328.734375 73.988281 C 329.277344 74.214844 329.808594 74.464844 330.324219 74.742188 C 330.84375 75.019531 331.34375 75.320312 331.832031 75.648438 C 332.320312 75.972656 332.792969 76.324219 333.246094 76.695312 C 333.699219 77.066406 334.136719 77.460938 334.550781 77.878906 C 334.964844 78.292969 335.359375 78.726562 335.730469 79.183594 C 336.105469 79.636719 336.453125 80.109375 336.78125 80.597656 C 337.105469 81.085938 337.40625 81.589844 337.683594 82.105469 C 337.960938 82.625 338.210938 83.15625 338.4375 83.699219 C 338.660156 84.242188 338.859375 84.792969 339.03125 85.355469 C 339.199219 85.917969 339.34375 86.488281 339.457031 87.0625 C 339.570312 87.640625 339.65625 88.21875 339.714844 88.804688 C 339.773438 89.390625 339.800781 89.976562 339.800781 90.5625 C 339.800781 91.152344 339.773438 91.738281 339.714844 92.320312 C 339.65625 92.90625 339.570312 93.488281 339.457031 94.0625 C 339.34375 94.640625 339.199219 95.207031 339.03125 95.769531 C 338.859375 96.332031 338.660156 96.886719 338.4375 97.429688 C 338.210938 97.972656 337.960938 98.5 337.683594 99.019531 C 337.40625 99.539062 337.105469 100.042969 336.78125 100.53125 C 336.453125 101.019531 336.105469 101.488281 335.730469 101.945312 C 335.359375 102.398438 334.964844 102.832031 334.550781 103.25 C 334.136719 103.664062 333.699219 104.058594 333.246094 104.429688 C 332.792969 104.804688 332.320312 105.152344 331.832031 105.480469 C 331.34375 105.804688 330.84375 106.109375 330.324219 106.382812 C 329.808594 106.660156 329.277344 106.914062 328.734375 107.136719 C 328.191406 107.363281 327.640625 107.558594 327.078125 107.730469 C 326.515625 107.902344 325.945312 108.042969 325.371094 108.15625 C 324.796875 108.273438 324.214844 108.359375 323.628906 108.417969 C 323.046875 108.472656 322.460938 108.503906 321.875 108.503906 Z M 321.875 73.304688 C 321.308594 73.304688 320.746094 73.332031 320.183594 73.386719 C 319.621094 73.441406 319.0625 73.523438 318.511719 73.632812 C 317.957031 73.746094 317.410156 73.882812 316.871094 74.046875 C 316.328125 74.210938 315.796875 74.398438 315.277344 74.617188 C 314.753906 74.832031 314.246094 75.074219 313.746094 75.339844 C 313.25 75.605469 312.765625 75.894531 312.296875 76.210938 C 311.828125 76.523438 311.375 76.859375 310.9375 77.21875 C 310.5 77.578125 310.082031 77.957031 309.683594 78.355469 C 309.285156 78.753906 308.90625 79.171875 308.546875 79.609375 C 308.191406 80.046875 307.855469 80.5 307.539062 80.96875 C 307.226562 81.4375 306.9375 81.921875 306.671875 82.421875 C 306.402344 82.921875 306.164062 83.429688 305.945312 83.953125 C 305.730469 84.472656 305.539062 85.003906 305.375 85.546875 C 305.214844 86.085938 305.074219 86.632812 304.964844 87.1875 C 304.855469 87.742188 304.773438 88.300781 304.71875 88.863281 C 304.664062 89.425781 304.632812 89.988281 304.632812 90.554688 C 304.632812 91.117188 304.664062 91.683594 304.71875 92.246094 C 304.773438 92.804688 304.855469 93.363281 304.964844 93.917969 C 305.074219 94.472656 305.214844 95.019531 305.375 95.5625 C 305.539062 96.101562 305.730469 96.632812 305.945312 97.15625 C 306.164062 97.675781 306.402344 98.1875 306.671875 98.683594 C 306.9375 99.183594 307.226562 99.667969 307.539062 100.136719 C 307.855469 100.605469 308.191406 101.058594 308.546875 101.496094 C 308.90625 101.933594 309.285156 102.351562 309.683594 102.75 C 310.082031 103.152344 310.5 103.53125 310.9375 103.886719 C 311.375 104.246094 311.828125 104.582031 312.296875 104.898438 C 312.765625 105.210938 313.25 105.5 313.746094 105.765625 C 314.246094 106.035156 314.753906 106.273438 315.277344 106.492188 C 315.796875 106.707031 316.328125 106.898438 316.871094 107.0625 C 317.410156 107.226562 317.957031 107.363281 318.511719 107.472656 C 319.0625 107.582031 319.621094 107.664062 320.183594 107.722656 C 320.746094 107.777344 321.308594 107.804688 321.875 107.804688 C 322.4375 107.804688 323 107.777344 323.5625 107.722656 C 324.125 107.664062 324.683594 107.582031 325.238281 107.472656 C 325.789062 107.363281 326.335938 107.226562 326.878906 107.0625 C 327.417969 106.898438 327.949219 106.707031 328.46875 106.492188 C 328.992188 106.273438 329.503906 106.035156 330 105.765625 C 330.496094 105.5 330.980469 105.210938 331.449219 104.898438 C 331.921875 104.582031 332.375 104.246094 332.808594 103.886719 C 333.246094 103.53125 333.664062 103.152344 334.0625 102.75 C 334.460938 102.351562 334.839844 101.933594 335.199219 101.496094 C 335.558594 101.058594 335.894531 100.605469 336.207031 100.136719 C 336.519531 99.667969 336.8125 99.183594 337.078125 98.683594 C 337.34375 98.1875 337.585938 97.675781 337.800781 97.15625 C 338.015625 96.632812 338.207031 96.101562 338.371094 95.5625 C 338.535156 95.019531 338.671875 94.472656 338.78125 93.917969 C 338.890625 93.363281 338.972656 92.804688 339.03125 92.246094 C 339.085938 91.683594 339.113281 91.117188 339.113281 90.554688 C 339.113281 89.988281 339.082031 89.425781 339.027344 88.863281 C 338.972656 88.300781 338.890625 87.742188 338.777344 87.191406 C 338.667969 86.636719 338.53125 86.089844 338.367188 85.550781 C 338.203125 85.007812 338.011719 84.476562 337.796875 83.957031 C 337.578125 83.433594 337.335938 82.925781 337.070312 82.425781 C 336.804688 81.929688 336.515625 81.445312 336.199219 80.976562 C 335.886719 80.507812 335.550781 80.054688 335.191406 79.617188 C 334.835938 79.179688 334.457031 78.761719 334.058594 78.363281 C 333.65625 77.964844 333.242188 77.585938 332.804688 77.226562 C 332.367188 76.871094 331.914062 76.535156 331.445312 76.21875 C 330.976562 75.90625 330.492188 75.617188 329.996094 75.351562 C 329.496094 75.085938 328.988281 74.84375 328.46875 74.628906 C 327.945312 74.410156 327.414062 74.222656 326.875 74.058594 C 326.335938 73.894531 325.789062 73.753906 325.234375 73.644531 C 324.679688 73.535156 324.125 73.453125 323.5625 73.394531 C 323 73.339844 322.4375 73.3125 321.875 73.3125 Z M 321.875 73.304688"/><path fill="#16A795" d="M 321.675781 85.585938 L 327.703125 82.414062 L 326.554688 89.128906 L 331.421875 93.847656 L 324.695312 94.792969 L 321.675781 100.957031 L 318.664062 94.851562 L 311.929688 93.90625 L 316.808594 89.183594 L 315.65625 82.472656 Z M 321.675781 85.585938"/><path fill="#3E0E08" d="M 319.582031 182.773438 L 309.203125 187.285156 C 308.597656 187.542969 307.96875 187.675781 307.3125 187.683594 C 306.457031 187.683594 305.652344 187.472656 304.90625 187.042969 C 304.164062 186.613281 303.574219 186.027344 303.144531 185.285156 L 291.660156 165.636719 C 290.496094 165.511719 289.359375 165.253906 288.253906 164.863281 C 285.894531 164.078125 284.6875 161.519531 284.535156 161.1875 C 284.40625 160.949219 284.328125 160.695312 284.292969 160.425781 C 284.261719 160.160156 284.277344 159.894531 284.34375 159.628906 C 284.414062 159.367188 284.527344 159.125 284.683594 158.90625 C 284.84375 158.6875 285.035156 158.503906 285.261719 158.355469 C 285.265625 157.914062 285.367188 157.5 285.570312 157.105469 C 285.769531 156.714844 286.046875 156.386719 286.40625 156.128906 C 286.453125 155.664062 286.613281 155.238281 286.875 154.855469 C 287.140625 154.46875 287.480469 154.167969 287.894531 153.957031 C 286.988281 153.300781 286.027344 152.730469 285.019531 152.246094 C 281.5625 150.519531 282.867188 147.660156 282.875 147.628906 L 283.101562 147.167969 L 289.234375 150 L 294.125 153.605469 L 307.332031 174.105469 L 314.503906 171.035156 Z M 319.582031 182.773438"/><path fill="#FFF" d="M 360.832031 215.59375 L 355.257812 254.597656 L 354.238281 333.96875 L 336 333.96875 L 337.261719 254.851562 L 341.574219 213.78125 Z M 360.832031 215.59375"/><path fill="#011D45" d="M 354.238281 334.355469 L 336 334.355469 C 335.898438 334.355469 335.816406 334.320312 335.746094 334.25 C 335.675781 334.179688 335.640625 334.09375 335.640625 333.996094 L 336.914062 254.882812 L 341.214844 213.78125 C 341.222656 213.683594 341.265625 213.601562 341.34375 213.539062 C 341.417969 213.476562 341.503906 213.449219 341.605469 213.460938 L 360.863281 215.234375 C 360.960938 215.246094 361.042969 215.289062 361.105469 215.367188 C 361.167969 215.449219 361.191406 215.539062 361.183594 215.640625 L 355.644531 254.683594 L 354.632812 333.996094 C 354.636719 334.105469 354.601562 334.195312 354.519531 334.265625 C 354.4375 334.339844 354.34375 334.371094 354.238281 334.355469 Z M 336.355469 333.644531 L 353.890625 333.644531 L 354.898438 254.597656 L 360.429688 215.886719 L 341.886719 214.175781 L 337.613281 254.910156 Z M 336.355469 333.644531"/><path fill="#FFF" d="M 355.378906 213.6875 L 341.574219 255.402344 L 366.65625 310.675781 L 353.445312 320.816406 L 323.148438 259.441406 C 322.449219 258.03125 321.976562 256.546875 321.726562 254.992188 C 321.476562 253.4375 321.464844 251.878906 321.683594 250.320312 L 327.089844 212.003906 Z M 355.378906 213.6875"/><path fill="#011D45" d="M 353.484375 321.171875 L 353.398438 321.171875 C 353.292969 321.144531 353.210938 321.082031 353.164062 320.984375 L 322.875 259.613281 C 322.15625 258.171875 321.671875 256.65625 321.417969 255.066406 C 321.160156 253.476562 321.144531 251.886719 321.375 250.292969 L 326.78125 211.96875 C 326.792969 211.875 326.832031 211.800781 326.90625 211.746094 C 326.976562 211.6875 327.058594 211.660156 327.148438 211.664062 L 355.398438 213.316406 C 355.515625 213.324219 355.605469 213.375 355.671875 213.472656 C 355.738281 213.566406 355.753906 213.667969 355.71875 213.78125 L 341.953125 255.324219 L 366.964844 310.523438 C 367.050781 310.695312 367.019531 310.839844 366.863281 310.957031 L 353.652344 321.097656 C 353.601562 321.136719 353.546875 321.164062 353.484375 321.171875 Z M 327.429688 212.410156 L 322.070312 250.40625 C 321.855469 251.929688 321.867188 253.453125 322.113281 254.972656 C 322.355469 256.492188 322.820312 257.941406 323.507812 259.320312 L 353.605469 320.277344 L 366.222656 310.5625 L 341.246094 255.542969 C 341.214844 255.457031 341.214844 255.371094 341.246094 255.289062 L 354.898438 213.996094 Z M 327.429688 212.410156"/><path fill="#3E0E08" d="M 353.066406 155.230469 L 353.425781 170.507812 L 340.828125 169.5625 L 341.773438 157.109375 C 340.488281 157.222656 337.648438 157.203125 335.742188 155.089844 C 333.507812 152.617188 333.355469 148.167969 335.300781 141.871094 C 336.441406 138.160156 338.328125 135.902344 340.894531 135.167969 C 345.800781 133.761719 351.351562 138.40625 351.765625 138.753906 C 352.179688 139.105469 354.597656 141.605469 353.066406 155.230469 Z M 353.066406 155.230469"/><path fill="#16A795" d="M 372.230469 198.183594 C 372.136719 198.804688 371.4375 199.636719 367.042969 201.117188 C 365.269531 201.722656 363.503906 202.214844 362.738281 202.421875 L 362.609375 222.25 L 361.898438 221.949219 C 361.824219 221.949219 354.351562 218.917969 341.59375 222.789062 C 340.363281 223.164062 339.105469 223.347656 337.820312 223.34375 C 330.769531 223.34375 325.261719 217.765625 324.988281 217.480469 L 324.828125 217.3125 L 327.335938 188.503906 L 326.769531 182.519531 L 316.675781 186.378906 L 310.464844 170.988281 L 331.601562 161.992188 C 333.195312 161.3125 334.851562 161.070312 336.574219 161.273438 L 352.210938 163.066406 C 354.316406 163.308594 356.140625 164.160156 357.683594 165.617188 C 370.789062 178.117188 372.46875 196.8125 372.230469 198.183594 Z M 372.230469 198.183594"/><path fill="#FFF" d="M 336.679688 131.34375 C 346.765625 125.242188 355.644531 135.847656 355.644531 135.847656 C 360.238281 139.625 356.84375 149.066406 353.871094 151.566406 C 353.421875 151.820312 352.949219 152.019531 352.453125 152.164062 C 351.601562 152.042969 350.832031 151.726562 350.136719 151.214844 C 349.445312 150.703125 348.914062 150.0625 348.546875 149.28125 C 349.058594 147.253906 348.546875 145.75 348.039062 145.230469 C 344.972656 142.257812 343.734375 146.753906 343.734375 146.753906 L 341.960938 146.753906 L 341.707031 142.183594 C 332.828125 138.386719 334.121094 132.890625 336.679688 131.34375 Z M 336.679688 131.34375"/><path fill="#011D45" d="M 352.445312 152.519531 L 352.398438 152.519531 C 351.484375 152.394531 350.65625 152.054688 349.914062 151.503906 C 349.171875 150.957031 348.605469 150.261719 348.21875 149.425781 C 348.1875 149.347656 348.1875 149.273438 348.21875 149.199219 C 348.699219 147.253906 348.21875 145.882812 347.804688 145.488281 C 347.039062 144.742188 346.359375 144.449219 345.773438 144.609375 C 344.632812 144.921875 344.09375 146.828125 344.085938 146.847656 C 344.035156 147.015625 343.921875 147.101562 343.746094 147.101562 L 341.972656 147.101562 C 341.878906 147.101562 341.796875 147.070312 341.726562 147.007812 C 341.660156 146.941406 341.621094 146.863281 341.613281 146.769531 L 341.378906 142.425781 C 335.628906 139.898438 334.574219 136.839844 334.460938 135.222656 C 334.386719 134.390625 334.535156 133.597656 334.902344 132.847656 C 335.269531 132.097656 335.804688 131.496094 336.507812 131.039062 C 346.746094 124.808594 355.832031 135.515625 355.925781 135.621094 C 356.730469 136.351562 357.339844 137.222656 357.746094 138.230469 C 358.15625 139.238281 358.328125 140.285156 358.257812 141.371094 C 358.257812 145.503906 356.078125 150.207031 354.105469 151.839844 C 353.621094 152.128906 353.109375 152.351562 352.566406 152.503906 Z M 348.917969 149.246094 C 349.257812 149.929688 349.734375 150.496094 350.351562 150.949219 C 350.96875 151.398438 351.652344 151.683594 352.40625 151.804688 C 352.835938 151.683594 353.246094 151.511719 353.632812 151.292969 C 355.519531 149.765625 357.539062 145.316406 357.53125 141.378906 C 357.585938 140.386719 357.429688 139.433594 357.054688 138.511719 C 356.683594 137.59375 356.136719 136.796875 355.40625 136.121094 C 353.777344 134.289062 351.890625 132.777344 349.746094 131.589844 C 345.246094 129.152344 340.914062 129.171875 336.847656 131.644531 C 336.257812 132.027344 335.808594 132.535156 335.503906 133.167969 C 335.195312 133.800781 335.074219 134.464844 335.140625 135.167969 C 335.242188 136.640625 336.253906 139.472656 341.832031 141.859375 C 341.964844 141.917969 342.03125 142.019531 342.039062 142.164062 L 342.273438 146.394531 L 343.460938 146.394531 C 343.671875 145.78125 344.320312 144.257812 345.558594 143.929688 C 346.070312 143.839844 346.570312 143.890625 347.054688 144.078125 C 347.542969 144.265625 347.945312 144.566406 348.265625 144.976562 C 348.925781 145.601562 349.386719 147.195312 348.917969 149.246094 Z M 348.917969 149.246094"/><path fill="#011D45" d="M 308.285156 337.148438 L 170.042969 337.148438 C 169.945312 337.148438 169.863281 337.109375 169.796875 337.039062 C 169.730469 336.972656 169.695312 336.886719 169.695312 336.789062 L 169.695312 265.625 C 169.699219 265.53125 169.730469 265.449219 169.800781 265.382812 C 169.867188 265.316406 169.949219 265.28125 170.042969 265.277344 L 308.285156 265.277344 C 308.382812 265.277344 308.46875 265.3125 308.535156 265.378906 C 308.605469 265.445312 308.640625 265.527344 308.644531 265.625 L 308.644531 336.789062 C 308.644531 336.890625 308.609375 336.972656 308.539062 337.042969 C 308.46875 337.113281 308.386719 337.148438 308.285156 337.148438 Z M 170.402344 336.441406 L 307.9375 336.441406 L 307.9375 265.984375 L 170.402344 265.984375 Z M 308.285156 261.359375 L 170.042969 261.359375 C 169.945312 261.355469 169.863281 261.320312 169.796875 261.25 C 169.730469 261.179688 169.695312 261.097656 169.695312 261 L 169.695312 249.199219 C 169.695312 249.101562 169.730469 249.015625 169.796875 248.945312 C 169.863281 248.878906 169.945312 248.839844 170.042969 248.839844 L 308.285156 248.839844 C 308.386719 248.839844 308.46875 248.875 308.539062 248.945312 C 308.609375 249.015625 308.644531 249.097656 308.644531 249.199219 L 308.644531 261 C 308.644531 261.097656 308.609375 261.183594 308.539062 261.253906 C 308.46875 261.324219 308.386719 261.359375 308.285156 261.359375 Z M 170.402344 260.652344 L 307.9375 260.652344 L 307.9375 249.546875 L 170.402344 249.546875 Z M 170.402344 260.652344"/><path fill="#16A795" d="M 197.898438 255.097656 C 197.898438 255.398438 197.839844 255.6875 197.726562 255.964844 C 197.609375 256.242188 197.445312 256.488281 197.234375 256.699219 C 197.023438 256.914062 196.777344 257.078125 196.5 257.191406 C 196.222656 257.308594 195.933594 257.363281 195.632812 257.363281 C 195.332031 257.363281 195.042969 257.308594 194.765625 257.191406 C 194.488281 257.078125 194.246094 256.914062 194.03125 256.699219 C 193.820312 256.488281 193.65625 256.242188 193.542969 255.964844 C 193.425781 255.6875 193.367188 255.398438 193.367188 255.097656 C 193.367188 254.796875 193.425781 254.507812 193.542969 254.230469 C 193.65625 253.953125 193.820312 253.707031 194.03125 253.496094 C 194.246094 253.285156 194.488281 253.121094 194.765625 253.003906 C 195.042969 252.890625 195.332031 252.832031 195.632812 252.832031 C 195.933594 252.832031 196.222656 252.890625 196.5 253.003906 C 196.777344 253.121094 197.023438 253.285156 197.234375 253.496094 C 197.445312 253.707031 197.609375 253.953125 197.726562 254.230469 C 197.839844 254.507812 197.898438 254.796875 197.898438 255.097656 Z M 186.359375 252.832031 C 186.058594 252.832031 185.769531 252.886719 185.492188 253 C 185.210938 253.117188 184.964844 253.277344 184.753906 253.492188 C 184.539062 253.703125 184.375 253.949219 184.257812 254.226562 C 184.144531 254.503906 184.085938 254.792969 184.085938 255.09375 C 184.082031 255.394531 184.140625 255.683594 184.253906 255.960938 C 184.367188 256.238281 184.53125 256.484375 184.746094 256.699219 C 184.957031 256.910156 185.199219 257.074219 185.480469 257.191406 C 185.757812 257.304688 186.046875 257.363281 186.34375 257.363281 C 186.644531 257.363281 186.933594 257.308594 187.214844 257.191406 C 187.492188 257.078125 187.738281 256.914062 187.949219 256.703125 C 188.160156 256.488281 188.324219 256.246094 188.441406 255.964844 C 188.554688 255.6875 188.613281 255.398438 188.613281 255.097656 C 188.613281 254.800781 188.554688 254.511719 188.441406 254.234375 C 188.328125 253.957031 188.164062 253.710938 187.953125 253.5 C 187.742188 253.289062 187.5 253.125 187.222656 253.007812 C 186.945312 252.890625 186.65625 252.832031 186.359375 252.832031 Z M 177.074219 252.832031 C 176.773438 252.832031 176.484375 252.890625 176.207031 253.003906 C 175.929688 253.121094 175.683594 253.285156 175.472656 253.496094 C 175.261719 253.707031 175.097656 253.953125 174.980469 254.230469 C 174.867188 254.507812 174.808594 254.796875 174.808594 255.097656 C 174.808594 255.398438 174.867188 255.6875 174.980469 255.964844 C 175.097656 256.242188 175.261719 256.488281 175.472656 256.699219 C 175.683594 256.914062 175.929688 257.078125 176.207031 257.191406 C 176.484375 257.308594 176.773438 257.363281 177.074219 257.363281 C 177.375 257.363281 177.664062 257.308594 177.941406 257.191406 C 178.21875 257.078125 178.460938 256.914062 178.675781 256.699219 C 178.886719 256.488281 179.050781 256.242188 179.164062 255.964844 C 179.28125 255.6875 179.339844 255.398438 179.339844 255.097656 C 179.339844 254.796875 179.28125 254.507812 179.164062 254.230469 C 179.050781 253.953125 178.886719 253.707031 178.675781 253.496094 C 178.460938 253.285156 178.21875 253.121094 177.941406 253.003906 C 177.664062 252.890625 177.375 252.832031 177.074219 252.832031 Z M 177.074219 252.832031"/><path fill="#FFF" d="M 21.394531 169.621094 L 24.300781 158.714844 C 23.414062 158.101562 19.800781 154.183594 19.820312 152.257812 C 19.820312 151.3125 22.121094 151.3125 23.253906 150.632812 L 23.375 150.566406 L 23.507812 150.566406 C 24.058594 150.585938 24.582031 150.707031 25.082031 150.933594 C 24.96875 149.492188 25.308594 148.167969 26.101562 146.960938 C 26.707031 146.203125 28.933594 146.722656 28.601562 145.714844 C 27.195312 141.484375 33.765625 143.335938 33.832031 143.25 L 34.265625 142.617188 L 34.679688 143.269531 C 34.953125 143.691406 41.285156 153.863281 40.097656 158.433594 C 39.894531 159.28125 39.40625 159.910156 38.632812 160.320312 C 37.273438 161.164062 35.804688 161.695312 34.21875 161.90625 L 34.140625 161.90625 L 35.320312 170.167969 Z M 21.394531 169.621094"/><path fill="#011D45" d="M 35.320312 170.566406 L 21.394531 170.027344 C 21.28125 170.019531 21.191406 169.972656 21.121094 169.886719 C 21.050781 169.792969 21.035156 169.691406 21.0625 169.582031 L 23.894531 158.894531 C 22.734375 157.949219 19.441406 154.285156 19.46875 152.285156 C 19.46875 151.40625 20.527344 151.144531 21.546875 150.878906 C 22.078125 150.773438 22.585938 150.601562 23.074219 150.359375 L 23.195312 150.292969 C 23.257812 150.273438 23.316406 150.273438 23.375 150.292969 L 23.507812 150.292969 C 23.925781 150.300781 24.335938 150.363281 24.734375 150.492188 C 24.691406 149.140625 25.054688 147.90625 25.820312 146.789062 C 26.277344 146.371094 26.820312 146.160156 27.441406 146.15625 C 27.734375 146.140625 28.015625 146.070312 28.28125 145.949219 C 28.082031 145.542969 28 145.117188 28.035156 144.667969 C 28.070312 144.214844 28.21875 143.804688 28.480469 143.4375 C 29.585938 142.164062 32.445312 142.691406 33.527344 142.890625 L 33.652344 142.890625 L 33.972656 142.4375 C 34.042969 142.335938 34.140625 142.285156 34.265625 142.285156 C 34.390625 142.289062 34.488281 142.339844 34.558594 142.445312 L 34.960938 143.097656 C 35.246094 143.53125 41.691406 153.824219 40.425781 158.546875 C 40.199219 159.503906 39.652344 160.210938 38.785156 160.667969 C 37.464844 161.457031 36.050781 161.996094 34.539062 162.285156 L 35.660156 170.160156 C 35.683594 170.269531 35.65625 170.363281 35.574219 170.441406 C 35.507812 170.519531 35.425781 170.5625 35.320312 170.566406 Z M 21.847656 169.335938 L 34.914062 169.835938 L 33.792969 161.972656 C 33.78125 161.863281 33.8125 161.769531 33.886719 161.6875 C 33.957031 161.601562 34.046875 161.558594 34.160156 161.566406 C 35.707031 161.363281 37.140625 160.851562 38.464844 160.027344 C 39.152344 159.660156 39.582031 159.097656 39.757812 158.335938 C 40.699219 154.796875 36.652344 147.007812 34.378906 143.457031 L 34.253906 143.257812 L 34.121094 143.449219 C 33.980469 143.644531 33.820312 143.617188 33.40625 143.542969 C 32.527344 143.382812 29.867188 142.882812 29.019531 143.851562 C 28.855469 144.117188 28.765625 144.40625 28.753906 144.71875 C 28.738281 145.027344 28.800781 145.324219 28.941406 145.601562 C 29.035156 145.832031 29.015625 146.054688 28.886719 146.269531 C 28.660156 146.648438 28.121094 146.722656 27.554688 146.808594 C 26.988281 146.894531 26.566406 146.949219 26.375 147.1875 C 25.628906 148.335938 25.3125 149.597656 25.433594 150.964844 C 25.4375 151.09375 25.382812 151.195312 25.273438 151.265625 C 25.15625 151.335938 25.039062 151.335938 24.921875 151.265625 C 24.472656 151.058594 23.996094 150.945312 23.5 150.933594 L 23.414062 150.933594 C 22.867188 151.210938 22.296875 151.410156 21.695312 151.53125 C 20.980469 151.71875 20.15625 151.925781 20.15625 152.257812 C 20.15625 153.984375 23.621094 157.828125 24.480469 158.414062 C 24.617188 158.507812 24.664062 158.636719 24.621094 158.800781 Z M 21.847656 169.335938"/><path fill="#16A795" d="M 35.347656 165.84375 L 43.839844 167.683594 C 44.601562 167.851562 45.332031 168.109375 46.027344 168.460938 C 46.722656 168.8125 47.367188 169.242188 47.957031 169.75 C 48.542969 170.261719 49.0625 170.835938 49.507812 171.476562 C 49.953125 172.117188 50.3125 172.800781 50.589844 173.53125 L 55.703125 187.164062 L 50.75 206.246094 L 50.992188 213.933594 L 53.191406 229.3125 L 13.84375 236.761719 L 11.957031 196.160156 L 8.410156 192.660156 L 5.871094 184.492188 C 5.703125 184.007812 5.574219 183.511719 5.488281 183.003906 C 5.402344 182.5 5.359375 181.988281 5.363281 181.476562 C 5.363281 180.960938 5.40625 180.449219 5.496094 179.945312 C 5.582031 179.4375 5.714844 178.945312 5.886719 178.460938 C 6.058594 177.976562 6.273438 177.511719 6.523438 177.0625 C 6.777344 176.617188 7.0625 176.191406 7.386719 175.792969 C 7.710938 175.398438 8.070312 175.027344 8.457031 174.691406 C 8.84375 174.355469 9.253906 174.050781 9.695312 173.785156 L 22.660156 165.84375 C 30.460938 172.953125 35.347656 165.84375 35.347656 165.84375 Z M 35.347656 165.84375"/><path fill="#FFF" d="M 8.269531 192.28125 C 11.96875 190.621094 16.96875 188.203125 17.554688 187.851562 L 19.054688 187.039062 L 22.886719 197.945312 L 37.492188 166.410156 C 37.339844 165.734375 37.050781 165.128906 36.621094 164.582031 C 36.195312 164.039062 35.675781 163.613281 35.058594 163.304688 L 29.328125 160.726562 L 30.046875 160.207031 C 31.773438 158.980469 34.925781 159.308594 35.460938 159.375 C 36.964844 159.140625 39.964844 156.921875 41 156.082031 L 41.246094 155.882812 L 41.53125 156.015625 C 44.398438 157.347656 45.210938 164.898438 45.210938 165.703125 L 45.210938 165.84375 L 29.714844 211.316406 C 29.511719 211.933594 29.222656 212.507812 28.847656 213.035156 C 28.472656 213.566406 28.023438 214.027344 27.507812 214.421875 C 26.992188 214.816406 26.429688 215.125 25.820312 215.347656 C 25.210938 215.574219 24.582031 215.703125 23.933594 215.734375 L 23.507812 215.734375 C 22.894531 215.738281 22.292969 215.660156 21.703125 215.492188 C 21.113281 215.324219 20.558594 215.074219 20.039062 214.746094 C 19.519531 214.421875 19.054688 214.027344 18.648438 213.566406 C 18.242188 213.105469 17.910156 212.597656 17.648438 212.042969 Z M 8.269531 192.28125"/><path fill="#011D45" d="M 23.507812 216.09375 C 22.863281 216.097656 22.226562 216.011719 21.605469 215.832031 C 20.984375 215.65625 20.402344 215.394531 19.855469 215.050781 C 19.308594 214.703125 18.820312 214.289062 18.394531 213.804688 C 17.964844 213.324219 17.613281 212.789062 17.335938 212.203125 L 7.902344 192.460938 C 7.867188 192.371094 7.867188 192.277344 7.902344 192.1875 C 7.9375 192.09375 8 192.023438 8.089844 191.980469 C 11.863281 190.296875 16.789062 187.898438 17.335938 187.578125 L 18.847656 186.757812 C 18.941406 186.703125 19.042969 186.695312 19.144531 186.734375 C 19.246094 186.773438 19.316406 186.84375 19.355469 186.945312 L 22.933594 197.003906 L 37.085938 166.417969 C 36.941406 165.824219 36.679688 165.289062 36.300781 164.808594 C 35.921875 164.328125 35.460938 163.949219 34.914062 163.671875 L 29.167969 161.046875 C 29.039062 160.992188 28.96875 160.894531 28.960938 160.753906 C 28.945312 160.617188 28.992188 160.511719 29.101562 160.433594 L 29.820312 159.921875 C 31.605469 158.648438 34.699219 158.980469 35.433594 158.980469 C 36.726562 158.742188 39.371094 156.894531 40.757812 155.769531 L 41 155.570312 C 41.125 155.496094 41.246094 155.496094 41.371094 155.570312 L 41.660156 155.695312 C 44.652344 157.0625 45.4375 164.25 45.578125 165.683594 L 45.578125 165.789062 C 45.585938 165.835938 45.585938 165.886719 45.578125 165.9375 L 30.054688 211.429688 C 29.839844 212.082031 29.535156 212.683594 29.136719 213.242188 C 28.742188 213.800781 28.269531 214.289062 27.726562 214.703125 C 27.179688 215.121094 26.585938 215.445312 25.941406 215.679688 C 25.300781 215.914062 24.636719 216.050781 23.953125 216.085938 Z M 8.742188 192.488281 L 17.96875 211.910156 C 18.238281 212.464844 18.582031 212.964844 19 213.414062 C 19.417969 213.863281 19.890625 214.242188 20.421875 214.550781 C 20.953125 214.859375 21.515625 215.082031 22.113281 215.222656 C 22.710938 215.363281 23.316406 215.414062 23.929688 215.375 C 24.539062 215.335938 25.132812 215.207031 25.707031 214.988281 C 26.28125 214.773438 26.8125 214.476562 27.296875 214.101562 C 27.785156 213.726562 28.203125 213.289062 28.558594 212.789062 C 28.917969 212.289062 29.191406 211.746094 29.386719 211.164062 L 44.890625 165.730469 C 44.617188 162.710938 43.566406 157.328125 41.386719 156.335938 L 41.292969 156.335938 L 41.226562 156.390625 C 41.226562 156.390625 37.453125 159.460938 35.519531 159.761719 L 35.414062 159.761719 C 35.066406 159.761719 31.894531 159.355469 30.253906 160.539062 L 30.039062 160.6875 L 35.199219 163.011719 C 35.863281 163.339844 36.425781 163.792969 36.886719 164.375 C 37.34375 164.957031 37.65625 165.613281 37.820312 166.335938 C 37.855469 166.417969 37.855469 166.503906 37.820312 166.589844 L 23.207031 198.050781 C 23.136719 198.1875 23.027344 198.253906 22.875 198.25 C 22.714844 198.246094 22.605469 198.164062 22.554688 198.011719 L 18.867188 187.625 L 17.722656 188.238281 C 17.140625 188.503906 12.375 190.835938 8.75 192.480469 Z M 8.742188 192.488281"/><path fill="#FFF" d="M 18.394531 211.988281 L 18.515625 211.5625 L 23.742188 212.34375 L 27.960938 211.402344 L 48.523438 199.917969 L 45.011719 188.675781 L 55.390625 186.105469 L 60.421875 201.488281 C 60.542969 201.890625 60.628906 202.300781 60.671875 202.722656 C 60.714844 203.140625 60.714844 203.5625 60.675781 203.980469 C 60.636719 204.402344 60.558594 204.8125 60.441406 205.21875 C 60.320312 205.625 60.164062 206.011719 59.96875 206.386719 C 59.773438 206.761719 59.546875 207.113281 59.28125 207.441406 C 59.019531 207.769531 58.726562 208.070312 58.402344 208.34375 C 58.082031 208.617188 57.734375 208.855469 57.367188 209.058594 C 57 209.261719 56.613281 209.429688 56.210938 209.558594 L 31.28125 217.773438 C 29.125 218.933594 26.824219 219.5625 24.375 219.664062 L 23.761719 219.664062 C 23.414062 219.707031 23.070312 219.695312 22.726562 219.628906 C 22.382812 219.558594 22.058594 219.433594 21.757812 219.257812 C 21.453125 219.082031 21.1875 218.863281 20.957031 218.601562 C 20.726562 218.335938 20.546875 218.042969 20.414062 217.71875 C 19.714844 217.460938 19.175781 217.015625 18.789062 216.378906 C 18.554688 215.945312 18.484375 215.488281 18.582031 215.007812 C 18.128906 214.023438 18.066406 213.019531 18.394531 211.988281 Z M 18.394531 211.988281"/><path fill="#011D45" d="M 24.375 219.964844 C 24.167969 219.964844 23.953125 219.964844 23.742188 219.964844 C 23.375 220.011719 23.007812 219.996094 22.640625 219.925781 C 22.277344 219.851562 21.933594 219.722656 21.609375 219.542969 C 21.285156 219.359375 20.996094 219.128906 20.746094 218.855469 C 20.496094 218.582031 20.292969 218.273438 20.140625 217.933594 C 19.4375 217.664062 18.886719 217.207031 18.488281 216.566406 C 18.222656 216.101562 18.128906 215.605469 18.214844 215.074219 C 17.777344 214.039062 17.722656 212.984375 18.054688 211.910156 L 18.175781 211.476562 C 18.199219 211.390625 18.25 211.324219 18.324219 211.277344 C 18.398438 211.230469 18.476562 211.214844 18.5625 211.230469 L 23.726562 212.003906 L 27.839844 211.0625 L 48.105469 199.730469 L 44.671875 188.757812 C 44.632812 188.667969 44.632812 188.578125 44.671875 188.484375 C 44.722656 188.394531 44.800781 188.335938 44.898438 188.304688 L 55.230469 185.738281 C 55.320312 185.71875 55.40625 185.730469 55.488281 185.777344 C 55.566406 185.820312 55.625 185.886719 55.65625 185.972656 L 60.683594 201.355469 C 60.8125 201.78125 60.898438 202.214844 60.945312 202.65625 C 60.988281 203.097656 60.988281 203.539062 60.949219 203.980469 C 60.90625 204.425781 60.820312 204.859375 60.695312 205.285156 C 60.570312 205.710938 60.402344 206.121094 60.199219 206.511719 C 59.992188 206.90625 59.75 207.277344 59.472656 207.621094 C 59.195312 207.96875 58.886719 208.285156 58.546875 208.570312 C 58.207031 208.859375 57.84375 209.109375 57.457031 209.324219 C 57.066406 209.539062 56.664062 209.714844 56.238281 209.851562 L 31.386719 218.058594 C 29.199219 219.246094 26.863281 219.878906 24.375 219.964844 Z M 23.734375 219.246094 L 24.375 219.246094 C 26.761719 219.144531 29.007812 218.53125 31.113281 217.40625 L 56.050781 209.210938 C 56.429688 209.089844 56.796875 208.929688 57.144531 208.738281 C 57.492188 208.542969 57.820312 208.320312 58.125 208.0625 C 58.429688 207.804688 58.707031 207.523438 58.957031 207.210938 C 59.203125 206.898438 59.421875 206.566406 59.605469 206.214844 C 59.789062 205.859375 59.9375 205.492188 60.050781 205.109375 C 60.164062 204.726562 60.238281 204.335938 60.277344 203.941406 C 60.3125 203.542969 60.3125 203.144531 60.269531 202.75 C 60.230469 202.351562 60.148438 201.964844 60.035156 201.582031 L 55.109375 186.472656 L 45.457031 188.871094 L 48.863281 199.835938 C 48.921875 200.019531 48.867188 200.15625 48.699219 200.25 L 28.140625 211.710938 L 28.046875 211.710938 L 23.820312 212.65625 C 23.773438 212.667969 23.730469 212.667969 23.6875 212.65625 L 18.789062 211.957031 L 18.789062 212.089844 C 18.484375 213.03125 18.542969 213.949219 18.960938 214.847656 C 18.976562 214.921875 18.976562 215 18.960938 215.074219 C 18.878906 215.46875 18.933594 215.84375 19.128906 216.199219 C 19.484375 216.738281 19.964844 217.109375 20.574219 217.320312 C 20.675781 217.363281 20.742188 217.433594 20.78125 217.539062 C 20.902344 217.824219 21.0625 218.078125 21.265625 218.3125 C 21.46875 218.542969 21.703125 218.734375 21.972656 218.886719 C 22.238281 219.042969 22.523438 219.148438 22.824219 219.210938 C 23.125 219.273438 23.429688 219.285156 23.734375 219.246094 Z M 18.394531 211.988281 Z M 18.394531 211.988281"/><path fill="#011D45" d="M 36.152344 144.910156 C 36.21875 145.050781 36.40625 145.355469 36.152344 145.402344 C 35.898438 145.449219 35.800781 145.128906 35.71875 145.035156 C 35.351562 144.617188 34.902344 144.335938 34.367188 144.191406 C 33.722656 143.984375 33.0625 143.867188 32.386719 143.84375 C 32.148438 143.835938 31.917969 143.875 31.695312 143.953125 C 31.472656 144.03125 31.269531 144.144531 31.089844 144.296875 C 30.90625 144.449219 30.757812 144.628906 30.640625 144.835938 C 30.527344 145.042969 30.449219 145.261719 30.414062 145.496094 C 30.367188 145.769531 30.3125 146.023438 30.28125 146.175781 C 30.121094 147.054688 30.007812 147.953125 29.859375 148.828125 C 29.722656 149.914062 29.394531 150.933594 28.867188 151.886719 C 28.453125 152.566406 27.820312 153.285156 26.980469 153.105469 C 25.519531 152.796875 24.433594 150.347656 22.773438 151.386719 C 21.667969 152.085938 21.289062 154.609375 22.554688 155.457031 C 22.875 155.664062 23.21875 155.8125 23.59375 155.890625 C 23.9375 155.917969 24.269531 156.007812 24.582031 156.15625 C 25.273438 156.636719 24.375 156.769531 24.015625 156.703125 C 24.734375 158.1875 25.148438 159.640625 24.167969 161.039062 C 23.167969 162.265625 21.910156 163.109375 20.394531 163.558594 C 18.765625 164.167969 17.125 164.195312 15.476562 163.644531 C 15.109375 163.472656 14.753906 163.503906 14.421875 163.738281 C 13.996094 163.988281 13.546875 164.179688 13.070312 164.3125 C 12.453125 164.484375 11.824219 164.589844 11.183594 164.625 C 9.941406 164.726562 8.773438 164.472656 7.683594 163.871094 C 6.457031 163.214844 5.558594 162.253906 4.996094 160.980469 C 4.75 160.210938 4.679688 159.421875 4.789062 158.621094 C 4.789062 158.0625 5.097656 157.222656 4.789062 156.730469 C 4.476562 156.242188 3.84375 156.042969 3.410156 155.789062 C 2.917969 155.527344 2.503906 155.167969 2.171875 154.722656 C 0.285156 152.265625 0.738281 148.875 1.9375 146.328125 C 2.179688 145.765625 2.496094 145.242188 2.878906 144.765625 C 3.265625 144.289062 3.707031 143.871094 4.207031 143.515625 C 4.703125 143.15625 5.242188 142.875 5.820312 142.664062 C 6.394531 142.453125 6.988281 142.324219 7.597656 142.277344 C 9.105469 142.152344 10.5625 142.351562 11.976562 142.882812 C 13.261719 143.335938 14.808594 144.183594 16.128906 143.738281 C 17.449219 143.296875 18.015625 142.003906 18.734375 141.011719 C 19.578125 139.917969 20.640625 139.109375 21.921875 138.59375 C 23.1875 138.132812 24.496094 137.9375 25.839844 138.003906 C 27.183594 138.070312 28.464844 138.398438 29.679688 138.980469 C 31.039062 139.476562 32.296875 140.164062 33.453125 141.039062 C 34.074219 141.691406 34.617188 142.40625 35.074219 143.183594 C 35.480469 143.738281 35.839844 144.320312 36.152344 144.929688"/><path fill="#011D45" d="M 178.46875 203.953125 C 178.472656 203.855469 178.507812 203.773438 178.574219 203.707031 C 178.640625 203.640625 178.722656 203.605469 178.820312 203.601562 L 195.320312 203.601562 C 195.429688 203.585938 195.527344 203.609375 195.613281 203.683594 C 195.695312 203.753906 195.738281 203.84375 195.738281 203.957031 C 195.738281 204.066406 195.695312 204.15625 195.613281 204.230469 C 195.527344 204.300781 195.429688 204.328125 195.320312 204.308594 L 178.820312 204.308594 C 178.722656 204.308594 178.640625 204.273438 178.570312 204.203125 C 178.503906 204.132812 178.46875 204.046875 178.46875 203.953125 Z M 223.648438 206.445312 L 178.820312 206.445312 C 178.617188 206.476562 178.519531 206.59375 178.519531 206.796875 C 178.519531 207 178.617188 207.121094 178.820312 207.152344 L 223.648438 207.152344 C 223.757812 207.171875 223.855469 207.144531 223.9375 207.070312 C 224.023438 207 224.066406 206.910156 224.066406 206.796875 C 224.066406 206.6875 224.023438 206.597656 223.9375 206.523438 C 223.855469 206.453125 223.757812 206.425781 223.648438 206.445312 Z M 223.648438 209.277344 L 178.820312 209.277344 C 178.617188 209.308594 178.519531 209.425781 178.519531 209.632812 C 178.519531 209.835938 178.617188 209.953125 178.820312 209.984375 L 223.648438 209.984375 C 223.757812 210.003906 223.855469 209.976562 223.9375 209.90625 C 224.023438 209.832031 224.066406 209.742188 224.066406 209.632812 C 224.066406 209.519531 224.023438 209.429688 223.9375 209.355469 C 223.855469 209.285156 223.757812 209.257812 223.648438 209.277344 Z M 223.648438 212.109375 L 178.820312 212.109375 C 178.722656 212.113281 178.640625 212.148438 178.570312 212.21875 C 178.503906 212.289062 178.46875 212.371094 178.46875 212.46875 C 178.46875 212.566406 178.503906 212.648438 178.574219 212.714844 C 178.640625 212.785156 178.722656 212.816406 178.820312 212.816406 L 223.648438 212.816406 C 223.746094 212.820312 223.832031 212.789062 223.902344 212.71875 C 223.972656 212.648438 224.007812 212.566406 224.007812 212.46875 C 224.007812 212.367188 223.972656 212.285156 223.902344 212.214844 C 223.832031 212.144531 223.746094 212.109375 223.648438 212.109375 Z M 223.648438 214.941406 L 178.820312 214.941406 C 178.722656 214.941406 178.640625 214.976562 178.574219 215.042969 C 178.503906 215.113281 178.46875 215.195312 178.46875 215.292969 C 178.46875 215.386719 178.503906 215.472656 178.570312 215.542969 C 178.640625 215.613281 178.722656 215.648438 178.820312 215.648438 L 223.648438 215.648438 C 223.746094 215.648438 223.832031 215.613281 223.902344 215.546875 C 223.972656 215.476562 224.007812 215.390625 224.007812 215.292969 C 224.007812 215.191406 223.972656 215.109375 223.902344 215.039062 C 223.832031 214.972656 223.746094 214.9375 223.648438 214.941406 Z M 223.648438 217.773438 L 178.820312 217.773438 C 178.722656 217.773438 178.640625 217.808594 178.574219 217.875 C 178.503906 217.945312 178.46875 218.027344 178.46875 218.125 C 178.46875 218.222656 178.503906 218.304688 178.570312 218.375 C 178.640625 218.445312 178.722656 218.480469 178.820312 218.484375 L 223.648438 218.484375 C 223.746094 218.484375 223.832031 218.449219 223.902344 218.378906 C 223.972656 218.308594 224.007812 218.222656 224.007812 218.125 C 224.007812 218.027344 223.972656 217.941406 223.902344 217.875 C 223.832031 217.804688 223.746094 217.773438 223.648438 217.773438 Z M 223.648438 220.605469 L 178.820312 220.605469 C 178.617188 220.640625 178.519531 220.757812 178.519531 220.960938 C 178.519531 221.164062 178.617188 221.28125 178.820312 221.316406 L 223.648438 221.316406 C 223.757812 221.332031 223.855469 221.304688 223.9375 221.234375 C 224.023438 221.164062 224.066406 221.070312 224.066406 220.960938 C 224.066406 220.851562 224.023438 220.757812 223.9375 220.6875 C 223.855469 220.617188 223.757812 220.589844 223.648438 220.605469 Z M 234.527344 204.308594 L 251.03125 204.308594 C 251.230469 204.277344 251.332031 204.160156 251.332031 203.957031 C 251.332031 203.753906 251.230469 203.636719 251.03125 203.601562 L 234.527344 203.601562 C 234.328125 203.636719 234.226562 203.753906 234.226562 203.957031 C 234.226562 204.160156 234.328125 204.277344 234.527344 204.308594 Z M 234.527344 207.144531 L 279.355469 207.144531 C 279.558594 207.109375 279.65625 206.992188 279.65625 206.789062 C 279.65625 206.585938 279.558594 206.46875 279.355469 206.433594 L 234.527344 206.433594 C 234.328125 206.46875 234.226562 206.585938 234.226562 206.789062 C 234.226562 206.992188 234.328125 207.109375 234.527344 207.144531 Z M 279.355469 209.277344 L 234.527344 209.277344 C 234.328125 209.308594 234.226562 209.425781 234.226562 209.632812 C 234.226562 209.835938 234.328125 209.953125 234.527344 209.984375 L 279.355469 209.984375 C 279.558594 209.953125 279.65625 209.835938 279.65625 209.632812 C 279.65625 209.425781 279.558594 209.308594 279.355469 209.277344 Z M 279.355469 212.109375 L 234.527344 212.109375 C 234.429688 212.109375 234.347656 212.144531 234.277344 212.214844 C 234.207031 212.285156 234.175781 212.371094 234.179688 212.46875 C 234.175781 212.566406 234.207031 212.648438 234.277344 212.71875 C 234.347656 212.789062 234.429688 212.820312 234.527344 212.816406 L 279.355469 212.816406 C 279.453125 212.816406 279.535156 212.785156 279.601562 212.714844 C 279.671875 212.648438 279.707031 212.566406 279.707031 212.46875 C 279.707031 212.371094 279.671875 212.289062 279.605469 212.21875 C 279.535156 212.148438 279.453125 212.113281 279.355469 212.109375 Z M 279.355469 214.941406 L 234.527344 214.941406 C 234.429688 214.9375 234.347656 214.972656 234.277344 215.042969 C 234.207031 215.109375 234.175781 215.195312 234.179688 215.292969 C 234.175781 215.390625 234.207031 215.472656 234.277344 215.542969 C 234.347656 215.613281 234.429688 215.648438 234.527344 215.648438 L 279.355469 215.648438 C 279.453125 215.648438 279.535156 215.613281 279.605469 215.542969 C 279.671875 215.472656 279.707031 215.386719 279.707031 215.292969 C 279.707031 215.195312 279.671875 215.113281 279.601562 215.042969 C 279.535156 214.976562 279.453125 214.941406 279.355469 214.941406 Z M 279.355469 217.773438 L 234.527344 217.773438 C 234.429688 217.773438 234.347656 217.804688 234.277344 217.875 C 234.207031 217.941406 234.175781 218.027344 234.179688 218.125 C 234.175781 218.222656 234.207031 218.304688 234.277344 218.378906 C 234.347656 218.449219 234.429688 218.484375 234.527344 218.484375 L 279.355469 218.484375 C 279.453125 218.480469 279.535156 218.445312 279.605469 218.375 C 279.671875 218.304688 279.707031 218.222656 279.707031 218.125 C 279.707031 218.027344 279.671875 217.945312 279.601562 217.875 C 279.535156 217.808594 279.453125 217.773438 279.355469 217.773438 Z M 279.355469 220.605469 L 234.527344 220.605469 C 234.328125 220.640625 234.226562 220.757812 234.226562 220.960938 C 234.226562 221.164062 234.328125 221.28125 234.527344 221.316406 L 279.355469 221.316406 C 279.558594 221.28125 279.65625 221.164062 279.65625 220.960938 C 279.65625 220.757812 279.558594 220.640625 279.355469 220.605469 Z M 279.355469 220.605469"/><path fill="#011D45" d="M 294.546875 131.050781 L 253.4375 131.003906 C 253.339844 131 253.257812 130.964844 253.1875 130.894531 C 253.121094 130.824219 253.085938 130.742188 253.085938 130.644531 L 253.085938 109.183594 C 253.085938 109.082031 253.121094 109 253.191406 108.925781 C 253.257812 108.859375 253.339844 108.824219 253.4375 108.824219 L 294.546875 108.878906 C 294.644531 108.878906 294.730469 108.910156 294.796875 108.980469 C 294.867188 109.050781 294.898438 109.132812 294.898438 109.230469 L 294.898438 130.691406 C 294.898438 130.789062 294.863281 130.875 294.792969 130.945312 C 294.722656 131.015625 294.636719 131.050781 294.539062 131.050781 Z M 253.796875 130.292969 L 294.199219 130.34375 L 294.199219 109.570312 L 253.804688 109.511719 Z M 253.796875 130.292969"/><path fill="#FFF" d="M 204.125 288.742188 C 204.125 289.351562 204.066406 289.957031 203.945312 290.558594 C 203.828125 291.160156 203.652344 291.742188 203.417969 292.308594 C 203.183594 292.871094 202.894531 293.410156 202.554688 293.917969 C 202.214844 294.425781 201.828125 294.898438 201.398438 295.332031 C 200.964844 295.765625 200.492188 296.148438 199.984375 296.488281 C 199.476562 296.828125 198.941406 297.117188 198.375 297.351562 C 197.808594 297.585938 197.226562 297.761719 196.625 297.882812 C 196.027344 298 195.421875 298.058594 194.808594 298.058594 C 194.199219 298.058594 193.59375 298 192.992188 297.878906 C 192.390625 297.761719 191.808594 297.582031 191.246094 297.347656 C 190.679688 297.113281 190.144531 296.828125 189.636719 296.488281 C 189.125 296.144531 188.65625 295.757812 188.222656 295.328125 C 187.792969 294.894531 187.40625 294.421875 187.066406 293.914062 C 186.726562 293.40625 186.441406 292.867188 186.207031 292.300781 C 185.972656 291.734375 185.796875 291.152344 185.675781 290.550781 C 185.558594 289.953125 185.5 289.347656 185.5 288.734375 C 185.5 288.121094 185.558594 287.515625 185.679688 286.914062 C 185.800781 286.316406 185.976562 285.734375 186.210938 285.167969 C 186.445312 284.601562 186.734375 284.066406 187.074219 283.554688 C 187.414062 283.046875 187.800781 282.578125 188.234375 282.144531 C 188.664062 281.710938 189.136719 281.328125 189.644531 280.988281 C 190.15625 280.648438 190.691406 280.359375 191.257812 280.128906 C 191.820312 279.894531 192.40625 279.71875 193.003906 279.597656 C 193.605469 279.480469 194.210938 279.421875 194.820312 279.421875 C 195.433594 279.421875 196.039062 279.480469 196.636719 279.601562 C 197.238281 279.71875 197.820312 279.894531 198.382812 280.128906 C 198.949219 280.363281 199.484375 280.652344 199.992188 280.992188 C 200.5 281.332031 200.972656 281.71875 201.402344 282.152344 C 201.835938 282.582031 202.222656 283.054688 202.5625 283.5625 C 202.898438 284.074219 203.1875 284.609375 203.421875 285.175781 C 203.652344 285.738281 203.828125 286.324219 203.949219 286.921875 C 204.066406 287.523438 204.125 288.128906 204.125 288.742188 Z M 209.363281 286.398438 L 225.855469 286.398438 C 225.964844 286.417969 226.0625 286.390625 226.144531 286.316406 C 226.230469 286.246094 226.273438 286.15625 226.273438 286.042969 C 226.273438 285.933594 226.230469 285.84375 226.144531 285.769531 C 226.0625 285.699219 225.964844 285.671875 225.855469 285.691406 L 209.390625 285.691406 C 209.28125 285.671875 209.183594 285.699219 209.101562 285.769531 C 209.015625 285.84375 208.972656 285.933594 208.972656 286.042969 C 208.972656 286.15625 209.015625 286.246094 209.101562 286.316406 C 209.183594 286.390625 209.28125 286.417969 209.390625 286.398438 Z M 254.183594 288.523438 L 209.390625 288.523438 C 209.28125 288.503906 209.183594 288.53125 209.101562 288.605469 C 209.015625 288.675781 208.972656 288.765625 208.972656 288.878906 C 208.972656 288.988281 209.015625 289.078125 209.101562 289.152344 C 209.183594 289.222656 209.28125 289.25 209.390625 289.230469 L 254.210938 289.230469 C 254.320312 289.25 254.417969 289.222656 254.5 289.152344 C 254.585938 289.078125 254.625 288.988281 254.625 288.878906 C 254.625 288.765625 254.585938 288.675781 254.5 288.605469 C 254.417969 288.53125 254.320312 288.503906 254.210938 288.523438 Z M 295.867188 326.621094 L 286.535156 310.410156 L 277.59375 325.875 L 270.816406 314.082031 L 263.570312 326.601562 L 278.027344 326.601562 Z M 278.269531 312.882812 C 278.648438 312.890625 279.011719 312.824219 279.363281 312.6875 C 279.714844 312.550781 280.023438 312.351562 280.296875 312.085938 C 280.566406 311.824219 280.777344 311.519531 280.925781 311.175781 C 281.074219 310.828125 281.152344 310.464844 281.160156 310.089844 C 281.164062 309.710938 281.097656 309.347656 280.957031 309 C 280.816406 308.648438 280.613281 308.339844 280.351562 308.070312 C 280.085938 307.800781 279.78125 307.589844 279.433594 307.445312 C 279.085938 307.296875 278.722656 307.222656 278.347656 307.21875 C 277.96875 307.214844 277.605469 307.285156 277.257812 307.429688 C 276.910156 307.570312 276.601562 307.777344 276.332031 308.042969 C 276.066406 308.308594 275.859375 308.613281 275.714844 308.960938 C 275.570312 309.3125 275.496094 309.671875 275.496094 310.050781 C 275.492188 310.421875 275.558594 310.78125 275.695312 311.128906 C 275.832031 311.476562 276.03125 311.78125 276.292969 312.046875 C 276.554688 312.3125 276.855469 312.519531 277.199219 312.664062 C 277.542969 312.808594 277.898438 312.882812 278.269531 312.882812 Z M 278.269531 312.882812"/><path fill="#011D45" d="M 191.691406 75.777344 C 191.605469 75.777344 191.527344 75.746094 191.464844 75.691406 C 191.390625 75.628906 191.351562 75.550781 191.339844 75.457031 L 188.753906 44.382812 C 188.746094 44.285156 188.769531 44.195312 188.832031 44.117188 C 188.898438 44.046875 188.980469 44.007812 189.074219 43.996094 L 248.585938 39.027344 C 248.6875 39.003906 248.78125 39.023438 248.867188 39.082031 C 248.953125 39.140625 249.003906 39.21875 249.019531 39.320312 L 251.558594 70.480469 C 251.566406 70.574219 251.542969 70.660156 251.484375 70.734375 C 251.417969 70.808594 251.335938 70.851562 251.238281 70.859375 L 191.726562 75.824219 Z M 189.480469 44.675781 L 192.019531 75.039062 L 250.832031 70.140625 L 248.292969 39.765625 Z M 189.480469 44.675781"/><path fill="#011D45" d="M 362.738281 202.78125 C 362.640625 202.769531 362.5625 202.726562 362.5 202.652344 C 362.4375 202.578125 362.410156 202.492188 362.417969 202.394531 C 362.417969 202.253906 363.476562 187.710938 359.589844 180.253906 C 359.539062 180.164062 359.53125 180.074219 359.5625 179.980469 C 359.589844 179.882812 359.648438 179.816406 359.738281 179.769531 C 359.824219 179.730469 359.914062 179.722656 360.003906 179.75 C 360.097656 179.78125 360.164062 179.835938 360.210938 179.921875 C 364.164062 187.570312 363.136719 201.847656 363.089844 202.449219 C 363.082031 202.542969 363.046875 202.621094 362.980469 202.683594 C 362.914062 202.75 362.832031 202.78125 362.738281 202.78125 Z M 362.738281 202.78125"/><path fill="#16A795" d="M 131.074219 110.191406 L 157.496094 110.191406 C 157.496094 110.191406 158.4375 130.117188 151.75 141.617188 L 119.75 146.789062 C 119.75 146.789062 127.054688 144.128906 131.074219 110.191406 Z M 238.105469 181.566406 L 270.082031 176.390625 C 276.78125 164.898438 275.828125 144.96875 275.828125 144.96875 L 249.40625 144.96875 C 245.378906 178.882812 238.105469 181.566406 238.105469 181.566406 Z M 205.832031 145.070312 L 227.261719 141.605469 C 231.753906 133.875 231.09375 120.523438 231.09375 120.523438 L 213.402344 120.523438 C 210.703125 143.25 205.832031 145.070312 205.832031 145.070312 Z M 205.832031 145.070312"/><g clip-path="url(#b)"><path fill="#011D45" d="M 187.953125 80.214844 C 187.867188 80.210938 187.785156 80.183594 187.71875 80.128906 C 187.648438 80.0625 187.605469 79.980469 187.59375 79.882812 L 184.320312 40.632812 C 184.316406 40.535156 184.34375 40.449219 184.40625 40.375 C 184.472656 40.300781 184.550781 40.257812 184.652344 40.246094 L 252.332031 34.582031 C 252.433594 34.574219 252.519531 34.601562 252.597656 34.667969 C 252.667969 34.730469 252.710938 34.808594 252.71875 34.902344 L 255.992188 74.164062 C 256 74.257812 255.96875 74.34375 255.90625 74.417969 C 255.839844 74.492188 255.761719 74.53125 255.664062 74.539062 L 187.980469 80.207031 Z M 185.054688 40.925781 L 188.273438 79.46875 L 255.265625 73.886719 L 252.039062 35.335938 Z M 185.054688 40.925781"/></g></svg>