<svg xmlns="http://www.w3.org/2000/svg" width="600" viewBox="0 0 600 600" height="600" version="1.0"><defs><clipPath id="a"><path d="M 0 43.332031 L 419 43.332031 L 419 384 L 0 384 Z M 0 43.332031"/></clipPath></defs><path fill="#011D45" d="M 299.488281 278.722656 C 299.488281 195.746094 366.6875 128.480469 449.632812 128.480469 C 532.554688 128.480469 599.753906 195.746094 599.753906 278.722656 C 599.753906 348.699219 551.960938 407.46875 487.277344 424.203125 C 496.027344 440.101562 508.597656 457.628906 524.691406 466.40625 C 524.691406 466.40625 446.179688 472.378906 404.636719 422.105469 C 343.6875 402.964844 299.488281 346.015625 299.488281 278.722656"/><path fill="#FFF" d="M 524.390625 238.015625 L 366.082031 238.015625 C 360.320312 238.015625 355.628906 233.347656 355.628906 227.582031 C 355.628906 221.820312 360.320312 217.152344 366.082031 217.152344 L 524.390625 217.152344 C 530.152344 217.152344 534.816406 221.820312 534.816406 227.582031 C 534.816406 233.347656 530.152344 238.015625 524.390625 238.015625"/><path fill="#FFF" d="M 524.390625 287.894531 L 366.082031 287.894531 C 360.320312 287.894531 355.628906 283.226562 355.628906 277.460938 C 355.628906 271.699219 360.320312 267.03125 366.082031 267.03125 L 524.390625 267.03125 C 530.152344 267.03125 534.816406 271.699219 534.816406 277.460938 C 534.816406 283.226562 530.152344 287.894531 524.390625 287.894531"/><path fill="#FFF" d="M 524.390625 337.773438 L 366.082031 337.773438 C 360.320312 337.773438 355.628906 333.082031 355.628906 327.316406 C 355.628906 321.578125 360.320312 316.910156 366.082031 316.910156 L 524.390625 316.910156 C 530.152344 316.910156 534.816406 321.578125 534.816406 327.316406 C 534.816406 333.082031 530.152344 337.773438 524.390625 337.773438"/><g clip-path="url(#a)"><path fill="#FC9720" d="M 297.714844 78.039062 C 291.019531 78.039062 284.464844 78.578125 278.074219 79.628906 C 260.976562 57.617188 234.269531 43.449219 204.25 43.449219 C 164.738281 43.449219 130.960938 67.957031 117.269531 102.59375 C 109.734375 100.65625 101.828125 99.609375 93.710938 99.609375 C 42.070312 99.609375 0.226562 141.480469 0.226562 193.132812 C 0.226562 244.785156 42.070312 286.683594 93.710938 286.683594 C 95.742188 286.683594 97.746094 286.589844 99.753906 286.472656 C 117.363281 311.679688 146.566406 328.183594 179.617188 328.183594 C 191.046875 328.183594 202.011719 326.199219 212.203125 322.582031 C 211.527344 337.65625 207.933594 371.851562 189.296875 383.847656 C 189.296875 383.847656 261.023438 379.996094 287.542969 319.964844 C 290.902344 320.246094 294.285156 320.410156 297.714844 320.410156 C 364.585938 320.410156 418.820312 266.140625 418.820312 199.226562 C 418.820312 132.285156 364.585938 78.039062 297.714844 78.039062"/></g><path fill="#FFF" d="M 153.632812 198.128906 C 153.632812 210.289062 143.765625 220.160156 131.589844 220.160156 C 119.4375 220.160156 109.574219 210.289062 109.574219 198.128906 C 109.574219 185.945312 119.4375 176.070312 131.589844 176.070312 C 143.765625 176.070312 153.632812 185.945312 153.632812 198.128906"/><path fill="#FFF" d="M 231.539062 198.128906 C 231.539062 210.289062 221.671875 220.160156 209.519531 220.160156 C 197.367188 220.160156 187.503906 210.289062 187.503906 198.128906 C 187.503906 185.945312 197.367188 176.070312 209.519531 176.070312 C 221.671875 176.070312 231.539062 185.945312 231.539062 198.128906"/><path fill="#FFF" d="M 309.46875 198.128906 C 309.46875 210.289062 299.601562 220.160156 287.449219 220.160156 C 275.273438 220.160156 265.410156 210.289062 265.410156 198.128906 C 265.410156 185.945312 275.273438 176.070312 287.449219 176.070312 C 299.601562 176.070312 309.46875 185.945312 309.46875 198.128906"/></svg>