<svg xmlns="http://www.w3.org/2000/svg" width="375" viewBox="0 0 375 375" height="375" version="1.0"><defs><clipPath id="a"><path d="M 190 69 L 368.925781 69 L 368.925781 271 L 190 271 Z M 190 69"/></clipPath><clipPath id="b"><path d="M 12.675781 19.371094 L 262 19.371094 L 262 222 L 12.675781 222 Z M 12.675781 19.371094"/></clipPath></defs><g clip-path="url(#a)"><path fill="#011D45" d="M 190.496094 158.878906 C 190.496094 109.703125 230.394531 69.835938 279.644531 69.835938 C 328.878906 69.835938 368.78125 109.703125 368.78125 158.878906 C 368.78125 200.351562 340.402344 235.179688 302 245.097656 C 307.191406 254.519531 314.65625 264.90625 324.214844 270.109375 C 324.214844 270.109375 277.59375 273.652344 252.929688 243.855469 C 216.738281 232.511719 190.496094 198.757812 190.496094 158.878906"/></g><path fill="#FFF" d="M 324.035156 134.753906 L 230.035156 134.753906 C 226.613281 134.753906 223.832031 131.988281 223.832031 128.570312 C 223.832031 125.152344 226.613281 122.386719 230.035156 122.386719 L 324.035156 122.386719 C 327.453125 122.386719 330.222656 125.152344 330.222656 128.570312 C 330.222656 131.988281 327.453125 134.753906 324.035156 134.753906"/><path fill="#FFF" d="M 324.035156 164.316406 L 230.035156 164.316406 C 226.613281 164.316406 223.832031 161.546875 223.832031 158.132812 C 223.832031 154.714844 226.613281 151.949219 230.035156 151.949219 L 324.035156 151.949219 C 327.453125 151.949219 330.222656 154.714844 330.222656 158.132812 C 330.222656 161.546875 327.453125 164.316406 324.035156 164.316406"/><path fill="#FFF" d="M 324.035156 193.875 L 230.035156 193.875 C 226.613281 193.875 223.832031 191.09375 223.832031 187.679688 C 223.832031 184.277344 226.613281 181.507812 230.035156 181.507812 L 324.035156 181.507812 C 327.453125 181.507812 330.222656 184.277344 330.222656 187.679688 C 330.222656 191.09375 327.453125 193.875 324.035156 193.875"/><g clip-path="url(#b)"><path fill="#FC9720" d="M 189.441406 39.941406 C 185.46875 39.941406 181.574219 40.261719 177.78125 40.882812 C 167.628906 27.839844 151.769531 19.441406 133.945312 19.441406 C 110.484375 19.441406 90.429688 33.964844 82.300781 54.496094 C 77.828125 53.347656 73.132812 52.722656 68.3125 52.722656 C 37.648438 52.722656 12.808594 77.539062 12.808594 108.152344 C 12.808594 138.765625 37.648438 163.59375 68.3125 163.59375 C 69.519531 163.59375 70.710938 163.539062 71.902344 163.472656 C 82.355469 178.410156 99.695312 188.191406 119.320312 188.191406 C 126.109375 188.191406 132.617188 187.015625 138.667969 184.871094 C 138.269531 193.808594 136.136719 214.070312 125.070312 221.183594 C 125.070312 221.183594 167.65625 218.898438 183.402344 183.320312 C 185.398438 183.488281 187.40625 183.585938 189.441406 183.585938 C 229.148438 183.585938 261.351562 151.421875 261.351562 111.761719 C 261.351562 72.089844 229.148438 39.941406 189.441406 39.941406"/></g><path fill="#FFF" d="M 103.894531 111.113281 C 103.894531 118.320312 98.035156 124.171875 90.804688 124.171875 C 83.589844 124.171875 77.730469 118.320312 77.730469 111.113281 C 77.730469 103.890625 83.589844 98.042969 90.804688 98.042969 C 98.035156 98.042969 103.894531 103.890625 103.894531 111.113281"/><path fill="#FFF" d="M 150.152344 111.113281 C 150.152344 118.320312 144.292969 124.171875 137.078125 124.171875 C 129.859375 124.171875 124.003906 118.320312 124.003906 111.113281 C 124.003906 103.890625 129.859375 98.042969 137.078125 98.042969 C 144.292969 98.042969 150.152344 103.890625 150.152344 111.113281"/><path fill="#FFF" d="M 196.421875 111.113281 C 196.421875 118.320312 190.5625 124.171875 183.347656 124.171875 C 176.117188 124.171875 170.261719 118.320312 170.261719 111.113281 C 170.261719 103.890625 176.117188 98.042969 183.347656 98.042969 C 190.5625 98.042969 196.421875 103.890625 196.421875 111.113281"/></svg>