<svg xmlns="http://www.w3.org/2000/svg" width="375" viewBox="0 0 375 375" height="375" version="1.0"><defs><clipPath id="a"><path d="M 14.476562 52.605469 L 364.695312 52.605469 L 364.695312 264.726562 L 14.476562 264.726562 Z M 14.476562 52.605469"/></clipPath><clipPath id="b"><path d="M 60.433594 29.3125 L 351.507812 29.3125 L 351.507812 337.558594 L 60.433594 337.558594 Z M 60.433594 29.3125"/></clipPath><clipPath id="c"><path d="M 60 29.3125 L 351.507812 29.3125 L 351.507812 337.558594 L 60 337.558594 Z M 60 29.3125"/></clipPath></defs><g clip-path="url(#a)"><path fill="#16A795" d="M 82.511719 132.628906 C 82.820312 135.023438 81.53125 137.351562 79.265625 138.332031 L 51.753906 138.332031 C 49.792969 137.535156 48.382812 136.0625 47.832031 134.46875 L 19.523438 134.46875 C 16.394531 133 14.433594 129.75 14.679688 126.316406 C 14.863281 123.375 16.640625 120.796875 19.335938 119.449219 C 19.765625 114.789062 23.136719 110.929688 27.363281 110.191406 C 31.777344 109.457031 35.023438 112.277344 36.066406 113.320312 C 40.109375 107.800781 46.542969 104.796875 52.613281 105.777344 C 56.960938 106.453125 61.066406 109.148438 63.765625 113.195312 C 65.050781 115.097656 65.910156 117.179688 66.398438 119.328125 C 71.546875 119.328125 76.261719 122.882812 77.796875 128.03125 C 80.183594 128.339844 82.144531 130.238281 82.511719 132.628906 Z M 364.640625 84.628906 C 364.273438 81.808594 361.941406 79.601562 359.125 79.234375 C 357.226562 72.917969 351.28125 68.625 344.90625 68.996094 C 344.664062 68.996094 344.417969 69.054688 344.171875 69.054688 C 343.683594 66.480469 342.578125 63.84375 341.046875 61.515625 C 337.921875 56.855469 333.328125 53.789062 328.300781 52.992188 C 321.375 51.949219 313.960938 55.324219 309.367188 61.699219 C 308.261719 60.597656 304.523438 57.222656 299.4375 58.082031 C 294.535156 58.9375 290.738281 63.355469 290.246094 68.625 C 287.183594 70.160156 285.101562 73.101562 284.855469 76.472656 C 284.609375 80.335938 286.816406 84.074219 290.429688 85.730469 L 323.765625 85.730469 C 324.011719 87.9375 325.910156 90.082031 328.546875 91.1875 L 360.902344 91.1875 C 363.476562 90.144531 365.007812 87.386719 364.640625 84.628906 Z M 164.933594 259.84375 C 164.320312 254.019531 162.726562 245.496094 158.316406 236.117188 C 154.699219 228.453125 150.347656 222.691406 146.855469 218.765625 C 122.589844 189.402344 120.628906 148.9375 140.484375 121.410156 C 163.15625 89.960938 203.230469 90.695312 206.664062 90.820312 C 235.28125 90.941406 261.445312 106.332031 274.191406 130.851562 C 282.035156 145.933594 283.445312 163.589844 280.136719 180.082031 C 277.992188 190.6875 274.007812 201.417969 267.636719 210.429688 C 260.710938 220.300781 250.046875 226.308594 243.0625 236.117188 C 236.691406 245.066406 233.808594 254.140625 232.339844 260.394531 C 224.433594 262.476562 214.078125 264.441406 201.824219 264.625 C 186.5625 264.929688 173.878906 262.417969 164.933594 259.84375"/></g><g clip-path="url(#b)"><path fill="#FFF" d="M 105.308594 194.242188 C 105.003906 193.816406 104.878906 193.324219 105.003906 192.894531 C 105.1875 192.097656 106.105469 191.609375 107.085938 191.667969 C 107.820312 191.054688 108.433594 190.320312 108.863281 189.523438 C 109.230469 188.789062 109.539062 187.992188 109.660156 187.132812 C 109.660156 187.007812 109.78125 186.886719 109.84375 186.886719 C 109.964844 186.824219 110.089844 186.824219 110.148438 186.886719 C 110.886719 187.316406 111.683594 187.621094 112.539062 187.808594 C 113.644531 187.992188 114.746094 187.992188 115.847656 187.683594 C 116.03125 187.621094 116.214844 187.746094 116.277344 187.867188 C 116.828125 189.214844 117.136719 190.566406 117.257812 191.976562 C 117.441406 194.058594 117.75 197.246094 115.726562 198.78125 C 115.234375 199.148438 114.195312 199.699219 112.417969 199.515625 L 112.417969 204.238281 C 112.417969 204.359375 112.355469 204.480469 112.292969 204.542969 C 111.867188 204.851562 110.886719 205.464844 109.476562 205.464844 C 109.292969 205.464844 109.046875 205.464844 108.863281 205.402344 C 106.902344 205.15625 105.859375 203.746094 105.554688 203.316406 C 105.492188 203.195312 105.492188 203.070312 105.492188 202.949219 C 105.921875 202.03125 106.226562 201.050781 106.410156 200.007812 C 106.78125 198.414062 106.839844 196.695312 106.71875 195.039062 C 106.105469 194.980469 105.617188 194.671875 105.308594 194.242188 Z M 150.105469 225.386719 C 150.042969 225.449219 149.917969 225.511719 149.796875 225.449219 L 146.367188 224.160156 C 146.609375 225.203125 146.550781 225.695312 146.183594 225.878906 C 146.121094 225.941406 145.996094 225.941406 145.9375 225.941406 C 145.691406 225.941406 145.445312 225.753906 145.078125 225.511719 C 144.773438 225.328125 144.464844 225.082031 143.976562 224.835938 C 143.484375 224.589844 142.871094 224.34375 142.320312 224.222656 C 142.261719 224.222656 142.136719 224.160156 142.136719 224.039062 C 142.074219 223.976562 142.074219 223.855469 142.136719 223.792969 L 143.546875 221.035156 C 143.609375 220.972656 143.667969 220.914062 143.792969 220.851562 C 144.464844 220.789062 146.304688 220.726562 147.957031 221.953125 C 149.367188 222.996094 149.917969 224.34375 150.105469 225.082031 C 150.226562 225.203125 150.164062 225.328125 150.105469 225.386719 Z M 72.464844 225.695312 C 71.605469 225.878906 70.808594 226.125 70.074219 226.492188 C 69.398438 226.796875 68.910156 227.164062 68.542969 227.472656 C 68.113281 227.777344 67.746094 228.023438 67.441406 228.023438 C 67.316406 228.023438 67.253906 228.023438 67.132812 227.960938 C 66.703125 227.71875 66.703125 227.042969 67.011719 225.753906 L 61.003906 226.796875 C 60.882812 226.796875 60.699219 226.738281 60.636719 226.613281 C 60.578125 226.492188 60.578125 226.367188 60.636719 226.246094 C 61.738281 224.652344 63.273438 223.304688 64.988281 222.382812 C 67.191406 221.15625 69.335938 220.851562 70.746094 220.851562 C 70.933594 220.851562 71.054688 220.914062 71.117188 221.097656 L 72.769531 225.328125 C 72.832031 225.449219 72.832031 225.511719 72.769531 225.632812 C 72.648438 225.632812 72.527344 225.695312 72.464844 225.695312 Z M 120.382812 258.984375 C 118.238281 251.503906 116.03125 243.902344 113.703125 236.300781 C 113.152344 234.398438 112.539062 232.5 111.988281 230.597656 C 111.863281 230.597656 111.742188 230.539062 111.679688 230.539062 L 97.21875 226.738281 C 97.097656 226.738281 96.972656 226.675781 96.851562 226.675781 C 94.277344 230.414062 91.640625 234.214844 89.070312 237.957031 C 89.070312 238.015625 89.007812 238.015625 89.007812 238.078125 L 85.699219 250.339844 L 74.546875 238.570312 C 74.421875 238.445312 74.175781 238.445312 74.054688 238.570312 L 70.503906 241.878906 C 70.382812 242 70.382812 242.125 70.441406 242.308594 C 72.648438 247.210938 75.34375 251.933594 78.34375 256.347656 C 82.328125 262.171875 84.535156 265.421875 87.167969 265.542969 L 87.414062 265.542969 C 94.277344 265.542969 100.039062 250.277344 101.261719 246.722656 L 112.292969 263.765625 L 122.21875 289.820312 C 122.28125 289.882812 122.34375 290.003906 122.402344 290.003906 L 122.648438 290.003906 L 127.734375 287.980469 C 127.917969 287.921875 127.980469 287.738281 127.917969 287.550781 C 125.46875 278.113281 122.957031 268.546875 120.382812 258.984375 Z M 287.121094 236.117188 L 287.058594 235.992188 C 286.140625 235.195312 285.28125 234.277344 284.667969 233.234375 C 284.179688 232.4375 283.75 231.578125 283.445312 230.660156 C 283.8125 229.496094 283.320312 228.269531 282.402344 227.839844 C 281.542969 227.472656 280.746094 227.839844 280.441406 228.023438 C 279.707031 227.960938 278.96875 227.839844 278.296875 227.59375 C 277.4375 227.226562 276.640625 226.738281 275.90625 226.0625 L 275.417969 225.632812 L 275.292969 226.246094 C 275.109375 227.164062 274.742188 228.023438 274.191406 228.820312 C 273.761719 229.433594 273.210938 229.984375 272.597656 230.476562 L 272.476562 230.539062 L 272.476562 230.660156 C 272.289062 231.703125 272.289062 233.234375 273.085938 234.769531 C 274.007812 236.605469 276.089844 238.507812 278.417969 238.199219 C 279.03125 238.140625 279.644531 237.894531 280.195312 237.527344 L 281.726562 238.9375 C 282.09375 239.609375 282.707031 240.164062 283.503906 240.40625 C 283.8125 240.53125 284.117188 240.53125 284.484375 240.53125 C 284.976562 240.53125 285.464844 240.40625 285.894531 240.164062 C 287.304688 239.488281 287.917969 237.648438 287.121094 236.117188 Z M 330.503906 248.011719 C 332.835938 248.683594 335.222656 249.113281 337.613281 249.234375 C 338.472656 249.296875 339.207031 249.296875 339.820312 249.296875 C 341.964844 249.296875 342.824219 249.050781 343.007812 248.4375 C 343.128906 247.824219 342.761719 247.027344 336.570312 244.636719 C 338.347656 243.472656 338.59375 242.984375 338.410156 242.554688 C 338.226562 242.125 337.980469 241.574219 330.503906 243.78125 C 330.382812 243.839844 330.261719 243.964844 330.261719 244.148438 L 330.261719 247.703125 C 330.261719 247.824219 330.382812 248.011719 330.503906 248.011719 Z M 257.460938 263.273438 C 256.417969 263.03125 255.5 262.847656 254.765625 262.664062 L 254.214844 262.539062 C 252.804688 262.171875 252.253906 262.050781 251.578125 262.234375 C 250.78125 262.417969 250.046875 262.96875 249.433594 263.828125 C 249.371094 263.886719 249.371094 264.011719 249.371094 264.132812 C 249.371094 264.257812 249.433594 264.316406 249.558594 264.378906 L 253.050781 266.15625 C 252.496094 267.382812 252.375 268.117188 252.804688 268.546875 C 252.925781 268.671875 253.109375 268.730469 253.355469 268.730469 C 253.664062 268.730469 254.152344 268.609375 254.949219 268.425781 C 255.253906 268.363281 255.5625 268.242188 255.992188 268.179688 C 256.605469 267.996094 257.15625 267.875 257.523438 267.8125 C 257.707031 267.75 257.769531 267.628906 257.769531 267.445312 L 257.769531 263.703125 C 257.769531 263.460938 257.644531 263.335938 257.460938 263.273438 Z M 351.035156 260.515625 C 350.972656 259.902344 350.851562 258.921875 334.980469 259.597656 L 334.734375 259.597656 L 334.671875 259.84375 C 333.445312 264.195312 332.527344 268.671875 331.855469 273.144531 C 331.425781 276.148438 331.058594 279.152344 330.875 282.21875 L 325.726562 279.707031 C 326.15625 278.910156 326.523438 278.050781 326.953125 277.128906 C 327.320312 276.273438 327.011719 275.230469 326.277344 274.679688 L 305.136719 259.65625 L 304.953125 259.84375 C 302.746094 261.679688 300.417969 263.335938 298.027344 264.808594 C 296.003906 266.035156 293.859375 267.199219 291.65625 268.179688 L 291.472656 268.300781 L 291.839844 293.191406 C 291.839844 293.867188 292.207031 294.480469 292.757812 294.847656 C 293.125 295.09375 293.492188 295.214844 293.859375 295.214844 C 294.105469 295.214844 294.351562 295.15625 294.597656 295.09375 C 294.78125 295.03125 294.964844 294.972656 295.148438 294.910156 L 294.105469 301.898438 L 297.292969 332.246094 C 287.917969 334.882812 287.304688 335.800781 287.367188 336.535156 C 287.425781 336.964844 287.550781 337.578125 292.269531 337.578125 C 294.472656 337.578125 297.660156 337.457031 302.378906 337.089844 L 302.683594 337.089844 L 304.21875 301.46875 L 304.890625 291.84375 C 307.035156 291.355469 308.8125 290.984375 310.34375 290.742188 C 313.226562 290.25 315.308594 289.882812 317.636719 288.59375 C 318.25 288.289062 318.800781 287.921875 319.351562 287.550781 C 321.191406 289.636719 323.398438 291.292969 325.847656 292.457031 C 327.933594 293.4375 330.078125 294.480469 332.097656 294.480469 C 332.710938 294.480469 333.324219 294.359375 333.9375 294.113281 C 338.105469 292.457031 338.65625 285.222656 339.269531 276.886719 C 339.574219 272.839844 339.574219 268.792969 339.269531 264.808594 C 351.21875 261.925781 351.09375 261.066406 351.035156 260.515625 Z M 184.847656 50.847656 C 185.519531 52.136719 185.886719 53.546875 186.011719 54.953125 C 186.070312 56.058594 185.949219 57.164062 185.703125 58.203125 L 185.703125 58.449219 C 186.195312 59.550781 187.296875 60.351562 188.523438 60.351562 L 188.644531 60.351562 C 189.808594 60.289062 190.851562 59.550781 191.34375 58.449219 C 191.402344 58.390625 191.402344 58.265625 191.34375 58.203125 C 190.851562 56.917969 190.851562 55.9375 191.28125 55.324219 C 191.585938 54.894531 191.953125 54.832031 192.445312 54.710938 C 192.933594 54.589844 193.488281 54.464844 194.039062 54.035156 C 195.9375 52.441406 195.386719 48.949219 194.957031 46.128906 C 194.773438 45.023438 194.527344 43.980469 194.222656 42.941406 C 194.222656 42.816406 194.101562 42.753906 194.039062 42.753906 C 193.976562 42.691406 193.855469 42.691406 193.730469 42.753906 C 192.507812 43.246094 191.160156 43.429688 189.808594 43.429688 C 188.585938 43.429688 187.296875 43.183594 186.132812 42.753906 C 186.011719 42.691406 185.886719 42.753906 185.765625 42.816406 C 185.644531 42.878906 185.644531 43.0625 185.703125 43.183594 C 185.886719 43.738281 186.195312 44.777344 185.828125 45.941406 C 185.703125 46.433594 185.460938 46.925781 185.152344 47.355469 C 184.355469 47.476562 183.683594 48.089844 183.558594 48.949219 C 183.5 49.742188 184.050781 50.542969 184.847656 50.847656 Z M 245.636719 125.886719 L 227.679688 102.46875 L 227.558594 102.34375 L 200.65625 89.347656 C 200.59375 89.347656 200.535156 89.285156 200.472656 89.285156 L 180.191406 91.433594 C 180.003906 91.433594 179.882812 91.617188 179.882812 91.800781 L 179.882812 104.0625 C 179.882812 104.183594 179.945312 104.246094 180.003906 104.308594 L 204.515625 124.539062 L 215.058594 147.652344 C 215.117188 147.773438 215.242188 147.835938 215.363281 147.835938 L 215.425781 147.835938 L 221.796875 146.671875 C 221.921875 146.671875 221.980469 146.609375 222.042969 146.484375 C 222.105469 146.425781 222.105469 146.300781 222.105469 146.179688 L 215.117188 118.40625 C 215.117188 118.347656 215.058594 118.285156 215.058594 118.222656 L 201.820312 104.367188 L 221.613281 110.191406 L 240.671875 132.261719 C 240.734375 132.324219 240.855469 132.386719 240.976562 132.386719 C 241.101562 132.386719 241.160156 132.324219 241.222656 132.261719 L 245.820312 126.132812 C 245.695312 126.132812 245.695312 126.007812 245.636719 125.886719 Z M 206.171875 60.59375 L 210.277344 57.160156 C 210.339844 57.097656 210.339844 57.097656 210.398438 57.039062 L 218.488281 36.992188 C 220.386719 36.6875 222.105469 35.886719 223.453125 34.722656 C 224.066406 34.171875 226.085938 32.332031 225.472656 31.351562 C 225.105469 30.738281 224.003906 30.492188 218.425781 32.640625 C 218.488281 29.941406 218.242188 29.695312 217.875 29.636719 C 217.386719 29.574219 217.019531 29.816406 215.792969 34.234375 L 205.558594 52.257812 L 201.882812 55.382812 C 201.757812 55.445312 201.757812 55.628906 201.757812 55.75 C 202.128906 56.976562 202.679688 58.019531 203.476562 59 C 204.089844 59.734375 204.761719 60.347656 205.621094 60.839844 C 205.679688 60.902344 205.742188 60.902344 205.804688 60.902344 C 205.863281 60.902344 205.988281 60.902344 206.050781 60.839844 L 206.171875 60.59375 M 172.101562 57.957031 C 171.121094 57.835938 170.140625 57.652344 169.160156 57.53125 L 152.492188 43.488281 C 148.386719 37.972656 147.957031 38.277344 147.527344 38.523438 C 147.222656 38.707031 147.097656 39.136719 147.589844 40.671875 C 142.320312 38.585938 141.828125 39.382812 141.585938 39.75 C 141.460938 39.996094 141.398438 40.300781 141.523438 40.671875 C 141.953125 41.898438 143.789062 43.796875 145.996094 44.714844 C 146.976562 45.144531 148.078125 45.328125 149.183594 45.328125 L 163.523438 62.1875 C 163.582031 62.25 163.582031 62.25 163.644531 62.308594 C 165.542969 62.921875 167.445312 63.535156 169.28125 64.148438 L 169.648438 63.90625 L 169.894531 63.414062 C 170.199219 62.800781 171.058594 61.085938 171.121094 61.023438 C 171.488281 60.347656 171.855469 59.371094 172.101562 57.957031 Z M 214.628906 178.363281 C 216.710938 180.328125 220.941406 178.734375 226.148438 176.832031 C 229.210938 175.730469 248.636719 168.617188 248.515625 154.761719 C 248.453125 147.773438 243.429688 139.191406 237.484375 138.699219 C 224.984375 137.65625 208.4375 172.539062 214.628906 178.363281 Z M 175.289062 176.710938 C 173.203125 178.671875 168.976562 177.078125 163.765625 175.175781 C 160.703125 174.074219 141.277344 166.960938 141.398438 153.105469 C 141.460938 146.117188 146.484375 137.535156 152.429688 137.042969 C 164.992188 136.003906 181.476562 170.886719 175.289062 176.710938"/></g><path fill="#011D45" d="M 250.355469 215.457031 C 249.128906 216.683594 242.757812 223.242188 238.039062 234.15625 C 235.28125 240.589844 233.625 247.457031 233.011719 254.753906 C 220.265625 257.820312 207.152344 259.289062 194.039062 259.167969 C 181.96875 259.105469 169.898438 257.636719 158.132812 254.875 C 157.824219 252.546875 157.335938 250.277344 156.84375 248.011719 L 178.660156 201.171875 C 178.90625 200.621094 178.660156 200.007812 178.167969 199.761719 C 177.617188 199.515625 177.003906 199.761719 176.757812 200.253906 L 173.207031 207.914062 L 144.527344 207.914062 L 148.632812 198.84375 C 148.878906 198.289062 148.632812 197.675781 148.082031 197.433594 C 147.53125 197.1875 146.917969 197.433594 146.671875 197.984375 L 141.832031 208.589844 L 139.503906 213.679688 L 139.257812 213.433594 C 115.296875 184.433594 112.664062 144.585938 132.882812 116.507812 C 155.3125 85.484375 194.347656 85.914062 198.757812 86.097656 C 227.5 86.21875 253.296875 101.488281 265.980469 125.886719 C 281.179688 154.824219 274.683594 191.609375 250.355469 215.457031 Z M 225.722656 271.550781 C 216.160156 273.328125 206.355469 274.25 196.613281 274.25 L 196 274.25 C 186.503906 274.1875 176.882812 273.328125 167.507812 271.613281 C 167.140625 271.550781 166.894531 271.183594 166.957031 270.816406 C 167.015625 270.449219 167.382812 270.203125 167.75 270.265625 C 177.066406 271.980469 186.5625 272.902344 196 272.902344 C 205.867188 272.960938 215.734375 272.042969 225.414062 270.265625 C 225.78125 270.203125 226.148438 270.449219 226.210938 270.816406 C 226.332031 271.121094 226.089844 271.492188 225.722656 271.550781 Z M 224.984375 283.628906 C 215.425781 285.40625 205.621094 286.328125 195.878906 286.328125 L 195.265625 286.328125 C 185.769531 286.265625 176.148438 285.40625 166.769531 283.691406 C 166.402344 283.628906 166.160156 283.261719 166.21875 282.894531 C 166.28125 282.527344 166.648438 282.28125 167.015625 282.339844 C 176.332031 284.058594 185.828125 284.976562 195.265625 284.976562 C 205.132812 285.039062 214.996094 284.121094 224.679688 282.339844 C 225.046875 282.28125 225.414062 282.527344 225.476562 282.894531 C 225.660156 283.199219 225.414062 283.566406 224.984375 283.628906 Z M 224.679688 295.644531 C 215.121094 297.421875 205.316406 298.34375 195.570312 298.34375 L 194.960938 298.34375 C 185.460938 298.28125 175.839844 297.421875 166.464844 295.707031 C 166.097656 295.644531 165.851562 295.277344 165.914062 294.910156 C 165.976562 294.542969 166.34375 294.296875 166.710938 294.359375 C 176.023438 296.074219 185.523438 296.992188 194.960938 296.992188 C 204.765625 296.992188 214.691406 296.136719 224.375 294.359375 C 224.742188 294.296875 225.109375 294.542969 225.167969 294.910156 C 225.292969 295.214844 225.046875 295.582031 224.679688 295.644531 Z M 153.65625 249.910156 L 125.410156 249.910156 L 131.230469 237.160156 L 152.859375 237.160156 C 153.964844 239.980469 154.882812 242.800781 155.617188 245.742188 Z M 147.714844 262.601562 L 119.585938 262.601562 L 124.429688 251.996094 L 152.675781 251.996094 Z M 140.972656 277.070312 L 113.03125 277.070312 L 118.667969 264.746094 L 146.734375 264.746094 Z M 134.84375 290.3125 L 107.023438 290.3125 L 112.050781 279.214844 L 139.992188 279.214844 Z M 128.042969 304.902344 L 100.34375 304.902344 L 106.042969 292.457031 L 133.863281 292.457031 Z M 121.976562 317.898438 L 94.460938 317.898438 L 99.425781 306.988281 L 127.0625 306.988281 Z M 137.050781 224.222656 L 146.367188 224.222656 C 147.589844 226.246094 148.9375 228.574219 150.164062 231.152344 C 150.777344 232.4375 151.328125 233.726562 151.878906 235.011719 L 132.148438 235.011719 Z M 140.726562 216.191406 C 141.890625 217.664062 143.425781 219.625 145.015625 222.078125 L 138.03125 222.078125 Z M 145.875 222.078125 C 144.035156 219.257812 142.320312 216.988281 141.035156 215.457031 L 143.484375 210.0625 L 172.164062 210.0625 L 166.585938 222.078125 Z M 159.601562 237.160156 L 156.046875 244.761719 C 155.375 242.1875 154.515625 239.609375 153.597656 237.160156 Z M 152.738281 235.011719 C 152.125 233.601562 151.511719 232.191406 150.839844 230.78125 C 149.675781 228.332031 148.449219 226.125 147.222656 224.160156 L 165.605469 224.160156 L 160.582031 234.953125 Z M 266.714844 125.582031 C 253.847656 100.933594 227.867188 85.546875 198.882812 85.363281 C 194.46875 85.179688 155.003906 84.75 132.394531 116.078125 C 122.652344 129.566406 117.871094 146.671875 118.972656 164.265625 C 120.078125 182.042969 127.0625 199.640625 138.765625 213.863281 L 139.195312 214.351562 L 135.398438 222.691406 L 129.515625 235.625 L 122.773438 250.523438 L 110.394531 277.683594 L 97.710938 305.515625 L 91.765625 318.511719 L 88.273438 326.113281 C 88.027344 326.667969 88.273438 327.28125 88.824219 327.523438 C 88.949219 327.585938 89.132812 327.648438 89.253906 327.648438 C 89.683594 327.648438 90.050781 327.402344 90.234375 327.035156 L 93.421875 319.984375 L 120.933594 319.984375 L 118.054688 326.113281 C 117.808594 326.667969 118.054688 327.28125 118.546875 327.523438 C 118.667969 327.585938 118.851562 327.648438 118.972656 327.648438 C 119.402344 327.648438 119.769531 327.402344 119.953125 327.035156 L 156.292969 249.050781 C 156.722656 250.953125 157.089844 252.851562 157.335938 254.816406 C 157.210938 254.816406 157.089844 254.753906 156.964844 254.753906 L 156.964844 304.472656 C 163.035156 307.96875 175.289062 313.976562 191.835938 314.648438 C 212.054688 315.507812 227.007812 307.96875 233.074219 304.472656 C 233.195312 297.421875 233.320312 290.3125 233.441406 283.261719 C 232.707031 284.425781 231.847656 285.34375 231.175781 285.222656 C 229.519531 284.792969 229.273438 277.375 230.867188 276.824219 C 231.542969 276.640625 232.460938 277.558594 233.503906 278.910156 C 233.625 270.878906 233.808594 262.847656 233.933594 254.753906 C 233.808594 254.753906 233.6875 254.816406 233.566406 254.816406 C 234.117188 247.640625 235.769531 240.777344 238.527344 234.398438 C 243.1875 223.546875 249.4375 217.113281 250.660156 215.886719 C 275.417969 191.914062 281.914062 154.761719 266.714844 125.582031"/><path fill="#011D45" d="M 304.710938 232.988281 C 304.710938 234.707031 303.359375 236.484375 301.460938 237.160156 C 299.808594 237.773438 297.601562 237.464844 296.558594 236.117188 C 294.964844 234.09375 296.988281 230.84375 295.640625 229.925781 C 294.78125 229.371094 293.679688 230.597656 291.839844 230.476562 C 289.820312 230.355469 288.226562 228.515625 287.246094 226.921875 C 287.429688 227.71875 287.671875 229.371094 287.183594 231.335938 C 286.753906 233.050781 285.898438 234.277344 285.34375 234.890625 C 284.976562 234.460938 284.671875 234.03125 284.304688 233.480469 C 283.628906 232.4375 283.261719 231.519531 283.015625 230.722656 C 283.445312 229.679688 282.957031 228.574219 282.160156 228.207031 C 281.363281 227.839844 280.503906 228.390625 280.441406 228.390625 C 279.890625 228.390625 279.035156 228.269531 278.113281 227.902344 C 276.890625 227.410156 276.09375 226.738281 275.601562 226.308594 C 275.480469 226.921875 275.171875 227.960938 274.4375 229.003906 C 273.824219 229.863281 273.210938 230.414062 272.722656 230.722656 C 272.660156 231.273438 272.539062 232.191406 272.78125 233.296875 C 271.988281 232.988281 269.597656 231.824219 268.859375 229.554688 C 267.878906 226.429688 270.210938 222.015625 275.234375 220.054688 C 275.171875 216.4375 276.765625 213.433594 279.277344 212.390625 C 281.238281 211.59375 283.199219 212.207031 283.691406 212.390625 C 287.304688 213.617188 286.9375 216.804688 290.125 218.460938 C 294.046875 220.484375 297.601562 217.296875 299.4375 219.316406 C 300.972656 220.972656 298.582031 223.242188 299.992188 226.796875 C 301.460938 230.230469 304.710938 230.414062 304.710938 232.988281 Z M 194.53125 44.289062 C 194.46875 44.410156 194.347656 44.53125 194.285156 44.65625 C 194.164062 43.980469 193.980469 43.429688 193.855469 43.0625 C 193 43.367188 191.589844 43.796875 189.8125 43.738281 C 188.15625 43.738281 186.871094 43.367188 186.011719 43.0625 C 186.195312 43.550781 186.5625 44.65625 186.136719 46.066406 C 185.953125 46.800781 185.582031 47.351562 185.277344 47.722656 C 184.542969 47.722656 183.992188 48.273438 183.867188 49.007812 C 183.808594 49.742188 184.296875 50.417969 185.03125 50.601562 C 185.523438 51.460938 186.195312 52.992188 186.320312 55.015625 L 186.320312 55.566406 C 180.496094 53.667969 177.617188 48.457031 178.71875 44.714844 C 179.699219 41.589844 183.253906 40.242188 183.867188 39.996094 C 184.972656 37.480469 187.238281 35.828125 189.8125 35.703125 C 192.386719 35.640625 195.570312 37.238281 196 39.996094 C 196.429688 42.140625 194.777344 43.980469 194.53125 44.289062 Z M 120.507812 219.257812 C 120.382812 219.992188 120.199219 220.667969 120.015625 221.339844 C 118.484375 225.695312 114.808594 227.960938 112.664062 228.882812 C 114.070312 225.140625 115.480469 221.464844 116.828125 217.722656 Z M 118.359375 185.476562 C 117.808594 187.378906 117.195312 189.277344 116.644531 191.179688 C 116.460938 189.769531 116.09375 188.664062 115.789062 187.867188 C 115.113281 188.050781 113.828125 188.296875 112.355469 187.992188 C 111.253906 187.808594 110.394531 187.378906 109.84375 187.007812 C 109.722656 187.621094 109.539062 188.542969 108.984375 189.523438 C 108.371094 190.6875 107.515625 191.484375 107.023438 191.851562 C 106.105469 191.730469 105.308594 192.222656 105.1875 192.832031 C 105.003906 193.570312 105.675781 194.613281 106.839844 194.671875 C 107.023438 196.023438 107.023438 197.859375 106.597656 200.007812 C 106.351562 201.171875 105.984375 202.152344 105.617188 203.011719 L 99.121094 201.90625 L 90.050781 210.246094 C 89.5 209.019531 89.191406 207.730469 89.683594 206.199219 C 90.847656 202.644531 94.339844 203.195312 96.179688 199.085938 C 97.832031 195.285156 95.441406 193.570312 96.914062 189.644531 C 98.382812 185.785156 102.367188 183.269531 105.984375 182.410156 C 112.722656 180.757812 117.871094 184.988281 118.359375 185.476562 Z M 92.257812 218.277344 C 91.214844 223.976562 84.597656 225.753906 85.332031 229.496094 C 85.824219 231.824219 88.765625 233.359375 91.828125 234.214844 L 96.792969 226.613281 L 97.28125 214.597656 Z M 116.707031 191.792969 C 116.707031 191.546875 116.644531 191.300781 116.644531 191.117188 C 117.195312 191.976562 118.605469 194.121094 118.484375 197.125 C 118.359375 201.171875 115.726562 203.867188 114.441406 204.910156 L 111.867188 203.992188 L 111.867188 198.902344 C 113.886719 199.210938 114.929688 198.535156 115.296875 198.289062 C 117.136719 196.878906 116.890625 193.816406 116.707031 191.792969"/><path fill="#011D45" d="M 49.484375 133.425781 L 76.816406 133.425781 C 78.960938 132.507812 80.183594 130.300781 79.878906 128.03125 C 79.570312 125.765625 77.734375 123.988281 75.464844 123.679688 L 75.28125 123.679688 L 75.222656 123.496094 C 73.75 118.53125 69.15625 115.035156 64.128906 115.035156 L 63.886719 115.035156 L 63.824219 114.789062 C 63.335938 112.707031 62.417969 110.621094 61.191406 108.78125 C 58.492188 104.796875 54.511719 102.160156 50.285156 101.488281 C 44.398438 100.566406 38.027344 103.511719 34.042969 108.90625 L 33.859375 109.210938 L 33.617188 108.964844 C 32.695312 108.046875 29.507812 105.226562 25.21875 105.960938 C 21.113281 106.636719 17.804688 110.4375 17.4375 114.914062 L 17.4375 115.097656 L 17.253906 115.160156 C 14.679688 116.445312 12.964844 118.960938 12.71875 121.78125 C 12.476562 125.027344 14.371094 128.15625 17.378906 129.566406 L 45.808594 129.566406 L 45.871094 129.75 C 46.359375 131.34375 47.710938 132.691406 49.488281 133.425781 Z M 76.9375 134.101562 L 49.300781 134.039062 C 47.402344 133.242188 45.929688 131.832031 45.320312 130.238281 L 17.070312 130.238281 C 13.824219 128.707031 11.800781 125.335938 12.042969 121.839844 C 12.226562 118.898438 14.066406 116.199219 16.765625 114.789062 C 17.253906 110.132812 20.746094 106.207031 25.035156 105.472656 C 29.265625 104.734375 32.511719 107.3125 33.738281 108.414062 C 37.84375 102.957031 44.339844 100.078125 50.34375 100.996094 C 54.816406 101.671875 58.921875 104.429688 61.679688 108.539062 C 62.90625 110.375 63.824219 112.398438 64.316406 114.546875 C 69.464844 114.667969 74.117188 118.222656 75.710938 123.25 C 78.164062 123.679688 80.125 125.640625 80.492188 128.09375 C 80.859375 130.609375 79.449219 133.121094 77.058594 134.101562 Z M 326.277344 86.40625 L 358.449219 86.40625 C 360.960938 85.363281 362.433594 82.726562 362.066406 80.089844 C 361.699219 77.394531 359.554688 75.308594 356.796875 75.003906 L 356.613281 75.003906 L 356.550781 74.820312 C 354.710938 68.625 348.890625 64.394531 342.640625 64.824219 C 342.457031 64.824219 342.210938 64.886719 342.027344 64.886719 L 341.660156 64.949219 L 341.597656 64.640625 C 341.109375 62.066406 340.003906 59.492188 338.472656 57.222656 C 335.410156 52.6875 330.875 49.621094 325.972656 48.886719 C 319.171875 47.84375 311.878906 51.214844 307.34375 57.46875 L 307.160156 57.773438 L 306.914062 57.53125 C 305.875 56.488281 302.195312 53.175781 297.234375 53.972656 C 292.515625 54.773438 288.714844 59.125 288.285156 64.273438 L 288.285156 64.457031 L 288.101562 64.519531 C 285.101562 65.988281 283.140625 68.871094 282.894531 72.121094 C 282.648438 75.796875 284.792969 79.417969 288.226562 81.070312 L 321.746094 81.070312 L 321.804688 81.316406 C 321.988281 83.339844 323.765625 85.363281 326.277344 86.40625 Z M 358.574219 87.019531 L 326.09375 86.957031 C 323.460938 85.855469 321.5625 83.769531 321.191406 81.5625 L 287.980469 81.5625 C 284.304688 79.84375 281.976562 75.984375 282.28125 71.996094 C 282.527344 68.625 284.546875 65.5625 287.671875 63.96875 C 288.226562 58.632812 292.148438 54.160156 297.109375 53.300781 C 302.011719 52.5 305.75 55.445312 307.097656 56.734375 C 311.816406 50.480469 319.230469 47.109375 326.09375 48.210938 C 331.179688 49.007812 335.898438 52.136719 339.023438 56.855469 C 340.558594 59.125 341.597656 61.636719 342.148438 64.273438 C 342.273438 64.273438 342.457031 64.210938 342.578125 64.210938 C 349.011719 63.785156 355.078125 68.074219 357.039062 74.449219 C 359.921875 74.878906 362.1875 77.148438 362.617188 80.089844 C 363.046875 83.03125 361.390625 85.914062 358.574219 87.019531"/><path fill="#011D45" d="M 240.734375 132.203125 L 244.535156 135.390625 C 248.515625 131.28125 252.4375 127.175781 256.421875 123.003906 C 255.625 122.453125 254.460938 121.839844 253.113281 121.964844 C 251.519531 122.148438 250.722656 123.3125 248.394531 124.90625 C 247.351562 125.640625 246.066406 126.378906 244.535156 127.113281 Z M 215.242188 147.46875 C 215.671875 149.121094 216.101562 150.777344 216.53125 152.433594 C 222.414062 151.328125 228.234375 150.226562 234.117188 149.121094 C 233.75 148.140625 233.011719 146.730469 231.726562 146.179688 C 230.195312 145.566406 228.90625 146.484375 226.394531 146.792969 C 225.109375 146.976562 223.207031 147.039062 220.695312 146.484375 Z M 252.683594 270.691406 C 254.03125 268.058594 253.847656 265.113281 252.253906 263.519531 C 251.089844 262.355469 248.699219 261.3125 247.351562 262.417969 C 246.496094 263.152344 246.1875 264.683594 246.617188 266.15625 C 246.679688 266.277344 246.617188 266.402344 246.554688 266.464844 C 248.578125 267.933594 250.660156 269.285156 252.683594 270.691406 Z M 257.035156 273.636719 C 256.175781 275.351562 255.074219 277.191406 253.726562 279.09375 C 252.316406 281.175781 250.84375 282.894531 249.496094 284.363281 C 248.332031 283.566406 247.105469 282.769531 245.941406 282.035156 L 233.625 281.789062 C 233.074219 283.015625 232.523438 283.8125 232.15625 283.75 C 231.234375 283.566406 231.050781 278.539062 231.972656 278.296875 C 232.402344 278.171875 233.011719 278.96875 233.6875 280.132812 C 236.015625 279.523438 238.34375 278.847656 240.613281 278.234375 C 239.449219 277.128906 238.222656 276.027344 237.058594 274.921875 C 237.671875 273.207031 238.773438 270.878906 240.671875 268.484375 C 241.898438 266.953125 243.1875 265.851562 244.226562 264.992188 C 244.777344 265.359375 245.332031 265.726562 245.820312 266.09375 C 245.390625 264.378906 245.820312 262.785156 246.863281 261.925781 C 248.578125 260.515625 251.398438 261.679688 252.746094 263.03125 C 254.582031 264.929688 254.828125 268.117188 253.296875 271.0625 C 254.523438 271.917969 255.808594 272.777344 257.035156 273.636719 Z M 246.554688 156.355469 C 245.390625 153.84375 242.757812 151.328125 240.304688 151.328125 L 240 151.328125 C 236.015625 151.636719 233.320312 158.5625 230.683594 165.183594 C 228.234375 171.316406 226.148438 176.585938 224.375 181.125 C 230.378906 180.386719 235.953125 177.875 239.875 174.195312 C 244.042969 170.335938 249.253906 162.304688 246.554688 156.355469 Z M 169.835938 179.714844 C 164.320312 160.953125 158.070312 149.796875 152.921875 149.796875 L 152.800781 149.796875 C 149.0625 149.917969 144.894531 156.171875 144.894531 161.75 C 144.894531 170.335938 155.496094 176.648438 162.238281 178.550781 C 162.238281 178.550781 165.605469 179.53125 169.835938 179.714844 Z M 241.347656 175.789062 C 236.8125 180.019531 230.378906 182.78125 223.515625 183.394531 C 219.714844 193.140625 217.265625 199.640625 216.714844 202.273438 C 213.832031 215.703125 212.976562 229.617188 214.199219 243.472656 L 212.054688 243.65625 C 210.832031 229.554688 211.6875 215.457031 214.628906 201.785156 C 215.179688 199.148438 217.449219 193.078125 221.1875 183.515625 L 221.1875 183.453125 C 214.753906 183.578125 209.238281 181.675781 206.234375 178.179688 C 203.722656 175.363281 202.988281 171.683594 202.375 168.433594 C 201.699219 164.9375 201.085938 161.875 198.511719 160.894531 C 197.410156 160.464844 196.0625 160.464844 194.652344 160.894531 C 191.894531 161.8125 190.976562 164.511719 189.875 167.941406 C 188.894531 170.886719 187.789062 174.257812 185.15625 176.957031 C 182.214844 179.898438 178.046875 181.554688 172.714844 181.796875 L 172.714844 181.859375 C 174.675781 188.910156 176.390625 196.511719 177.554688 203.316406 C 179.699219 216.070312 180.375 229.066406 179.578125 242.0625 L 177.433594 241.941406 C 178.230469 229.128906 177.554688 216.253906 175.410156 203.683594 C 174.246094 196.757812 172.46875 189.03125 170.449219 181.859375 C 165.605469 181.738281 161.808594 180.632812 161.625 180.574219 C 154.027344 178.367188 142.75 171.558594 142.75 161.691406 C 142.75 155.5 147.347656 147.835938 152.675781 147.652344 C 160.886719 147.34375 167.691406 164.753906 171.980469 179.714844 C 177.003906 179.589844 180.925781 178.179688 183.5 175.484375 C 185.828125 173.15625 186.808594 170.148438 187.730469 167.332031 C 188.953125 163.652344 190.058594 160.21875 193.855469 158.929688 C 195.757812 158.316406 197.59375 158.316406 199.1875 158.929688 C 202.804688 160.339844 203.539062 164.082031 204.335938 168.003906 C 204.949219 171.132812 205.621094 174.378906 207.707031 176.773438 C 210.464844 179.898438 215.734375 181.554688 221.921875 181.246094 C 223.761719 176.527344 225.964844 170.886719 228.601562 164.328125 C 231.605469 156.722656 234.421875 149.550781 239.691406 149.121094 C 243.371094 148.816406 246.921875 152.125 248.394531 155.375 C 251.886719 163.039062 245.332031 172.050781 241.347656 175.789062 Z M 122.527344 289.820312 C 122.894531 290.800781 123.203125 291.722656 123.570312 292.703125 C 132.394531 290.433594 136.683594 288.960938 136.5625 288.164062 C 136.4375 287.550781 133.496094 287.429688 127.613281 287.796875 Z M 70.75 242.125 C 63.519531 244.820312 59.71875 245.742188 59.289062 244.945312 C 58.863281 244.085938 62.660156 241.019531 70.75 235.75 L 74.300781 238.753906 L 70.75 242.125"/><path fill="#16A795" d="M 105.800781 202.582031 C 103.59375 202.335938 101.324219 202.03125 99.121094 201.785156 L 86.128906 213.800781 C 80.738281 216.128906 75.34375 218.519531 70.015625 220.851562 C 70.503906 222.566406 71.054688 224.222656 71.546875 225.941406 C 77.121094 224.34375 82.636719 222.75 88.210938 221.15625 L 97.402344 214.535156 L 96.914062 226.613281 C 98.261719 227.59375 100.34375 228.945312 103.164062 229.800781 C 106.964844 230.964844 110.210938 230.78125 112.050781 230.539062 C 113.644531 226.246094 115.296875 221.953125 116.890625 217.664062 L 125.898438 221.21875 C 131.597656 222.261719 137.296875 223.304688 142.933594 224.285156 C 143.667969 223.121094 144.34375 221.953125 145.078125 220.789062 C 139.808594 219.257812 134.476562 217.664062 129.207031 216.128906 L 116.828125 205.707031 C 115.234375 205.035156 113.703125 204.359375 112.109375 203.683594 C 111.925781 203.867188 110.703125 204.910156 108.863281 204.667969 C 106.902344 204.480469 105.921875 202.765625 105.800781 202.582031 Z M 185.707031 58.203125 C 183.4375 58.144531 181.109375 58.019531 178.84375 57.960938 C 176.148438 57.835938 173.390625 57.777344 170.691406 57.652344 C 170.507812 58.449219 170.265625 59.429688 169.835938 60.472656 C 169.222656 62.003906 168.425781 63.230469 167.8125 64.089844 C 169.589844 64.949219 171.429688 65.808594 173.390625 66.601562 C 175.167969 67.339844 176.882812 68.074219 178.535156 68.75 C 178.660156 73.59375 178.84375 78.558594 179.148438 83.585938 C 179.332031 86.710938 179.578125 89.839844 179.824219 92.84375 C 182.273438 93.273438 185.460938 93.640625 189.261719 93.332031 C 194.777344 92.84375 199.125 91.1875 201.824219 89.839844 C 201.332031 86.40625 200.902344 82.789062 200.597656 78.988281 C 200.230469 74.878906 200.046875 71.019531 199.921875 67.277344 C 200.78125 66.359375 201.640625 65.4375 202.558594 64.457031 C 204.210938 62.742188 205.804688 61.148438 207.398438 59.550781 C 206.664062 59.1875 205.5625 58.511719 204.519531 57.347656 C 203.601562 56.304688 203.046875 55.199219 202.804688 54.527344 C 200.472656 55.199219 198.085938 55.9375 195.695312 56.734375 C 194.101562 57.226562 192.570312 57.777344 191.039062 58.265625 C 190.914062 58.449219 190.058594 59.492188 188.523438 59.492188 C 186.75 59.550781 185.769531 58.328125 185.707031 58.203125 Z M 282.28125 239.242188 C 279.460938 241.757812 278.054688 244.207031 277.316406 245.988281 C 276.703125 247.457031 276.519531 248.4375 275.664062 251.441406 C 274.804688 254.324219 274.007812 256.59375 273.519531 258.0625 C 271.742188 259.167969 269.167969 260.515625 265.859375 261.496094 C 262.671875 262.417969 259.851562 262.664062 257.769531 262.722656 L 257.769531 268.242188 C 259.242188 268.363281 261.386719 268.363281 263.898438 268.117188 C 267.144531 267.8125 271.191406 267.382812 275.355469 264.929688 C 279.769531 262.355469 282.21875 258.675781 283.566406 256.285156 C 284.730469 257.695312 285.898438 259.414062 287.121094 261.375 C 288.714844 264.070312 289.757812 266.585938 290.492188 268.671875 C 292.882812 267.6875 295.578125 266.339844 298.519531 264.5 C 301.277344 262.722656 303.542969 260.882812 305.382812 259.230469 C 304.21875 257.820312 302.625 255.550781 301.523438 252.425781 C 300.601562 249.910156 300.296875 247.640625 300.175781 245.988281 C 303.542969 247.335938 308.324219 248.808594 314.144531 249.359375 C 320.824219 250.03125 326.464844 249.296875 330.324219 248.4375 L 330.324219 243.472656 L 313.65625 243.472656 C 311.757812 242.246094 309.121094 240.589844 305.875 238.753906 C 299.195312 234.953125 297.292969 234.523438 296.007812 234.398438 C 294.230469 234.214844 290.984375 234.15625 286.878906 236.238281 C 287.488281 237.648438 286.9375 239.242188 285.710938 239.917969 C 284.546875 240.53125 283.140625 240.222656 282.28125 239.242188 Z M 329.160156 317.410156 L 355.324219 317.839844 C 357.46875 317.777344 359.246094 316.058594 359.429688 313.976562 C 359.675781 311.832031 358.207031 309.808594 356.058594 309.316406 C 356.246094 309.011719 357.285156 307.109375 356.488281 305.023438 C 355.632812 302.757812 353.058594 301.53125 350.730469 301.960938 C 347.847656 302.449219 346.683594 305.332031 346.625 305.453125 C 346.011719 302.757812 343.558594 301.285156 341.539062 301.835938 C 340.128906 302.203125 339.023438 303.613281 338.78125 305.332031 C 337.371094 303.0625 334.550781 302.203125 332.160156 303.1875 C 329.894531 304.167969 328.546875 306.679688 329.097656 309.195312 C 327.015625 309.316406 325.421875 310.847656 325.175781 312.6875 C 324.929688 314.957031 326.707031 317.164062 329.160156 317.410156 Z M 35.453125 315.816406 L 61.617188 316.246094 C 63.761719 316.183594 65.539062 314.464844 65.722656 312.382812 C 65.964844 310.234375 64.496094 308.214844 62.351562 307.722656 C 62.535156 307.417969 63.578125 305.515625 62.78125 303.429688 C 61.925781 301.164062 59.351562 299.9375 57.023438 300.367188 C 54.140625 300.855469 52.976562 303.738281 52.914062 303.859375 C 52.304688 301.164062 49.851562 299.691406 47.828125 300.242188 C 46.417969 300.609375 45.316406 302.019531 45.074219 303.738281 C 43.664062 301.46875 40.84375 300.609375 38.453125 301.59375 C 36.1875 302.574219 34.839844 305.085938 35.390625 307.601562 C 33.308594 307.722656 31.714844 309.253906 31.46875 311.09375 C 31.222656 313.363281 32.9375 315.632812 35.453125 315.816406 Z M 247.105469 311.21875 C 246.863281 309.378906 245.207031 307.84375 243.1875 307.722656 C 243.738281 305.210938 242.390625 302.695312 240.121094 301.714844 C 237.730469 300.671875 234.914062 301.59375 233.503906 303.859375 C 233.257812 302.144531 232.15625 300.734375 230.746094 300.367188 C 228.785156 299.8125 226.273438 301.285156 225.660156 303.984375 C 225.597656 303.800781 224.433594 300.980469 221.554688 300.488281 C 219.226562 300.058594 216.652344 301.347656 215.792969 303.554688 C 214.996094 305.636719 216.039062 307.539062 216.222656 307.84375 C 214.078125 308.335938 212.667969 310.359375 212.851562 312.503906 C 213.097656 314.589844 214.8125 316.304688 216.957031 316.367188 L 243.125 315.9375 C 245.636719 315.632812 247.351562 313.363281 247.109375 311.21875 Z M 144.773438 311.21875 C 145.015625 309.378906 146.671875 307.84375 148.695312 307.722656 C 148.144531 305.210938 149.492188 302.695312 151.757812 301.714844 C 154.148438 300.671875 156.964844 301.59375 158.375 303.859375 C 158.621094 302.144531 159.722656 300.734375 161.132812 300.367188 C 163.09375 299.8125 165.605469 301.285156 166.21875 303.984375 C 166.28125 303.800781 167.445312 300.980469 170.324219 300.488281 C 172.652344 300.058594 175.226562 301.347656 176.085938 303.554688 C 176.882812 305.636719 175.839844 307.539062 175.65625 307.84375 C 177.800781 308.335938 179.210938 310.359375 179.027344 312.503906 C 178.78125 314.589844 177.066406 316.304688 174.921875 316.367188 L 148.753906 315.9375 C 146.183594 315.632812 144.464844 313.363281 144.773438 311.21875"/><g clip-path="url(#c)"><path fill="#011D45" d="M 287.304688 235.933594 C 287.429688 235.808594 287.429688 235.625 287.246094 235.503906 C 286.324219 234.707031 285.527344 233.847656 284.917969 232.804688 C 284.425781 232.070312 284.058594 231.273438 283.75 230.414062 C 284.121094 229.128906 283.566406 227.777344 282.464844 227.289062 C 281.546875 226.859375 280.6875 227.226562 280.320312 227.410156 C 279.644531 227.347656 278.972656 227.226562 278.359375 226.980469 C 277.5 226.675781 276.765625 226.183594 276.09375 225.511719 L 275.601562 225.082031 C 275.539062 225.019531 275.417969 224.957031 275.296875 225.019531 C 275.171875 225.082031 275.113281 225.140625 275.113281 225.265625 L 274.988281 225.878906 C 274.804688 226.738281 274.4375 227.59375 273.949219 228.332031 C 273.519531 228.945312 273.027344 229.433594 272.414062 229.925781 L 272.292969 229.984375 C 272.230469 230.046875 272.171875 230.109375 272.171875 230.167969 L 272.171875 230.292969 C 271.988281 231.335938 271.988281 232.988281 272.78125 234.582031 C 273.761719 236.546875 275.96875 238.445312 278.421875 238.199219 C 279.035156 238.140625 279.585938 237.957031 280.136719 237.585938 L 281.484375 238.875 C 281.546875 238.9375 281.605469 238.9375 281.667969 238.9375 C 281.730469 238.9375 281.851562 238.875 281.914062 238.8125 C 282.035156 238.691406 282.035156 238.507812 281.914062 238.382812 L 280.382812 236.976562 C 280.257812 236.851562 280.136719 236.851562 280.015625 236.914062 C 279.460938 237.28125 278.910156 237.464844 278.359375 237.527344 C 276.214844 237.773438 274.253906 235.992188 273.335938 234.214844 C 272.597656 232.746094 272.597656 231.273438 272.78125 230.292969 L 272.78125 230.230469 C 273.457031 229.742188 274.007812 229.1875 274.5 228.515625 C 275.050781 227.71875 275.417969 226.796875 275.664062 225.878906 L 275.664062 225.816406 L 275.722656 225.878906 C 276.460938 226.550781 277.257812 227.105469 278.175781 227.472656 C 278.910156 227.71875 279.644531 227.902344 280.382812 227.960938 C 280.441406 227.960938 280.503906 227.960938 280.566406 227.902344 C 280.808594 227.71875 281.546875 227.410156 282.28125 227.71875 C 283.078125 228.085938 283.507812 229.1875 283.199219 230.167969 L 283.199219 230.355469 C 283.507812 231.273438 283.9375 232.132812 284.488281 232.988281 C 285.160156 234.03125 286.019531 235.011719 287 235.808594 C 287 236.054688 287.183594 236.054688 287.304688 235.933594 Z M 330.628906 243.78125 C 337.859375 241.632812 338.105469 242.1875 338.167969 242.371094 C 338.226562 242.554688 338.167969 242.921875 336.453125 244.085938 C 336.328125 244.148438 336.328125 244.269531 336.328125 244.394531 C 336.328125 244.515625 336.390625 244.578125 336.511719 244.636719 C 340.863281 246.355469 342.945312 247.457031 342.761719 248.132812 C 342.640625 248.5625 341.722656 248.746094 339.882812 248.746094 C 339.269531 248.746094 338.597656 248.746094 337.675781 248.683594 C 335.285156 248.5625 332.898438 248.195312 330.628906 247.519531 C 330.445312 247.457031 330.324219 247.582031 330.261719 247.703125 C 330.199219 247.886719 330.324219 248.011719 330.445312 248.070312 C 332.773438 248.746094 335.226562 249.175781 337.675781 249.296875 C 338.597656 249.359375 339.269531 249.359375 339.882812 249.359375 C 341.84375 249.359375 343.128906 249.175781 343.316406 248.253906 C 343.5 247.457031 343.128906 246.601562 337.1875 244.269531 C 338.535156 243.289062 338.902344 242.738281 338.65625 242.125 C 338.414062 241.449219 338.105469 240.835938 330.386719 243.167969 C 330.199219 243.226562 330.140625 243.410156 330.199219 243.535156 C 330.261719 243.65625 330.445312 243.839844 330.628906 243.78125 Z M 257.402344 267.136719 C 257.035156 267.199219 256.484375 267.382812 255.871094 267.503906 C 255.503906 267.566406 255.257812 267.6875 254.949219 267.75 L 254.828125 267.8125 C 254.09375 267.996094 253.601562 268.117188 253.296875 268.117188 C 253.113281 268.117188 253.050781 268.058594 252.988281 267.996094 C 252.683594 267.6875 252.804688 267.015625 253.296875 265.972656 C 253.359375 265.851562 253.296875 265.667969 253.175781 265.542969 L 249.679688 263.765625 L 249.679688 263.703125 C 250.234375 262.90625 250.90625 262.417969 251.703125 262.234375 C 252.316406 262.050781 252.804688 262.171875 254.214844 262.539062 L 254.765625 262.664062 C 255.503906 262.847656 256.421875 263.03125 257.464844 263.273438 C 257.648438 263.335938 257.769531 263.214844 257.832031 263.03125 C 257.890625 262.847656 257.769531 262.722656 257.585938 262.664062 C 256.542969 262.417969 255.625 262.234375 254.890625 262.050781 L 254.339844 261.925781 C 252.929688 261.558594 252.316406 261.4375 251.519531 261.621094 C 250.601562 261.863281 249.863281 262.417969 249.191406 263.335938 C 249.066406 263.519531 249.066406 263.703125 249.066406 263.886719 C 249.128906 264.070312 249.253906 264.257812 249.4375 264.316406 L 252.683594 265.972656 C 252.316406 266.769531 252.007812 267.8125 252.621094 268.425781 C 252.804688 268.609375 253.050781 268.730469 253.359375 268.730469 C 253.726562 268.730469 254.214844 268.609375 255.011719 268.363281 L 255.136719 268.300781 C 255.378906 268.242188 255.6875 268.179688 256.054688 268.058594 C 256.667969 267.875 257.21875 267.75 257.585938 267.6875 C 257.769531 267.628906 257.832031 267.503906 257.832031 267.320312 C 257.769531 267.199219 257.585938 267.078125 257.402344 267.136719 Z M 350.730469 260.269531 C 350.605469 259.414062 345.460938 259.167969 335.042969 259.597656 L 334.980469 259.597656 L 334.980469 259.65625 C 333.816406 264.011719 332.835938 268.484375 332.160156 272.902344 C 331.734375 275.90625 331.367188 278.910156 331.179688 281.914062 C 331.179688 282.035156 331.121094 282.097656 330.996094 282.15625 C 330.9375 282.21875 330.8125 282.21875 330.691406 282.15625 L 325.789062 279.707031 L 319.722656 287 C 321.5 288.960938 323.582031 290.558594 325.910156 291.660156 C 327.996094 292.640625 330.078125 293.621094 331.976562 293.621094 C 332.589844 293.621094 333.140625 293.5 333.695312 293.316406 C 337.675781 291.722656 338.230469 284.609375 338.839844 276.332031 C 339.148438 272.347656 339.148438 268.242188 338.839844 264.257812 C 338.839844 264.132812 338.964844 263.949219 339.085938 263.949219 C 349.6875 261.621094 350.789062 260.761719 350.730469 260.269531 Z M 304.523438 291.722656 L 295.332031 294.601562 L 294.351562 301.347656 L 297.476562 331.632812 C 297.476562 331.753906 297.417969 331.9375 297.234375 331.9375 C 290.613281 333.839844 287.429688 335.066406 287.550781 335.863281 C 287.613281 336.109375 287.671875 336.660156 292.148438 336.660156 C 294.535156 336.660156 297.90625 336.476562 302.195312 336.167969 L 302.257812 336.167969 L 303.789062 300.855469 Z M 339.578125 264.441406 C 339.820312 268.363281 339.820312 272.347656 339.515625 276.332031 C 338.902344 284.792969 338.351562 292.089844 334 293.867188 C 333.386719 294.113281 332.773438 294.234375 332.039062 294.234375 C 330.015625 294.234375 327.8125 293.191406 325.667969 292.210938 C 323.277344 291.046875 321.070312 289.453125 319.230469 287.429688 C 318.742188 287.796875 318.191406 288.105469 317.699219 288.351562 C 315.308594 289.636719 313.164062 290.003906 310.285156 290.496094 C 308.875 290.742188 307.160156 291.046875 305.078125 291.539062 L 304.402344 300.917969 L 302.871094 336.535156 C 302.871094 336.71875 302.75 336.84375 302.5625 336.84375 L 302.257812 336.84375 C 297.96875 337.148438 294.535156 337.332031 292.148438 337.332031 C 287.488281 337.332031 287.0625 336.78125 286.9375 336.046875 C 286.753906 335.125 287.429688 334.144531 296.804688 331.507812 L 293.679688 301.46875 L 293.679688 301.40625 L 294.597656 294.972656 C 293.863281 295.277344 293.066406 295.15625 292.453125 294.726562 C 291.839844 294.296875 291.410156 293.5625 291.410156 292.824219 L 291.042969 268.300781 C 291.042969 268.117188 291.167969 267.996094 291.351562 267.996094 C 291.535156 267.996094 291.65625 268.117188 291.65625 268.300781 L 292.023438 292.824219 C 292.023438 293.375 292.332031 293.929688 292.820312 294.234375 C 293.3125 294.542969 293.925781 294.601562 294.414062 294.417969 L 294.964844 294.234375 L 304.769531 291.109375 C 306.976562 290.558594 308.816406 290.25 310.222656 290.003906 C 313.042969 289.515625 315.125 289.148438 317.453125 287.921875 C 318.007812 287.613281 318.558594 287.308594 319.109375 286.878906 L 325.484375 279.277344 C 325.910156 278.480469 326.277344 277.621094 326.648438 276.761719 C 326.953125 276.027344 326.707031 275.105469 326.035156 274.679688 L 305.261719 259.78125 C 305.136719 259.65625 305.078125 259.472656 305.199219 259.351562 C 305.320312 259.230469 305.503906 259.167969 305.628906 259.289062 L 326.402344 274.066406 C 327.320312 274.679688 327.628906 275.90625 327.199219 276.886719 C 326.890625 277.683594 326.523438 278.417969 326.15625 279.152344 L 330.628906 281.359375 C 330.8125 278.480469 331.179688 275.597656 331.609375 272.714844 C 332.285156 268.242188 333.203125 263.765625 334.429688 259.414062 L 334.492188 259.167969 C 334.550781 259.046875 334.613281 258.921875 334.796875 258.921875 L 335.042969 258.921875 C 351.15625 258.308594 351.28125 259.289062 351.402344 260.148438 C 351.464844 261.007812 351.585938 261.863281 339.578125 264.441406 Z M 148.203125 221.710938 C 147.347656 221.097656 146.425781 220.726562 145.386719 220.542969 C 145.203125 220.542969 145.078125 220.667969 145.015625 220.789062 C 145.015625 220.972656 145.140625 221.097656 145.261719 221.15625 C 146.183594 221.28125 147.039062 221.648438 147.835938 222.199219 C 149.125 223.179688 149.675781 224.46875 149.859375 225.140625 L 146.425781 223.855469 C 146.304688 223.792969 146.183594 223.855469 146.121094 223.917969 C 146.058594 223.976562 145.996094 224.101562 145.996094 224.222656 C 146.183594 225.019531 146.183594 225.511719 145.996094 225.632812 L 145.875 225.632812 C 145.753906 225.632812 145.507812 225.449219 145.203125 225.265625 C 144.957031 225.082031 144.589844 224.773438 144.097656 224.53125 C 143.851562 224.40625 143.546875 224.285156 143.242188 224.160156 C 143.054688 224.101562 142.933594 224.160156 142.871094 224.34375 C 142.8125 224.53125 142.871094 224.652344 143.054688 224.714844 C 143.300781 224.835938 143.609375 224.957031 143.851562 225.082031 C 144.28125 225.328125 144.648438 225.570312 144.894531 225.753906 C 145.261719 226 145.570312 226.246094 145.875 226.246094 C 145.996094 226.246094 146.121094 226.183594 146.242188 226.125 C 146.734375 225.878906 146.792969 225.265625 146.671875 224.589844 L 149.550781 225.695312 C 149.796875 225.753906 149.980469 225.753906 150.164062 225.570312 C 150.347656 225.386719 150.410156 225.203125 150.347656 224.957031 C 150.226562 224.222656 149.675781 222.8125 148.203125 221.710938 Z M 120.691406 258.859375 L 112.785156 231.027344 C 112.722656 230.84375 112.601562 230.78125 112.417969 230.84375 C 112.234375 230.90625 112.171875 231.089844 112.234375 231.210938 L 120.136719 259.046875 L 127.738281 287.738281 L 127.738281 287.796875 L 122.652344 289.820312 L 122.589844 289.820312 L 112.664062 263.765625 L 112.664062 263.703125 L 101.632812 246.660156 C 101.570312 246.539062 101.449219 246.539062 101.324219 246.539062 C 101.203125 246.539062 101.140625 246.660156 101.082031 246.722656 C 99.976562 249.847656 94.21875 265.296875 87.476562 265.296875 L 87.230469 265.296875 C 84.71875 265.175781 82.574219 261.988281 78.652344 256.226562 C 75.648438 251.8125 72.957031 247.089844 70.75 242.125 L 74.300781 238.8125 L 74.363281 238.8125 L 85.453125 250.523438 C 85.515625 250.585938 85.636719 250.644531 85.761719 250.585938 C 85.882812 250.585938 85.945312 250.460938 86.007812 250.339844 L 89.316406 238.078125 L 96.484375 227.164062 C 96.609375 227.042969 96.546875 226.859375 96.421875 226.738281 C 96.300781 226.613281 96.117188 226.675781 95.996094 226.796875 L 88.824219 237.710938 C 88.765625 237.773438 88.765625 237.832031 88.765625 237.894531 L 85.578125 249.605469 L 74.792969 238.324219 C 74.546875 238.078125 74.117188 238.078125 73.875 238.324219 L 70.320312 241.695312 C 70.136719 241.878906 70.078125 242.1875 70.199219 242.429688 C 72.464844 247.335938 75.097656 252.054688 78.164062 256.53125 C 82.207031 262.476562 84.414062 265.726562 87.230469 265.851562 L 87.476562 265.851562 C 94.277344 265.851562 99.917969 251.628906 101.449219 247.457031 L 112.171875 263.949219 L 122.039062 290.003906 C 122.097656 290.1875 122.222656 290.3125 122.40625 290.371094 C 122.46875 290.433594 122.589844 290.433594 122.652344 290.433594 C 122.710938 290.433594 122.835938 290.433594 122.894531 290.371094 L 127.980469 288.351562 C 128.289062 288.226562 128.472656 287.859375 128.351562 287.550781 Z M 71.175781 226.367188 C 71.363281 226.308594 71.425781 226.125 71.363281 226 C 71.300781 225.816406 71.117188 225.753906 70.996094 225.816406 C 70.628906 225.941406 70.257812 226.125 69.890625 226.308594 C 69.21875 226.613281 68.726562 226.980469 68.296875 227.289062 C 67.808594 227.59375 67.441406 227.902344 67.195312 227.71875 C 66.949219 227.535156 66.949219 226.921875 67.257812 225.878906 C 67.257812 225.753906 67.257812 225.695312 67.195312 225.570312 C 67.136719 225.449219 67.011719 225.449219 66.886719 225.449219 L 60.882812 226.492188 L 60.824219 226.429688 C 61.925781 224.835938 63.394531 223.546875 65.050781 222.628906 C 66.523438 221.832031 68.054688 221.339844 69.707031 221.15625 C 69.890625 221.15625 70.015625 220.972656 69.953125 220.851562 C 69.953125 220.667969 69.769531 220.542969 69.644531 220.605469 C 67.929688 220.789062 66.273438 221.28125 64.742188 222.136719 C 62.96875 223.121094 61.433594 224.46875 60.332031 226.125 C 60.210938 226.367188 60.148438 226.613281 60.332031 226.859375 C 60.453125 227.105469 60.761719 227.226562 61.007812 227.164062 L 66.523438 226.246094 C 66.335938 227.164062 66.273438 227.960938 66.886719 228.332031 C 67.011719 228.390625 67.195312 228.453125 67.378906 228.453125 C 67.808594 228.453125 68.175781 228.207031 68.667969 227.839844 C 69.03125 227.59375 69.523438 227.226562 70.199219 226.921875 C 70.503906 226.675781 70.871094 226.492188 71.175781 226.367188 Z M 106.410156 195.347656 C 106.535156 196.941406 106.472656 198.472656 106.105469 200.007812 C 105.921875 200.988281 105.617188 201.96875 105.1875 202.886719 C 105.125 203.070312 105.1875 203.195312 105.371094 203.316406 C 105.554688 203.378906 105.675781 203.316406 105.800781 203.132812 C 106.226562 202.152344 106.535156 201.171875 106.78125 200.128906 C 107.148438 198.472656 107.207031 196.757812 107.085938 195.039062 C 107.085938 194.917969 106.964844 194.796875 106.839844 194.796875 C 106.351562 194.671875 105.921875 194.429688 105.675781 194 C 105.429688 193.632812 105.308594 193.261719 105.429688 192.894531 C 105.617188 192.28125 106.410156 191.851562 107.207031 191.914062 C 107.269531 191.914062 107.390625 191.914062 107.453125 191.851562 C 108.1875 191.238281 108.863281 190.441406 109.292969 189.585938 C 109.722656 188.789062 109.964844 187.992188 110.089844 187.132812 L 109.78125 187.070312 L 110.148438 187.070312 C 110.886719 187.5625 111.742188 187.867188 112.601562 187.992188 C 113.703125 188.234375 114.929688 188.175781 116.03125 187.867188 L 116.09375 187.867188 C 116.585938 189.15625 116.953125 190.503906 117.074219 191.914062 C 117.257812 193.9375 117.566406 197.003906 115.664062 198.472656 C 115.234375 198.78125 114.253906 199.332031 112.601562 199.148438 C 112.539062 199.148438 112.417969 199.148438 112.355469 199.210938 C 112.292969 199.269531 112.234375 199.332031 112.234375 199.453125 L 112.234375 204.175781 C 112.234375 204.359375 112.355469 204.480469 112.539062 204.480469 C 112.722656 204.480469 112.847656 204.359375 112.847656 204.175781 L 112.847656 199.824219 C 114.5 199.882812 115.542969 199.332031 116.03125 198.964844 C 118.175781 197.308594 117.871094 194.058594 117.6875 191.851562 C 117.566406 190.441406 117.195312 189.03125 116.707031 187.683594 C 116.585938 187.378906 116.277344 187.195312 115.910156 187.316406 C 114.867188 187.5625 113.765625 187.621094 112.785156 187.4375 C 111.988281 187.253906 111.191406 187.007812 110.519531 186.582031 C 110.332031 186.457031 110.089844 186.457031 109.90625 186.582031 C 109.722656 186.703125 109.539062 186.886719 109.539062 187.070312 C 109.414062 187.867188 109.167969 188.605469 108.800781 189.339844 C 108.371094 190.074219 107.882812 190.75 107.207031 191.300781 L 107.148438 191.300781 C 106.105469 191.300781 105.1875 191.914062 104.941406 192.773438 C 104.820312 193.261719 104.941406 193.875 105.308594 194.367188 C 105.371094 194.855469 105.859375 195.226562 106.410156 195.347656 Z M 184.601562 51.09375 C 185.214844 52.320312 185.582031 53.667969 185.644531 54.953125 C 185.707031 55.933594 185.644531 56.917969 185.398438 57.835938 C 185.339844 58.019531 185.460938 58.144531 185.644531 58.203125 L 185.707031 58.203125 C 185.828125 58.203125 185.953125 58.082031 186.011719 57.957031 C 186.257812 56.976562 186.320312 55.933594 186.257812 54.894531 C 186.195312 53.421875 185.769531 51.949219 185.03125 50.660156 C 184.972656 50.601562 184.910156 50.539062 184.847656 50.539062 C 184.175781 50.296875 183.746094 49.621094 183.808594 48.945312 C 183.867188 48.273438 184.417969 47.722656 185.09375 47.660156 C 185.15625 47.660156 185.277344 47.597656 185.277344 47.535156 C 185.582031 47.046875 185.828125 46.554688 186.011719 46.003906 C 186.378906 44.714844 186.074219 43.613281 185.890625 43.0625 L 185.953125 43 C 187.175781 43.429688 188.402344 43.675781 189.6875 43.675781 C 191.039062 43.675781 192.445312 43.429688 193.734375 43 L 193.796875 43 C 194.101562 44.042969 194.347656 45.085938 194.53125 46.125 C 194.960938 48.886719 195.449219 52.257812 193.734375 53.726562 C 193.242188 54.15625 192.753906 54.28125 192.261719 54.339844 C 191.710938 54.464844 191.28125 54.585938 190.914062 55.078125 C 190.484375 55.691406 190.425781 56.609375 190.792969 57.835938 C 190.855469 58.019531 191.039062 58.082031 191.160156 58.019531 C 191.34375 57.957031 191.40625 57.773438 191.34375 57.652344 C 191.039062 56.671875 191.039062 55.933594 191.40625 55.445312 C 191.589844 55.136719 191.835938 55.078125 192.386719 54.953125 C 192.875 54.832031 193.488281 54.710938 194.101562 54.21875 C 196.125 52.5 195.570312 48.945312 195.144531 46.0625 C 194.960938 44.960938 194.714844 43.859375 194.40625 42.816406 C 194.347656 42.632812 194.222656 42.511719 194.039062 42.386719 C 193.855469 42.324219 193.671875 42.324219 193.550781 42.386719 C 192.324219 42.816406 191.039062 43.0625 189.75 43.0625 C 188.523438 43.0625 187.359375 42.816406 186.195312 42.386719 C 185.953125 42.324219 185.707031 42.386719 185.523438 42.511719 C 185.339844 42.691406 185.277344 42.9375 185.339844 43.183594 C 185.523438 43.675781 185.769531 44.65625 185.460938 45.757812 C 185.339844 46.1875 185.15625 46.617188 184.910156 46.984375 C 183.992188 47.167969 183.316406 47.902344 183.195312 48.824219 C 183.195312 49.804688 183.746094 50.722656 184.601562 51.09375 Z M 227.804688 102.222656 C 227.742188 102.160156 227.683594 102.097656 227.558594 102.039062 L 200.660156 89.042969 C 200.535156 88.976562 200.351562 89.042969 200.230469 89.164062 C 200.167969 89.285156 200.230469 89.46875 200.351562 89.589844 L 227.253906 102.589844 L 245.207031 126.070312 L 240.613281 132.199219 L 240.550781 132.199219 L 221.492188 110.128906 L 221.371094 110.007812 L 201.578125 104.183594 C 201.453125 104.121094 201.269531 104.183594 201.210938 104.304688 C 201.148438 104.429688 201.148438 104.550781 201.269531 104.675781 L 214.570312 118.53125 L 221.554688 146.300781 L 221.492188 146.363281 L 215.058594 147.464844 L 204.519531 124.355469 C 204.519531 124.292969 204.457031 124.292969 204.457031 124.230469 L 179.945312 104 L 179.945312 91.738281 C 179.945312 91.554688 179.824219 91.433594 179.640625 91.433594 C 179.457031 91.433594 179.332031 91.554688 179.332031 91.738281 L 179.332031 104 C 179.332031 104.183594 179.394531 104.367188 179.578125 104.492188 L 204.027344 124.660156 L 214.507812 147.710938 C 214.628906 147.957031 214.875 148.078125 215.121094 148.078125 L 215.242188 148.078125 L 221.617188 146.914062 C 221.800781 146.851562 221.984375 146.792969 222.042969 146.609375 C 222.167969 146.425781 222.167969 146.238281 222.105469 146.117188 L 215.121094 118.34375 C 215.121094 118.222656 215.058594 118.101562 214.9375 118.039062 L 202.496094 105.042969 L 221.125 110.558594 L 240.121094 132.570312 C 240.246094 132.753906 240.488281 132.8125 240.671875 132.8125 C 240.855469 132.8125 241.039062 132.691406 241.164062 132.570312 L 245.757812 126.4375 C 245.941406 126.191406 245.941406 125.886719 245.757812 125.640625 Z M 201.882812 55.566406 L 205.5625 52.441406 L 205.621094 52.378906 L 215.917969 34.355469 L 215.917969 34.292969 C 216.773438 31.226562 217.324219 29.816406 217.695312 29.878906 C 217.816406 29.878906 218.0625 29.941406 218 32.578125 C 218 32.699219 218.0625 32.761719 218.121094 32.824219 C 218.183594 32.882812 218.304688 32.882812 218.429688 32.882812 C 222.535156 31.289062 224.742188 30.800781 225.109375 31.476562 C 225.414062 31.964844 224.617188 33.191406 223.148438 34.476562 C 221.859375 35.640625 220.207031 36.378906 218.367188 36.6875 C 218.246094 36.6875 218.183594 36.746094 218.121094 36.867188 L 209.972656 56.917969 L 205.621094 60.535156 C 205.5 60.65625 205.5 60.839844 205.5625 60.960938 C 205.621094 61.023438 205.683594 61.082031 205.804688 61.082031 C 205.867188 61.082031 205.929688 61.082031 205.988281 61.023438 L 210.339844 57.40625 C 210.402344 57.34375 210.460938 57.222656 210.523438 57.160156 L 218.550781 37.238281 C 220.453125 36.929688 222.105469 36.074219 223.453125 34.90625 C 224.496094 33.988281 226.210938 32.210938 225.539062 31.167969 C 225.046875 30.308594 223.699219 30.1875 218.550781 32.210938 C 218.613281 30.125 218.367188 29.453125 217.695312 29.328125 C 216.957031 29.203125 216.53125 29.636719 215.242188 34.109375 L 205.070312 52.011719 L 201.453125 55.136719 C 201.332031 55.261719 201.332031 55.445312 201.394531 55.566406 C 201.578125 55.691406 201.761719 55.691406 201.882812 55.566406 Z M 170.9375 58.019531 C 170.878906 58.203125 170.753906 58.265625 170.570312 58.265625 L 168.976562 57.835938 C 168.917969 57.835938 168.917969 57.773438 168.855469 57.773438 L 152.1875 43.734375 L 152.125 43.675781 C 148.632812 38.953125 147.835938 38.585938 147.589844 38.769531 C 147.46875 38.832031 147.347656 39.136719 147.835938 40.546875 C 147.898438 40.671875 147.835938 40.792969 147.773438 40.851562 C 147.714844 40.914062 147.589844 40.976562 147.46875 40.914062 C 144.097656 39.625 142.261719 39.261719 141.832031 39.875 C 141.707031 40.058594 141.707031 40.238281 141.832031 40.546875 C 142.199219 41.710938 144.035156 43.550781 146.121094 44.410156 C 147.101562 44.777344 148.144531 45.023438 149.183594 45.023438 C 149.246094 45.023438 149.367188 45.085938 149.429688 45.144531 L 163.769531 62.003906 L 167.507812 63.230469 C 167.691406 63.292969 167.75 63.476562 167.691406 63.597656 C 167.628906 63.722656 167.507812 63.78125 167.382812 63.78125 L 167.261719 63.78125 L 163.523438 62.554688 C 163.402344 62.496094 163.339844 62.433594 163.277344 62.371094 L 149.0625 45.636719 C 147.957031 45.636719 146.855469 45.390625 145.875 44.960938 C 143.546875 43.980469 141.648438 42.019531 141.28125 40.730469 C 141.15625 40.300781 141.15625 39.875 141.339844 39.566406 C 141.648438 39.136719 142.136719 38.277344 147.101562 40.117188 C 146.792969 39.136719 146.792969 38.523438 147.347656 38.21875 C 147.957031 37.851562 148.449219 37.542969 152.675781 43.246094 L 169.285156 57.222656 L 170.816406 57.589844 C 170.878906 57.710938 170.9375 57.898438 170.9375 58.019531"/></g><path fill="#FFF" d="M 232.03125 301.164062 C 232.460938 300.242188 231.175781 298.832031 231.050781 298.710938 C 230.929688 298.957031 230.253906 300.242188 230.808594 301.101562 C 230.867188 301.222656 231.113281 301.59375 231.421875 301.59375 C 231.726562 301.652344 231.972656 301.222656 232.03125 301.164062 Z M 224.925781 299.8125 C 225.84375 298.894531 224.863281 296.625 224.800781 296.441406 C 224.496094 296.6875 223.207031 297.976562 223.453125 299.261719 C 223.515625 299.445312 223.578125 299.996094 224.003906 300.121094 C 224.433594 300.304688 224.925781 299.8125 224.925781 299.8125 Z M 230.992188 291.84375 C 231.421875 290.925781 230.132812 289.515625 230.011719 289.390625 C 229.886719 289.636719 229.214844 290.925781 229.765625 291.78125 C 229.828125 291.90625 230.070312 292.273438 230.378906 292.273438 C 230.683594 292.335938 230.929688 291.90625 230.992188 291.84375 Z M 225.90625 290.003906 C 225.539062 289.882812 225.414062 289.332031 225.355469 289.148438 C 225.109375 287.859375 226.394531 286.570312 226.703125 286.328125 C 226.761719 286.511719 227.742188 288.777344 226.824219 289.699219 C 226.824219 289.699219 226.335938 290.128906 225.90625 290.003906"/></svg>