<svg xmlns="http://www.w3.org/2000/svg" width="375" viewBox="0 0 375 375" height="375" version="1.0"><defs><clipPath id="a"><path d="M 40.207031 28 L 302 28 L 302 325.617188 L 40.207031 325.617188 Z M 40.207031 28"/></clipPath><clipPath id="b"><path d="M 211.117188 48 L 305.046875 48 L 305.046875 236.605469 L 211.117188 236.605469 Z M 211.117188 48"/></clipPath></defs><path fill="#011D45" d="M 247.210938 15.21875 C 226.640625 16.042969 220.609375 24.8125 220.195312 29.066406 C 219.785156 33.3125 234.59375 63.332031 234.59375 63.332031 L 254.886719 62.097656 C 254.886719 62.097656 258.726562 54.421875 262.976562 45.648438 C 267.226562 36.875 267.777344 14.398438 247.210938 15.21875 Z M 163.175781 132.414062 L 146.253906 66.621094 C 145.628906 64.199219 143.449219 62.503906 140.949219 62.496094 L 50.574219 62.253906 C 46.890625 62.246094 44.242188 65.789062 45.296875 69.316406 L 65.042969 135.351562 C 65.738281 137.675781 67.878906 139.269531 70.304688 139.269531 L 157.855469 139.269531 C 161.445312 139.269531 164.066406 135.882812 163.175781 132.414062 Z M 201.34375 314.859375 L 187.902344 322.09375 C 187.945312 322.941406 187.976562 323.777344 187.976562 324.589844 L 144.371094 324.589844 C 144.371094 324.589844 149.859375 316.367188 161.101562 316.367188 C 172.34375 316.367188 171.523438 308.6875 171.523438 308.6875 L 185.453125 304.164062 C 185.453125 304.164062 186 304.859375 186.25 305.925781 L 195.378906 302.726562 C 195.378906 302.726562 199.90625 307.660156 201.34375 314.859375"/><path fill="#FFF" d="M 203.058594 166.957031 L 145.46875 166.957031 L 145.46875 165.039062 L 122.359375 165.039062 C 117.027344 165.039062 113.171875 159.949219 114.617188 154.820312 L 119.035156 139.132812 L 157.445312 139.132812 C 160.996094 139.132812 163.59375 135.785156 162.707031 132.351562 L 160.40625 123.40625 L 62.101562 123.40625 L 65.644531 135.257812 C 66.332031 137.558594 68.449219 139.132812 70.851562 139.132812 L 88.800781 139.132812 L 84.144531 156.402344 C 82.707031 161.722656 86.71875 166.957031 92.234375 166.957031 L 40.742188 166.957031 L 40.742188 189.988281 L 203.058594 189.988281 Z M 294.101562 191.082031 L 237.882812 183.40625 C 237.882812 183.40625 173.441406 200.128906 157.808594 203.691406 C 142.179688 207.257812 133.402344 218.222656 139.4375 238.507812 C 145.46875 258.796875 163.566406 310.882812 163.566406 310.882812 L 185.648438 304.433594 L 186.433594 306.238281 L 201.136719 301.289062 L 186.660156 232.753906 C 195.066406 232.753906 207.511719 232.753906 225.820312 232.753906 C 274.632812 232.753906 294.515625 239.605469 294.101562 191.082031 Z M 133.105469 97.605469 C 131.753906 94.511719 130.25 91.535156 128.667969 88.691406 L 133.128906 97.738281 C 133.128906 97.738281 133.117188 97.683594 133.105469 97.605469 Z M 107.074219 59.90625 L 147.9375 59.90625 C 147.9375 59.90625 159.246094 65.105469 167.410156 81.148438 C 175.636719 97.324219 179.472656 116.789062 179.472656 116.789062 L 138.75 116.789062 C 138.628906 115.941406 138.484375 115.097656 138.332031 114.253906 L 132.03125 121.863281 C 132.03125 121.863281 131.207031 121.039062 124.761719 110.484375 C 118.421875 100.097656 128.140625 88.660156 128.453125 88.296875 C 119.09375 71.625 107.074219 59.90625 107.074219 59.90625 Z M 218.746094 56.925781 L 215.125 57.027344 L 219.035156 51.371094 L 220.195312 29.066406 L 228.835938 33.039062 C 228.835938 33.039062 228.5625 43.183594 236.238281 47.15625 L 238.707031 39.34375 C 238.707031 39.34375 245.5625 38.519531 245.289062 44.828125 C 245.230469 46.175781 244.894531 47.390625 244.40625 48.460938 C 241.375 55.0625 246.117188 62.773438 253.367188 62.296875 C 253.867188 62.261719 254.371094 62.199219 254.886719 62.097656 L 255.570312 71.96875 L 237.75 75.53125 L 237.882812 68.539062 L 231.984375 70.867188 C 225.3125 73.5 218.152344 68.351562 218.523438 61.1875 L 218.746094 56.925781"/><path fill="#16A795" d="M 226.640625 186.351562 L 216.769531 125.289062 C 216.769531 125.289062 185.78125 154.621094 178.375 161.199219 C 170.972656 167.78125 160.824219 169.152344 152.875 158.734375 C 144.917969 148.316406 124.902344 117.613281 124.902344 117.613281 L 141.355469 110.757812 L 164.9375 140.914062 C 164.9375 140.914062 199.492188 105.277344 208.269531 96.777344 C 217.042969 88.277344 233.769531 81.972656 233.769531 81.972656 L 235.144531 74.847656 L 256.257812 65.523438 L 259.273438 76.492188 C 259.273438 76.492188 272.988281 84.441406 279.019531 88.003906 C 285.050781 91.570312 286.699219 99.246094 288.070312 109.9375 C 289.441406 120.625 296.023438 179.019531 296.84375 190.257812 C 297.667969 201.5 266.953125 219.042969 232.949219 185.324219 L 226.640625 186.351562"/><g clip-path="url(#a)"><path fill="#011D45" d="M 127.804688 88.242188 C 126.25 90.195312 118.328125 100.96875 124.308594 110.761719 C 125.214844 112.246094 126.003906 113.363281 126.699219 114.347656 C 127.179688 115.027344 127.617188 115.640625 128.007812 116.265625 C 128.109375 116.425781 128.285156 116.515625 128.460938 116.515625 C 128.558594 116.515625 128.65625 116.488281 128.746094 116.433594 C 128.996094 116.273438 129.070312 115.945312 128.914062 115.695312 C 128.511719 115.054688 128.066406 114.425781 127.574219 113.726562 C 126.886719 112.757812 126.105469 111.65625 125.222656 110.207031 C 119.898438 101.488281 126.417969 91.820312 128.359375 89.269531 L 132.648438 97.972656 C 132.765625 98.210938 133.042969 98.328125 133.292969 98.246094 C 133.550781 98.164062 133.703125 97.90625 133.65625 97.644531 C 133.644531 97.585938 132.683594 92.238281 131.863281 89.105469 C 131.5625 87.945312 131.789062 87.296875 132.148438 87.167969 C 132.570312 87.015625 133.300781 87.429688 133.738281 88.367188 C 134.402344 89.773438 134.53125 90.011719 135.363281 91.5625 C 135.925781 92.609375 136.816406 94.269531 138.414062 97.300781 C 142.195312 104.46875 138.039062 111.351562 137.996094 111.417969 C 137.839844 111.671875 137.917969 111.996094 138.167969 112.15625 C 138.417969 112.308594 138.75 112.234375 138.902344 111.980469 C 139.089844 111.679688 143.429688 104.523438 139.359375 96.800781 C 137.757812 93.765625 136.867188 92.105469 136.304688 91.054688 C 135.464844 89.492188 135.359375 89.292969 134.710938 87.914062 C 133.96875 86.335938 132.671875 85.839844 131.785156 86.160156 C 130.992188 86.449219 130.324219 87.445312 130.828125 89.375 C 131.132812 90.535156 131.453125 92.007812 131.742188 93.398438 C 130.902344 91.6875 130.023438 90.007812 129.113281 88.378906 L 128.945312 88.042969 C 128.929688 88.007812 128.898438 87.988281 128.875 87.960938 C 121.050781 74.0625 111.328125 63.519531 108.351562 60.441406 L 147.816406 60.441406 C 148.949219 61.003906 159.351562 66.496094 166.929688 81.390625 C 174.195312 95.683594 178.070312 112.769531 178.816406 116.253906 L 146.296875 116.253906 C 146.003906 116.253906 145.761719 116.496094 145.761719 116.789062 C 145.761719 117.085938 146.003906 117.324219 146.296875 117.324219 L 179.472656 117.324219 C 179.632812 117.324219 179.785156 117.253906 179.886719 117.128906 C 179.988281 117.003906 180.027344 116.84375 180 116.6875 C 179.960938 116.492188 176.050781 96.960938 167.882812 80.910156 C 159.730469 64.882812 148.628906 59.632812 148.160156 59.417969 C 148.089844 59.386719 148.015625 59.371094 147.9375 59.371094 L 107.074219 59.371094 C 106.855469 59.371094 106.664062 59.5 106.578125 59.703125 C 106.496094 59.90625 106.546875 60.136719 106.703125 60.289062 C 106.835938 60.417969 118.601562 71.988281 127.804688 88.242188 Z M 162.164062 137.355469 C 163.300781 135.890625 163.691406 134.015625 163.226562 132.214844 L 160.925781 123.269531 C 160.851562 122.984375 160.566406 122.8125 160.273438 122.886719 C 159.988281 122.960938 159.816406 123.25 159.890625 123.535156 L 162.191406 132.484375 C 162.570312 133.960938 162.253906 135.496094 161.316406 136.703125 Z M 294.886719 307.332031 L 270.816406 233.183594 C 270.746094 232.972656 270.816406 232.75 270.976562 232.613281 C 263.683594 233.796875 254.585938 233.695312 243.496094 233.5 C 243.726562 233.609375 243.855469 233.867188 243.78125 234.121094 L 222.40625 307.332031 L 256.546875 307.332031 L 256.546875 235.492188 C 256.546875 235.195312 256.785156 234.957031 257.082031 234.957031 C 257.378906 234.957031 257.617188 235.195312 257.617188 235.492188 L 257.617188 307.332031 Z M 185.917969 233.289062 L 170.5625 233.289062 L 188.492188 303.625 C 188.566406 303.902344 188.402344 304.1875 188.125 304.265625 L 186.527344 304.734375 L 186.898438 305.570312 L 200.515625 300.933594 Z M 100.480469 167.507812 L 100.480469 189.453125 L 202.523438 189.453125 L 202.523438 167.492188 L 100.480469 167.492188 C 100.480469 167.496094 100.480469 167.503906 100.480469 167.507812 Z M 99.410156 189.453125 L 99.410156 167.507812 C 99.410156 167.503906 99.414062 167.496094 99.414062 167.492188 L 41.273438 167.492188 L 41.273438 189.453125 Z M 92.234375 166.421875 L 144.933594 166.421875 L 144.933594 165.574219 L 122.359375 165.574219 C 119.648438 165.574219 117.15625 164.335938 115.519531 162.175781 C 113.882812 160.015625 113.367188 157.285156 114.101562 154.675781 L 118.328125 139.667969 L 89.328125 139.667969 L 84.660156 156.542969 C 84.019531 158.917969 84.511719 161.398438 86.007812 163.351562 C 87.503906 165.300781 89.773438 166.421875 92.234375 166.421875 Z M 301.261719 325.238281 C 301.207031 325.253906 301.152344 325.261719 301.09375 325.261719 C 300.871094 325.261719 300.660156 325.117188 300.585938 324.890625 L 295.234375 308.402344 L 257.617188 308.402344 L 257.617188 325.140625 C 257.617188 325.433594 257.378906 325.675781 257.082031 325.675781 C 256.785156 325.675781 256.546875 325.433594 256.546875 325.140625 L 256.546875 308.402344 L 222.09375 308.402344 L 217.28125 324.875 C 217.214844 325.109375 217 325.261719 216.769531 325.261719 C 216.71875 325.261719 216.671875 325.253906 216.621094 325.238281 C 216.335938 325.15625 216.171875 324.863281 216.253906 324.578125 L 221.035156 308.214844 C 220.949219 308.121094 220.894531 308 220.894531 307.867188 C 220.894531 307.625 221.0625 307.425781 221.285156 307.363281 L 242.753906 233.824219 C 242.796875 233.667969 242.90625 233.554688 243.042969 233.492188 C 242.667969 233.484375 242.292969 233.476562 241.910156 233.46875 C 236.832031 233.382812 231.582031 233.289062 225.820312 233.289062 L 203.59375 233.289062 L 203.59375 324.726562 C 203.59375 325.019531 203.351562 325.261719 203.058594 325.261719 C 202.761719 325.261719 202.523438 325.019531 202.523438 324.726562 L 202.523438 233.289062 L 187.011719 233.289062 L 201.660156 301.175781 C 201.71875 301.441406 201.566406 301.707031 201.308594 301.792969 L 186.78125 306.746094 C 186.722656 306.761719 186.667969 306.773438 186.609375 306.773438 C 186.40625 306.773438 186.210938 306.652344 186.121094 306.453125 L 185.492188 305.035156 L 163.71875 311.394531 C 163.667969 311.410156 163.617188 311.417969 163.566406 311.417969 C 163.34375 311.417969 163.140625 311.277344 163.0625 311.058594 C 162.878906 310.535156 144.890625 258.730469 138.921875 238.660156 C 136.019531 228.902344 136.371094 220.828125 139.972656 214.664062 C 143.308594 208.957031 149.269531 205.089844 157.6875 203.171875 C 165.699219 201.34375 185.363281 196.421875 202.523438 192.085938 L 202.523438 190.519531 L 100.480469 190.519531 L 100.480469 324.726562 C 100.480469 325.019531 100.242188 325.261719 99.945312 325.261719 C 99.652344 325.261719 99.410156 325.019531 99.410156 324.726562 L 99.410156 190.519531 L 41.273438 190.519531 L 41.273438 324.726562 C 41.273438 325.019531 41.035156 325.261719 40.742188 325.261719 C 40.445312 325.261719 40.207031 325.019531 40.207031 324.726562 L 40.207031 166.957031 C 40.207031 166.664062 40.445312 166.421875 40.742188 166.421875 L 88.011719 166.421875 C 86.917969 165.835938 85.945312 165.023438 85.160156 164 C 83.457031 161.78125 82.902344 158.960938 83.628906 156.261719 L 88.214844 139.667969 L 70.851562 139.667969 C 68.234375 139.667969 65.882812 137.917969 65.132812 135.410156 L 61.589844 123.558594 C 61.503906 123.277344 61.664062 122.976562 61.949219 122.890625 C 62.230469 122.808594 62.527344 122.96875 62.613281 123.25 L 66.15625 135.105469 C 66.773438 137.160156 68.703125 138.597656 70.851562 138.597656 L 138.722656 138.597656 L 139.523438 139.667969 L 119.441406 139.667969 L 115.132812 154.964844 C 114.488281 157.246094 114.941406 159.640625 116.371094 161.53125 C 117.804688 163.421875 119.984375 164.503906 122.359375 164.503906 L 145.46875 164.503906 C 145.765625 164.503906 146.003906 164.742188 146.003906 165.039062 L 146.003906 166.421875 L 203.058594 166.421875 C 203.351562 166.421875 203.59375 166.664062 203.59375 166.957031 L 203.59375 191.816406 C 219.058594 187.902344 232.21875 184.539062 232.496094 184.46875 C 232.785156 184.390625 233.074219 184.566406 233.144531 184.851562 C 233.21875 185.140625 233.046875 185.429688 232.761719 185.503906 C 232.171875 185.65625 173.386719 200.691406 157.925781 204.214844 C 149.808594 206.0625 144.078125 209.761719 140.894531 215.207031 C 137.453125 221.101562 137.132812 228.890625 139.949219 238.355469 C 145.601562 257.363281 162.066406 304.917969 163.90625 310.226562 L 187.328125 303.386719 L 169.355469 232.886719 C 169.316406 232.726562 169.351562 232.554688 169.453125 232.425781 C 169.554688 232.292969 169.707031 232.21875 169.875 232.21875 L 225.820312 232.21875 C 231.589844 232.21875 236.847656 232.308594 241.929688 232.398438 C 263.214844 232.78125 277.273438 233.03125 285.226562 225.15625 C 291.144531 219.292969 293.714844 208.789062 293.570312 191.085938 C 293.566406 190.792969 293.804688 190.550781 294.097656 190.546875 C 294.097656 190.546875 294.101562 190.546875 294.105469 190.546875 C 294.398438 190.546875 294.636719 190.785156 294.640625 191.078125 C 294.792969 209.089844 292.121094 219.835938 285.980469 225.917969 C 282.347656 229.515625 277.5625 231.484375 271.511719 232.527344 C 271.65625 232.585938 271.78125 232.695312 271.832031 232.855469 L 301.605469 324.5625 C 301.695312 324.839844 301.542969 325.144531 301.261719 325.238281 Z M 147.425781 119.597656 L 131.792969 127.277344 C 131.53125 127.40625 131.417969 127.726562 131.550781 127.992188 C 131.644531 128.179688 131.835938 128.289062 132.03125 128.289062 C 132.109375 128.289062 132.191406 128.273438 132.265625 128.234375 L 147.898438 120.558594 C 148.164062 120.429688 148.273438 120.109375 148.140625 119.84375 C 148.015625 119.578125 147.691406 119.46875 147.425781 119.597656 Z M 233.257812 82.125 C 233.324219 82.355469 233.539062 82.507812 233.769531 82.507812 C 233.820312 82.507812 233.875 82.503906 233.921875 82.488281 L 257.230469 75.632812 C 257.515625 75.550781 257.675781 75.253906 257.59375 74.96875 C 257.511719 74.6875 257.210938 74.519531 256.929688 74.609375 L 233.621094 81.460938 C 233.339844 81.542969 233.175781 81.839844 233.257812 82.125 Z M 215.140625 57.5625 L 218.183594 57.476562 L 217.988281 61.160156 C 217.804688 64.707031 219.417969 68.0625 222.300781 70.132812 C 225.179688 72.207031 228.878906 72.667969 232.183594 71.363281 L 237.335938 69.335938 L 237.246094 73.851562 C 237.242188 74.144531 237.472656 74.390625 237.769531 74.394531 C 237.773438 74.394531 237.777344 74.394531 237.78125 74.394531 C 238.070312 74.394531 238.308594 74.164062 238.316406 73.871094 L 238.421875 68.550781 C 238.425781 68.371094 238.339844 68.203125 238.191406 68.101562 C 238.042969 68 237.855469 67.980469 237.6875 68.042969 L 231.789062 70.367188 C 228.828125 71.539062 225.511719 71.125 222.925781 69.265625 C 220.339844 67.40625 218.894531 64.398438 219.058594 61.214844 L 219.28125 56.953125 C 219.289062 56.804688 219.234375 56.660156 219.128906 56.550781 C 219.023438 56.445312 218.855469 56.386719 218.734375 56.390625 L 216.164062 56.460938 L 219.476562 51.675781 C 219.53125 51.59375 219.566406 51.5 219.570312 51.398438 L 220.054688 42.109375 C 220.0625 42.164062 220.074219 42.214844 220.097656 42.265625 C 220.238281 42.527344 220.5625 42.628906 220.820312 42.492188 C 220.894531 42.457031 222.5625 41.613281 223.929688 43.746094 C 224.03125 43.902344 224.203125 43.992188 224.378906 43.992188 C 224.480469 43.992188 224.578125 43.964844 224.667969 43.90625 C 224.917969 43.75 224.988281 43.417969 224.828125 43.167969 C 223.320312 40.808594 221.222656 41.074219 220.324219 41.542969 C 220.199219 41.609375 220.109375 41.722656 220.066406 41.847656 L 220.691406 29.878906 L 228.300781 33.382812 C 228.324219 35.277344 228.839844 43.929688 235.992188 47.632812 C 236.132812 47.703125 236.296875 47.710938 236.445312 47.652344 C 236.589844 47.589844 236.699219 47.46875 236.75 47.316406 L 239.109375 39.855469 C 239.945312 39.816406 242.132812 39.863281 243.515625 41.148438 C 244.40625 41.976562 244.824219 43.207031 244.753906 44.804688 C 244.703125 45.984375 244.421875 47.140625 243.917969 48.238281 C 242.363281 51.621094 242.699219 55.605469 244.789062 58.636719 C 246.785156 61.53125 249.929688 63.058594 253.402344 62.832031 C 253.730469 62.808594 254.0625 62.773438 254.394531 62.726562 L 254.621094 66 C 254.640625 66.292969 254.898438 66.5 255.191406 66.496094 C 255.488281 66.476562 255.710938 66.21875 255.691406 65.925781 L 255.421875 62.058594 C 255.410156 61.90625 255.335938 61.769531 255.214844 61.675781 C 255.09375 61.582031 254.941406 61.542969 254.785156 61.574219 C 254.308594 61.664062 253.816406 61.730469 253.328125 61.761719 C 250.25 61.96875 247.445312 60.605469 245.671875 58.03125 C 243.792969 55.308594 243.496094 51.730469 244.890625 48.683594 C 245.453125 47.457031 245.769531 46.167969 245.824219 44.851562 C 245.90625 42.921875 245.371094 41.414062 244.238281 40.359375 C 242.140625 38.417969 238.789062 38.796875 238.644531 38.8125 C 238.433594 38.839844 238.261719 38.984375 238.195312 39.183594 L 235.925781 46.371094 C 229.210938 42.40625 229.367188 33.148438 229.371094 33.050781 C 229.375 32.839844 229.253906 32.640625 229.058594 32.550781 L 220.421875 28.578125 C 220.261719 28.503906 220.074219 28.515625 219.921875 28.605469 C 219.769531 28.699219 219.671875 28.859375 219.664062 29.039062 L 218.511719 51.195312 L 214.683594 56.722656 C 214.570312 56.886719 214.558594 57.105469 214.652344 57.28125 C 214.75 57.457031 214.925781 57.5625 215.140625 57.5625 Z M 224.253906 58.769531 C 222.804688 60.761719 220.867188 60.808594 220.777344 60.808594 C 220.484375 60.808594 220.246094 61.046875 220.246094 61.34375 C 220.246094 61.640625 220.484375 61.878906 220.777344 61.878906 C 220.882812 61.878906 223.335938 61.851562 225.121094 59.394531 C 225.292969 59.160156 225.242188 58.824219 225 58.652344 C 224.765625 58.476562 224.429688 58.527344 224.253906 58.769531 Z M 227.023438 115.320312 C 227.230469 115.53125 227.226562 115.871094 227.015625 116.078125 L 217.140625 125.671875 C 217.039062 125.773438 216.90625 125.824219 216.769531 125.824219 C 216.628906 125.824219 216.488281 125.769531 216.386719 125.660156 C 216.179688 125.449219 216.183594 125.109375 216.394531 124.90625 L 226.269531 115.308594 C 226.480469 115.105469 226.820312 115.109375 227.023438 115.320312"/></g><g clip-path="url(#b)"><path fill="#011D45" d="M 222.253906 49.761719 C 222.707031 49.761719 223.074219 49.394531 223.074219 48.941406 C 223.074219 48.484375 222.707031 48.117188 222.253906 48.117188 C 221.796875 48.117188 221.429688 48.484375 221.429688 48.941406 C 221.429688 49.394531 221.796875 49.761719 222.253906 49.761719 Z M 280.664062 236.316406 C 252.632812 236.316406 224.945312 235.972656 214.65625 235.828125 C 212.304688 235.792969 210.660156 233.417969 211.542969 231.234375 C 212.847656 228.011719 215.710938 224.253906 221.976562 224.253906 C 232.949219 224.253906 235.964844 224.253906 244.191406 224.253906 C 260.921875 224.253906 265.582031 182.308594 279.570312 182.308594 C 285.328125 182.308594 292.183594 182.308594 298.21875 182.308594 C 304.25 182.308594 316.039062 236.316406 280.664062 236.316406"/></g></svg>